<?xml version="1.0" encoding="utf-8"?>
<!-- Generator: Adobe Illustrator 16.0.0, SVG Export Plug-In . SVG Version: 6.00 Build 0)  -->
<!DOCTYPE svg PUBLIC "-//W3C//DTD SVG 1.1//EN" "http://www.w3.org/Graphics/SVG/1.1/DTD/svg11.dtd">
<svg version="1.1" id="Layer_1" xmlns="http://www.w3.org/2000/svg" xmlns:xlink="http://www.w3.org/1999/xlink" x="0px" y="0px"
	 width="841.89px" height="595.28px" viewBox="0 0 841.89 595.28" enable-background="new 0 0 841.89 595.28" xml:space="preserve">
<path fill="#282829" d="M394.642,499.697c0,0-0.363-0.176-1.052-0.506c-0.674-0.339-1.648-0.92-2.756-1.827
	c-1.071-0.944-2.28-2.238-3.278-3.991c-0.984-1.743-1.811-3.946-1.928-6.456c-0.144-2.49,0.308-5.272,1.646-7.842
	c1.349-2.596,3.761-4.853,6.82-5.896c3.035-1.059,6.562-0.967,9.679,0.617c0.684,0.425,1.389,0.725,2.058,1.395
	c0.325,0.305,0.698,0.581,0.977,0.915l0.788,1.042c0.288,0.333,0.469,0.731,0.657,1.124c0.181,0.397,0.406,0.777,0.545,1.189
	c0.206,0.847,0.539,1.676,0.531,2.561c0.235,1.76-0.265,3.501-0.887,5.111c-0.722,1.5-2.059,2.96-3.57,3.775
	c-1.519,0.887-3.331,1.14-5.006,0.931c-0.863-0.051-1.646-0.401-2.443-0.674l-1.055-0.621c-0.332-0.242-0.669-0.574-0.996-0.866
	c-1.167-1.24-1.813-2.877-1.813-4.497c0.001-1.595,0.561-3.209,1.606-4.312c2.196-2.37,6.025-2.149,7.718,0.057
	c0.833,1.067,1.106,2.449,0.812,3.635c-0.086,0.288-0.205,0.566-0.304,0.841c-0.191,0.299-0.254,0.469-0.479,0.713
	c-0.399,0.48-0.868,0.774-1.372,0.979c-1.011,0.413-2.093,0.228-2.884-0.23c-0.789-0.462-1.246-1.312-1.281-2.05
	c-0.057-0.745,0.206-1.437,0.589-1.841c0.402-0.435,0.878-0.597,1.259-0.657c0.785-0.056,1.145,0.232,1.145,0.202
	c0,0.028-0.385-0.226-1.129-0.118c-0.361,0.077-0.807,0.28-1.128,0.685c-0.336,0.425-0.511,1.028-0.437,1.695
	c0.08,0.666,0.486,1.34,1.2,1.713c0.688,0.351,1.632,0.464,2.445,0.067c0.401-0.182,0.798-0.482,1.05-0.822
	c0.144-0.137,0.283-0.473,0.383-0.628c0.066-0.239,0.155-0.472,0.213-0.714c0.188-0.979-0.066-2.092-0.761-2.92
	c-0.151-0.236-0.376-0.346-0.553-0.536c-0.217-0.145-0.576-0.354-0.759-0.428c-0.272-0.078-0.541-0.189-0.822-0.255
	c-0.288-0.021-0.578-0.079-0.871-0.082c-1.167-0.006-2.394,0.541-3.176,1.426c-1.667,1.891-1.602,5.2,0.312,7.137
	c0.25,0.206,0.447,0.428,0.725,0.637l0.936,0.545c0.67,0.207,1.322,0.509,2.04,0.532c1.393,0.153,2.895-0.059,4.137-0.813
	c1.269-0.747,2.203-1.723,2.907-3.132c0.499-1.388,0.927-2.864,0.703-4.355c0.03-0.754-0.269-1.457-0.423-2.185
	c-0.113-0.351-0.311-0.675-0.457-1.014c-0.153-0.339-0.302-0.686-0.548-0.969l-0.661-0.896c-0.23-0.285-0.516-0.487-0.769-0.74
	c-0.441-0.516-1.22-0.892-1.888-1.306c-2.57-1.341-5.818-1.529-8.509-0.589c-2.719,0.914-4.968,2.849-6.259,5.146
	c-1.323,2.345-1.831,4.927-1.773,7.278c0.047,2.365,0.712,4.496,1.564,6.226c0.866,1.734,1.972,3.058,2.972,4.04
	c1.049,0.936,1.941,1.59,2.6,1.974C394.29,499.495,394.642,499.697,394.642,499.697z"/>
<path fill="#FFCE06" d="M398.94,48.741c-5.876,0-10.751-1.007-11.748-2.333c-0.122,0.163-0.196,0.329-0.196,0.5
	c0,1.565,5.348,2.833,11.944,2.833s11.944-1.269,11.944-2.833c0-0.171-0.074-0.337-0.197-0.5
	C409.69,47.733,404.816,48.741,398.94,48.741z"/>
<g>
	
		<linearGradient id="SVGID_1_" gradientUnits="userSpaceOnUse" x1="-110.3774" y1="-10.1357" x2="-50.582" y2="0.1886" gradientTransform="matrix(-0.2991 -0.9542 -0.9542 0.2991 464.3301 425.6875)">
		<stop  offset="0.0049" style="stop-color:#292929"/>
		<stop  offset="1" style="stop-color:#181818"/>
	</linearGradient>
	<path fill="url(#SVGID_1_)" d="M471.478,444.412c-28.743,9.009-46.854,32.857-40.458,53.269
		c6.402,20.409,34.886,29.652,63.628,20.643c28.74-9.01,46.852-32.861,40.453-53.271C528.704,444.643,500.219,435.4,471.478,444.412
		z"/>
	<path d="M472.671,522.118C472.67,522.118,472.67,522.118,472.671,522.118c-20.866-0.001-37.343-9.553-41.98-24.335
		c-6.44-20.56,11.809-44.649,40.684-53.7c7.338-2.3,14.768-3.468,22.082-3.468c20.865,0,37.341,9.552,41.974,24.334
		c6.444,20.561-11.804,44.65-40.679,53.702C487.412,520.951,479.984,522.118,472.671,522.118z M493.456,441.305
		c-7.244,0-14.604,1.155-21.876,3.436c-28.512,8.938-46.561,32.641-40.231,52.837c4.544,14.489,20.765,23.851,41.321,23.852
		c7.244,0,14.603-1.155,21.875-3.435c28.513-8.938,46.558-32.642,40.228-52.839C530.231,450.667,514.014,441.305,493.456,441.305z"
		/>
</g>
<path opacity="0.3" fill="#FFFFFF" d="M531.04,474.708c-0.27-11.617-7.172-20.879-15.419-20.689
	c-8.249,0.192,1.697,10.358,1.967,21.975c0.265,11.616-9.246,20.28-0.999,20.092C524.838,495.894,531.309,486.324,531.04,474.708z"
	/>
<g>
	<linearGradient id="SVGID_2_" gradientUnits="userSpaceOnUse" x1="401.1147" y1="391.8799" x2="401.1147" y2="527.8131">
		<stop  offset="0.0049" style="stop-color:#292929"/>
		<stop  offset="0.6886" style="stop-color:#181818"/>
		<stop  offset="1" style="stop-color:#030202"/>
	</linearGradient>
	<path fill="url(#SVGID_2_)" d="M520.023,400.562c0,100.141-64.985,145.188-119.709,145.188
		c-54.725,0-118.107-45.048-118.107-145.188c0-100.142,74.911-181.323,118.107-181.323
		C443.51,219.239,520.023,300.421,520.023,400.562z"/>
	<path d="M400.314,546.084c-29.416,0-58.508-12.811-79.815-35.145c-25.269-26.485-38.624-64.653-38.624-110.377
		c0-60.941,26.891-106.612,42.92-128.411c23.782-32.345,53.426-53.245,75.52-53.245c22.186,0,52.143,20.898,76.318,53.242
		c16.329,21.845,43.724,67.575,43.724,128.414c0,57.664-21.44,91.854-39.427,110.379
		C459.246,533.275,429.863,546.084,400.314,546.084z M400.314,219.572c-21.889,0-51.322,20.793-74.984,52.973
		c-15.98,21.734-42.789,67.266-42.789,128.018c0,45.55,13.291,83.558,38.439,109.918c21.183,22.203,50.099,34.938,79.334,34.938
		c29.37,0,58.579-12.734,80.137-34.939c25.671-26.441,39.239-64.449,39.239-109.916c0-60.646-27.31-106.237-43.59-128.016
		C452.046,240.365,422.297,219.572,400.314,219.572z"/>
</g>
<g>
	<linearGradient id="SVGID_3_" gradientUnits="userSpaceOnUse" x1="400.436" y1="347.7588" x2="399.0704" y2="528.4609">
		<stop  offset="0.0049" style="stop-color:#E2E3E4"/>
		<stop  offset="0.4158" style="stop-color:#E0E2E3"/>
		<stop  offset="0.5638" style="stop-color:#DBDCDD"/>
		<stop  offset="0.6693" style="stop-color:#D1D3D4"/>
		<stop  offset="0.7546" style="stop-color:#C3C5C7"/>
		<stop  offset="0.8276" style="stop-color:#B1B3B5"/>
		<stop  offset="0.8924" style="stop-color:#9B9DA0"/>
		<stop  offset="0.9494" style="stop-color:#848588"/>
		<stop  offset="1" style="stop-color:#696A6D"/>
	</linearGradient>
	<path fill="url(#SVGID_3_)" d="M453.962,474.985c0,33.9-8.172,54.491-54.488,54.491c-46.313,0-54.487-19.989-54.487-54.491
		c0-34.496,9.529-35.389,24.022-45.181c8.697-5.874,6.025-121.091,32.586-121.091c26.558,0,19.564,115.19,28.242,121.022
		C444.389,439.52,453.962,441.091,453.962,474.985z"/>
	<path d="M399.474,529.82c-22.334,0-36.593-4.585-44.875-14.43c-6.979-8.295-9.957-20.38-9.957-40.405
		c0-30.275,7.51-34.965,18.878-42.063c1.695-1.06,3.447-2.153,5.297-3.402c2.958-1.998,4.664-18.401,6.641-37.396
		c3.676-35.347,8.711-83.756,26.138-83.756c17.363,0,20.639,48.139,23.029,83.287c1.307,19.209,2.436,35.8,5.404,37.795
		c1.694,1.14,3.312,2.16,4.874,3.148c11.686,7.381,19.405,12.257,19.405,42.387C454.308,509.714,445.334,529.82,399.474,529.82z
		 M401.595,309.058c-16.806,0-21.804,48.053-25.454,83.138c-2.074,19.955-3.713,35.716-6.939,37.896
		c-1.858,1.256-3.617,2.354-5.316,3.416c-11.57,7.224-18.555,11.584-18.555,41.479c0,35.116,8.629,54.146,54.144,54.146
		c22.052,0,36.145-4.578,44.349-14.409c6.866-8.227,9.796-20.111,9.796-39.737c0-29.751-7.183-34.288-19.084-41.805
		c-1.567-0.99-3.188-2.015-4.89-3.158c-3.25-2.184-4.334-18.131-5.707-38.321C421.564,356.824,418.314,309.058,401.595,309.058z"/>
</g>
<path fill="#C82027" d="M531.015,457.69l-92.048-46.897c-11.285-1.25-23.213-1.923-35.552-1.923c-10.237,0-20.19,0.464-29.731,1.336
	l-97.869,46.217c-0.247,1.243,0,0,0,1.268c0,26.965,57.129,48.824,127.601,48.824S531.015,484.655,531.015,457.69L531.015,457.69z"
	/>
<path fill="#E32A26" d="M531.015,455.708l-92.048-46.897c-11.285-1.251-23.213-1.923-35.552-1.923
	c-10.237,0-20.19,0.465-29.731,1.336l-97.869,46.216c-0.247,1.243,0,0,0,1.269c0,26.965,57.129,48.822,127.601,48.822
	S531.015,482.673,531.015,455.708L531.015,455.708z"/>
<polygon fill="#EF4343" points="401.823,463.845 395.933,504.767 410.9,504.508 "/>
<g>
	<polygon fill="#EF4343" points="423.292,462.866 431.229,503.662 445.803,501.588 	"/>
	<polygon fill="#EF4343" points="444.997,459.462 463.365,499.019 477.227,495.601 	"/>
	<polygon fill="#EF4343" points="455.978,456.297 497.421,488.9 508.932,483.168 	"/>
	<polygon fill="#EF4343" points="471.111,452.376 517.039,477.739 525.264,470.243 	"/>
	<path fill="#EF4343" d="M497.5,447.084l31.177,17.974c0,0,2.47-4.766,2.338-9.35L497.5,447.084z"/>
</g>
<g>
	<polygon fill="#EF4343" points="384.209,462.523 380.408,503.911 366.107,502.41 	"/>
	<polygon fill="#EF4343" points="366.107,460.141 347.74,499.697 333.879,496.279 	"/>
	<polygon fill="#EF4343" points="355.579,457.692 314.135,490.297 302.141,485.411 	"/>
	<polygon fill="#EF4343" points="330.801,453.657 287.722,476.326 280.421,468.747 	"/>
	<polygon fill="#EF4343" points="305.611,446.657 277.475,463.601 275.814,454.439 	"/>
</g>
<g>
	<path fill="#E32A26" d="M284.538,325.368c-0.352,4.883-3.35,57.154-3.35,61.852c0,28.771,0.309,39.274,5.68,62
		c26.189-10.163,72.438-2.241,112.607-2.241c40.016,0,88.922-9.385,115.09,0.709c7.136-21.688,5.791-31.328,5.791-60.021
		c0-5.198-9.114-53.854-9.552-59.246c-6.707,11.103-13.855,15.187-20.855,15.187s-37.245-4.172-37.245-64.15
		c0-14.293,1.053-28.192,3.123-41.318c-6.73-6.726-13.637-12.551-20.533-17.324c1.604,11.234,2.416,23.044,2.416,35.116
		c0,55.589-17.422,90.814-38.838,90.814c-21.414,0-38.836-35.226-38.836-90.814c0-12.118,0.818-23.966,2.432-35.229
		c-6.871,4.793-13.738,10.653-20.424,17.431c2.072,13.127,3.123,27.031,3.123,41.324c0,59.979-20.218,61.269-32.718,61.269
		S291.022,335.476,284.538,325.368z"/>
</g>
<g>
	<path fill="#C82027" d="M361.587,253.562c0,55.589,17.422,90.814,38.836,90.814c21.416,0,38.838-35.226,38.838-90.814
		c0-0.54-0.011-1.077-0.014-1.616c-0.289,54.782-17.588,89.43-38.824,89.43c-21.233,0-38.532-34.647-38.822-89.427
		C361.598,252.488,361.587,253.023,361.587,253.562z"/>
	<path fill="#C82027" d="M456.992,235.393c0.129-0.875,0.249-1.754,0.386-2.623c-6.73-6.726-13.637-12.551-20.533-17.324
		c0.157,1.098,0.3,2.205,0.441,3.313C443.904,223.384,450.527,228.972,456.992,235.393z"/>
	<path fill="#C82027" d="M454.255,277.089c0,59.979,30.245,64.15,37.245,64.15s14.148-4.084,20.855-15.187
		c0.424,5.226,6.561,50.671,6.938,58.198c0.006-0.801,0.019-1.598,0.019-2.399c0-5.198-6.519-53.407-6.956-58.799
		c-6.707,11.103-13.855,15.187-20.855,15.187c-6.937,0-36.691-4.106-37.232-62.537C454.266,276.165,454.255,276.625,454.255,277.089
		z"/>
	<path fill="#C82027" d="M286.089,323c6.484,10.107,15.411,15.357,27.911,15.357s32.718-1.29,32.718-61.269
		c0-0.367-0.009-0.73-0.01-1.098c-0.427,58.095-20.343,59.366-32.708,59.366c-12.5,0-21.427-5.25-27.911-15.357
		c-0.352,4.883-3.35,57.154-3.35,61.852c0,0.766,0.009,1.527,0.013,2.292C282.955,376.389,285.75,327.704,286.089,323z"/>
	<path fill="#C82027" d="M363.575,218.652c0.143-1.11,0.286-2.219,0.443-3.318c-6.871,4.793-13.738,10.653-20.424,17.431
		c0.137,0.866,0.257,1.745,0.385,2.618C350.4,228.914,356.984,223.294,363.575,218.652z"/>
</g>
<g>
	<path fill="#EF4343" d="M454.255,287.089c0,59.979,30.245,64.15,37.245,64.15s14.148-4.084,20.855-15.187
		c0.404,4.985,6.007,46.57,6.85,56.922c0.064-2.697,0.106-5.403,0.106-8.123c0-5.198-6.519-53.407-6.956-58.799
		c-6.707,11.103-13.855,15.187-20.855,15.187c-6.828,0-35.77-3.979-37.186-59.844C454.276,283.286,454.255,285.184,454.255,287.089z
		"/>
	<path fill="#EF4343" d="M456.164,244.582c0.357-2.97,0.757-5.912,1.214-8.811c-6.73-6.726-13.637-12.551-20.533-17.324
		c0.511,3.58,0.933,7.225,1.282,10.912C444.184,233.664,450.236,238.771,456.164,244.582z"/>
	<path fill="#EF4343" d="M286.089,333c6.484,10.107,15.411,15.357,27.911,15.357s32.718-1.29,32.718-61.269
		c0-1.737-0.017-3.469-0.048-5.193c-1.061,55.234-20.514,56.462-32.67,56.462c-12.5,0-21.427-5.25-27.911-15.357
		c-0.352,4.883-3.35,57.154-3.35,61.852c0,2.568,0.026,5.125,0.067,7.674C283.253,381.213,285.769,337.448,286.089,333z"/>
	<path fill="#EF4343" d="M361.587,263.562c0,55.589,17.422,90.814,38.836,90.814c21.416,0,38.838-35.226,38.838-90.814
		c0-1.661-0.019-3.316-0.05-4.966c-1.02,52.672-18.026,85.78-38.788,85.78c-20.761,0-37.768-33.109-38.786-85.783
		C361.605,260.245,361.587,261.9,361.587,263.562z"/>
	<path fill="#EF4343" d="M362.73,229.258c0.352-3.692,0.774-7.34,1.288-10.924c-6.871,4.793-13.738,10.653-20.424,17.431
		c0.457,2.894,0.855,5.831,1.212,8.796C350.69,238.712,356.704,233.579,362.73,229.258z"/>
</g>
<g>
	
		<linearGradient id="SVGID_4_" gradientUnits="userSpaceOnUse" x1="-197.2544" y1="292.3403" x2="-197.2544" y2="452.1827" gradientTransform="matrix(-1.133 0.0262 -0.0262 1.0051 302.9492 -0.187)">
		<stop  offset="0.0049" style="stop-color:#292929"/>
		<stop  offset="1" style="stop-color:#181818"/>
	</linearGradient>
	<path fill="url(#SVGID_4_)" d="M474.898,263.834c26.504-6.018,52.936,36.86,55.902,63.406c11.966,20.68,11.3,77.945,16.677,80.214
		c6.43,2.718,9.097,5.991,13.006,12.878c3.028,5.336-6.862,12.102-15.337,13.769c-2.607,0.513-4.605-1.55-6.478-1.438
		c-4.212,0.25-7.069,1.652-9.699-1.805c-3.819-5.025-6.67-6.684-0.975-20.15c0.375-0.888-26.173-42.72-30.399-68.344
		c-2.242-13.58-16.649-26.055-24.964-38.812"/>
	<path d="M544.301,434.55c-1.218,0-2.294-0.457-3.266-0.87c-0.838-0.356-1.634-0.686-2.344-0.65
		c-0.894,0.053-1.719,0.157-2.517,0.259c-2.965,0.377-5.305,0.673-7.497-2.208c-0.328-0.432-0.649-0.839-0.959-1.23
		c-3.329-4.219-5.341-6.77-0.102-19.194c-0.174-0.528-1.544-2.964-3.262-6.013c-7.134-12.669-23.843-42.338-27.123-62.22
		c-1.495-9.055-8.584-17.771-15.44-26.199c-3.317-4.078-6.746-8.295-9.469-12.473l0.616-0.4c2.701,4.145,6.118,8.346,9.423,12.408
		c6.916,8.504,14.068,17.297,15.595,26.545c3.259,19.754,19.923,49.343,27.039,61.978c3.363,5.972,3.475,6.243,3.336,6.569
		c-5.118,12.104-3.313,14.391-0.036,18.544c0.312,0.395,0.636,0.805,0.968,1.239c1.935,2.547,3.984,2.283,6.818,1.925
		c0.81-0.103,1.647-0.208,2.565-0.264c0.873-0.05,1.756,0.316,2.675,0.708c1.166,0.496,2.367,1.007,3.754,0.736
		c6.568-1.292,13.353-5.483,15.124-9.344c0.643-1.4,0.63-2.707-0.037-3.882c-3.843-6.771-6.476-10.035-12.828-12.722
		c-2.35-0.991-3.452-9.917-5.198-25.607c-2.125-19.096-4.77-42.861-11.654-54.76l-0.046-0.144
		c-1.984-17.753-15.046-44.678-32.688-57.223c-7.807-5.551-15.469-7.522-22.769-5.865l-0.163-0.717
		c7.515-1.707,15.373,0.307,23.356,5.983c17.782,12.645,30.954,39.753,32.983,57.664c6.934,12.053,9.582,35.851,11.711,54.979
		c1.44,12.952,2.685,24.14,4.752,25.012c6.553,2.771,9.252,6.111,13.183,13.034c0.791,1.393,0.812,2.925,0.065,4.553
		c-2.108,4.597-9.613,8.572-15.651,9.759C544.903,434.523,544.598,434.55,544.301,434.55z"/>
</g>
<g>
	
		<linearGradient id="SVGID_5_" gradientUnits="userSpaceOnUse" x1="100.6211" y1="426.3535" x2="98.2552" y2="443.6677" gradientTransform="matrix(-1 0 0 1 660.2529 0)">
		<stop  offset="0" style="stop-color:#C82127"/>
		<stop  offset="1" style="stop-color:#E13926"/>
	</linearGradient>
	<path fill="url(#SVGID_5_)" d="M552.868,422.606c1.192,3.28,0.547,7.055,3.976,6.382c3.428-0.676,11.947,10.438,11.947,10.438
		c-0.306-9.11-9.736-23.366-17.694-20.984C551.097,418.442,551.693,419.377,552.868,422.606z"/>
	<path d="M569.221,440.627l-0.739-0.963c-2.199-2.869-8.521-10.315-11.321-10.315c-0.084,0-0.165,0.006-0.242,0.022
		c-0.29,0.057-0.563,0.085-0.813,0.085h-0.001c-2.124,0-2.509-1.943-2.916-4.001c-0.177-0.896-0.36-1.821-0.686-2.715
		c-1.136-3.123-1.728-4.079-1.734-4.089l-0.272-0.435l0.49-0.147c0.622-0.186,1.271-0.28,1.929-0.28
		c8.015,0,15.992,13.489,16.267,21.625L569.221,440.627z M557.16,428.569c3.103,0,9,6.952,11.145,9.614
		c-0.448-3.824-2.323-8.422-5.061-12.316c-3.676-5.227-7.979-7.928-11.568-7.171c0.284,0.562,0.805,1.705,1.558,3.777
		c0.346,0.95,0.544,1.949,0.718,2.831c0.427,2.154,0.736,3.373,2.152,3.373h0.001c0.199,0,0.423-0.024,0.664-0.071
		C556.894,428.582,557.023,428.569,557.16,428.569z"/>
</g>
<g>
	
		<linearGradient id="SVGID_6_" gradientUnits="userSpaceOnUse" x1="106.1582" y1="427.1113" x2="103.7924" y2="444.4245" gradientTransform="matrix(-1 0 0 1 660.2529 0)">
		<stop  offset="0" style="stop-color:#C82127"/>
		<stop  offset="1" style="stop-color:#E13926"/>
	</linearGradient>
	<path fill="url(#SVGID_6_)" d="M544.181,422.334c0.672,3.428,9.531,9.055,9.531,9.055c3.424-0.675,12.185,15.049,12.185,15.049
		c-0.305-9.108-8.519-29.02-16.414-27.467C549.482,418.971,543.505,418.907,544.181,422.334z"/>
	<path d="M566.341,448.032l-0.783-1.405c-2.306-4.137-8.886-14.87-11.623-14.87c-0.051,0-0.1,0.004-0.148,0.014l-0.152,0.03
		l-0.131-0.083c-0.368-0.233-9.008-5.757-9.704-9.309c-0.164-0.828,0.001-1.55,0.489-2.144c1.347-1.638,4.784-1.684,5.171-1.684
		c0.263-0.056,0.584-0.086,0.905-0.086c7.896,0,15.622,18.97,15.922,27.929L566.341,448.032z M553.935,430.979
		c3.113,0,9.115,9.764,11.436,13.75c-1.094-9.052-8.118-25.454-15.006-25.454c-0.271,0-0.542,0.026-0.807,0.078l-0.08,0.008l0,0
		c-0.169,0-3.452,0.019-4.588,1.399c-0.338,0.412-0.444,0.902-0.327,1.499c0.592,3.019,8.193,8.046,9.239,8.725
		C553.846,430.98,553.89,430.979,553.935,430.979z"/>
</g>
<g>
	
		<linearGradient id="SVGID_7_" gradientUnits="userSpaceOnUse" x1="107.6353" y1="427.3115" x2="105.2694" y2="444.6256" gradientTransform="matrix(-1 0 0 1 660.2529 0)">
		<stop  offset="0" style="stop-color:#C82127"/>
		<stop  offset="1" style="stop-color:#E13926"/>
	</linearGradient>
	<path fill="url(#SVGID_7_)" d="M547.491,428.048c0.672,3.428,3.226,4.201,3.226,4.201c3.428-0.673,12.166,20.826,12.166,20.826
		c-0.303-9.111-5.703-34.31-18.231-33.207C544.651,419.868,546.815,424.616,547.491,428.048z"/>
	<path d="M563.345,455.246l-0.822-2.024c-3.238-7.964-9.261-20.599-11.644-20.599c-0.029,0-0.059,0.003-0.087,0.008l-0.095,0.02
		l-0.093-0.029c-0.113-0.033-2.787-0.882-3.496-4.498c-0.658-3.348-2.791-8.046-2.812-8.094l-0.229-0.501l0.549-0.048
		c0.279-0.024,0.554-0.037,0.826-0.037c11.904,0,17.501,23.726,17.83,33.619L563.345,455.246z M550.879,431.844
		c0.606,0,2.45,0,7.677,10.639c1.539,3.134,2.929,6.292,3.788,8.302c-0.987-10.679-6.411-30.829-17.108-30.559
		c0.581,1.332,2.085,4.938,2.638,7.747c0.56,2.855,2.471,3.723,2.882,3.878C550.796,431.846,550.837,431.844,550.879,431.844z"/>
</g>
<g>
	
		<linearGradient id="SVGID_8_" gradientUnits="userSpaceOnUse" x1="111.7451" y1="427.874" x2="109.379" y2="445.1897" gradientTransform="matrix(-1 0 0 1 660.2529 0)">
		<stop  offset="0" style="stop-color:#C82127"/>
		<stop  offset="1" style="stop-color:#E13926"/>
	</linearGradient>
	<path fill="url(#SVGID_8_)" d="M543.751,425.975c0.675,3.431-0.1,6.63-0.1,6.63c3.429-0.676,13.818,15.954,13.818,15.954
		c-0.304-9.11-8.359-29.92-16.26-28.368C541.21,420.19,543.078,422.546,543.751,425.975z"/>
	<path d="M557.908,449.994l-0.768-1.229c-3.967-6.348-10.775-15.791-13.276-15.791c-0.048,0-0.094,0.004-0.138,0.013l-0.596,0.117
		l0.142-0.591c0.008-0.031,0.745-3.162,0.096-6.464c-0.645-3.289-2.446-5.593-2.464-5.617l-0.396-0.5l0.626-0.123
		c0.303-0.06,0.612-0.09,0.922-0.09c7.819,0,15.496,19.579,15.804,28.826L557.908,449.994z M544.129,432.219
		c3.348,0.545,10.33,10.934,12.842,14.828c-0.995-9.294-8.035-26.549-14.915-26.549c-0.05,0-0.099,0.001-0.148,0.003
		c0.602,0.905,1.727,2.854,2.225,5.398C544.67,428.631,544.319,431.185,544.129,432.219z"/>
</g>
<g>
	
		<linearGradient id="SVGID_9_" gradientUnits="userSpaceOnUse" x1="129.9497" y1="429.708" x2="124.7878" y2="445.9465" gradientTransform="matrix(-1 0 0 1 660.2529 0)">
		<stop  offset="0" style="stop-color:#C82127"/>
		<stop  offset="1" style="stop-color:#E13926"/>
	</linearGradient>
	<path fill="url(#SVGID_9_)" d="M532.55,427.869c0.676,3.429,2.135,4.877,2.135,4.877c-3.426,0.676-0.317,12.37-0.317,12.37
		c-6.445-7.157-14.407-18.23-2.124-24.784C532.243,420.332,531.875,424.441,532.55,427.869z"/>
	<path d="M535.158,446.576l-1.08-1.199c-4.172-4.633-9.594-11.504-8.512-17.663c0.547-3.12,2.732-5.719,6.494-7.727l0.635-0.339
		l-0.063,0.718c-0.004,0.04-0.356,4.097,0.299,7.428c0.641,3.249,2.016,4.662,2.029,4.677l0.513,0.516l-0.712,0.143
		c-0.307,0.061-0.552,0.243-0.749,0.559c-1.312,2.101,0.084,8.891,0.731,11.329L535.158,446.576z M531.806,421.02
		c-3.159,1.835-4.999,4.13-5.472,6.829c-0.938,5.341,3.426,11.395,7.291,15.841c-0.604-2.716-1.607-8.277-0.274-10.414
		c0.191-0.306,0.422-0.538,0.691-0.697c-0.5-0.678-1.387-2.159-1.875-4.634C531.651,425.325,531.731,422.362,531.806,421.02z"/>
</g>
<g>
	<g>
		
			<linearGradient id="SVGID_10_" gradientUnits="userSpaceOnUse" x1="-71.8501" y1="289.0732" x2="-71.8501" y2="448.9247" gradientTransform="matrix(1.133 0.0262 0.0262 1.0051 357.3018 -0.187)">
			<stop  offset="0.0049" style="stop-color:#292929"/>
			<stop  offset="1" style="stop-color:#181818"/>
		</linearGradient>
		<path fill="url(#SVGID_10_)" d="M327.35,263.834c-26.503-6.018-52.938,36.86-55.902,63.406
			c-11.965,20.68-11.301,77.945-16.676,80.214c-6.43,2.718-9.099,5.991-13.007,12.878c-3.026,5.336,6.864,12.102,15.336,13.769
			c2.529,0.495,4.644-1.102,6.476-0.979c4.312,0.289,7.039,1.237,9.701-2.265c3.82-5.025,6.672-6.684,0.977-20.15
			c-0.377-0.888,26.17-42.72,30.398-68.344c2.242-13.58,16.65-26.055,24.965-38.812"/>
		<path d="M258.103,434.563c-0.349,0-0.706-0.03-1.072-0.103c-6.036-1.187-13.54-5.162-15.649-9.759
			c-0.748-1.628-0.727-3.16,0.064-4.552c3.93-6.923,6.63-10.265,13.183-13.035c2.067-0.872,3.312-12.06,4.753-25.011
			c2.129-19.13,4.776-42.928,11.709-54.98c2.029-17.909,15.199-45.018,32.982-57.663c7.984-5.678,15.842-7.693,23.359-5.984
			l-0.164,0.717c-7.303-1.658-14.963,0.314-22.77,5.867c-17.643,12.545-30.703,39.47-32.686,57.221l-0.047,0.144
			c-6.885,11.898-9.529,35.665-11.654,54.762c-1.746,15.689-2.848,24.614-5.197,25.605c-6.355,2.688-8.987,5.951-12.83,12.722
			c-0.666,1.175-0.679,2.48-0.035,3.882c1.771,3.86,8.556,8.052,15.123,9.344c1.367,0.27,2.607-0.116,3.806-0.487
			c0.915-0.284,1.778-0.557,2.624-0.496c0.669,0.045,1.3,0.105,1.898,0.162c3.226,0.312,5.356,0.516,7.484-2.284
			c0.331-0.435,0.654-0.845,0.967-1.239c3.278-4.153,5.084-6.44-0.035-18.544c-0.139-0.326-0.026-0.598,3.338-6.571
			c7.115-12.635,23.777-42.223,27.037-61.976c1.525-9.248,8.679-18.043,15.597-26.547c3.304-4.062,6.722-8.263,9.423-12.406
			l0.615,0.4c-2.723,4.178-6.152,8.394-9.468,12.469c-6.857,8.431-13.948,17.148-15.442,26.203
			c-3.281,19.881-19.988,49.549-27.121,62.217c-1.719,3.05-3.09,5.487-3.264,6.016c5.24,12.426,3.228,14.976-0.104,19.194
			c-0.309,0.392-0.63,0.799-0.958,1.23c-2.376,3.123-4.794,2.891-8.14,2.57c-0.592-0.058-1.216-0.117-1.877-0.161
			c-0.706-0.049-1.51,0.201-2.357,0.464C260.259,434.244,259.228,434.563,258.103,434.563z"/>
	</g>
	<g>
		<linearGradient id="SVGID_11_" gradientUnits="userSpaceOnUse" x1="233.458" y1="428.8027" x2="251.1523" y2="428.8027">
			<stop  offset="0" style="stop-color:#C82127"/>
			<stop  offset="1" style="stop-color:#E13926"/>
		</linearGradient>
		<path fill="url(#SVGID_11_)" d="M249.38,422.606c-1.194,3.28-0.548,7.055-3.977,6.382c-3.427-0.676-11.945,10.438-11.945,10.438
			c0.304-9.11,9.735-23.366,17.694-20.984C251.152,418.442,250.555,419.377,249.38,422.606z"/>
		<path d="M233.028,440.627l0.04-1.213c0.299-8.934,8.761-21.625,16.266-21.625c0.658,0,1.307,0.095,1.93,0.28l0.49,0.147
			l-0.273,0.435c-0.006,0.01-0.6,0.966-1.734,4.089c-0.326,0.894-0.509,1.82-0.686,2.715c-0.408,2.058-0.793,4.001-2.917,4.001
			c-0.251,0-0.524-0.028-0.815-0.085c-0.078-0.017-0.158-0.022-0.241-0.022c-2.799,0-9.12,7.446-11.319,10.315L233.028,440.627z
			 M249.334,418.568c-3.303,0-7.068,2.66-10.33,7.299c-2.738,3.895-4.612,8.492-5.061,12.316c2.145-2.662,8.043-9.614,11.144-9.614
			c0.136,0,0.267,0.013,0.392,0.037c0.24,0.047,0.465,0.071,0.665,0.071c1.415,0,1.726-1.219,2.152-3.373
			c0.175-0.882,0.372-1.881,0.718-2.831c0.754-2.072,1.274-3.215,1.559-3.777C250.168,418.611,249.752,418.568,249.334,418.568z"/>
	</g>
	<g>
		<linearGradient id="SVGID_12_" gradientUnits="userSpaceOnUse" x1="248.1538" y1="427.1113" x2="245.788" y2="444.4251">
			<stop  offset="0" style="stop-color:#C82127"/>
			<stop  offset="1" style="stop-color:#E13926"/>
		</linearGradient>
		<path fill="url(#SVGID_12_)" d="M258.068,422.334c-0.674,3.428-9.531,9.055-9.531,9.055c-3.426-0.675-12.187,15.049-12.187,15.049
			c0.305-9.108,8.519-29.02,16.415-27.467C252.766,418.971,258.742,418.907,258.068,422.334z"/>
		<path d="M235.908,448.032l0.053-1.607c0.301-8.959,8.026-27.929,15.923-27.929c0.308,0,0.617,0.028,0.92,0.086
			c0.564,0.003,3.848,0.093,5.156,1.684c0.487,0.594,0.653,1.315,0.49,2.145c-0.698,3.551-9.337,9.074-9.704,9.308l-0.131,0.083
			l-0.153-0.03c-0.048-0.01-0.097-0.014-0.147-0.014c-2.738,0-9.319,10.733-11.624,14.87L235.908,448.032z M251.884,419.274
			c-6.888,0-13.913,16.402-15.006,25.454c2.354-4.043,8.511-14.02,11.569-13.745c1.047-0.68,8.646-5.706,9.238-8.725
			c0.118-0.597,0.011-1.087-0.327-1.499c-1.139-1.384-4.431-1.399-4.569-1.399l-0.098-0.008
			C252.426,419.301,252.154,419.274,251.884,419.274z"/>
	</g>
	<g>
		<linearGradient id="SVGID_13_" gradientUnits="userSpaceOnUse" x1="249.6304" y1="427.3115" x2="247.2645" y2="444.6259">
			<stop  offset="0" style="stop-color:#C82127"/>
			<stop  offset="1" style="stop-color:#E13926"/>
		</linearGradient>
		<path fill="url(#SVGID_13_)" d="M254.758,428.048c-0.674,3.428-3.227,4.201-3.227,4.201c-3.429-0.673-12.168,20.826-12.168,20.826
			c0.305-9.111,5.705-34.31,18.233-33.207C257.597,419.868,255.432,424.616,254.758,428.048z"/>
		<path d="M238.902,455.246l0.072-2.184c0.33-9.895,5.93-33.619,17.83-33.619c0.273,0,0.547,0.013,0.826,0.037l0.549,0.048
			l-0.229,0.501c-0.021,0.048-2.154,4.747-2.812,8.094c-0.711,3.616-3.383,4.465-3.496,4.498l-0.093,0.029l-0.096-0.02
			c-0.027-0.005-0.057-0.008-0.086-0.008c-2.383,0-8.407,12.635-11.645,20.599L238.902,455.246z M256.805,420.223
			c-10.539,0-15.918,19.95-16.9,30.561c0.859-2.01,2.249-5.168,3.787-8.301c5.227-10.639,7.071-10.639,7.678-10.639
			c0.041,0,0.082,0.002,0.123,0.007c0.409-0.154,2.322-1.02,2.884-3.878c0.551-2.809,2.056-6.415,2.637-7.747
			C256.943,420.223,256.874,420.223,256.805,420.223z"/>
	</g>
	<g>
		<linearGradient id="SVGID_14_" gradientUnits="userSpaceOnUse" x1="253.7407" y1="427.875" x2="251.3746" y2="445.1907">
			<stop  offset="0" style="stop-color:#C82127"/>
			<stop  offset="1" style="stop-color:#E13926"/>
		</linearGradient>
		<path fill="url(#SVGID_14_)" d="M258.496,425.975c-0.674,3.431,0.101,6.63,0.101,6.63c-3.43-0.676-13.819,15.954-13.819,15.954
			c0.304-9.11,8.361-29.92,16.26-28.368C261.037,420.19,259.17,422.546,258.496,425.975z"/>
		<path d="M244.34,449.994l0.049-1.448c0.307-9.247,7.982-28.826,15.803-28.826c0.309,0,0.618,0.03,0.921,0.09l0.626,0.123
			l-0.396,0.5c-0.019,0.023-1.817,2.328-2.464,5.617c-0.648,3.302,0.089,6.433,0.096,6.464l0.143,0.59l-0.596-0.116
			c-0.044-0.009-0.09-0.013-0.138-0.013c-2.502,0-9.31,9.443-13.276,15.791L244.34,449.994z M260.191,420.498
			c-6.881,0-13.92,17.255-14.914,26.549c2.512-3.895,9.494-14.283,12.842-14.828c-0.189-1.034-0.541-3.588-0.005-6.32
			c0.5-2.543,1.625-4.492,2.226-5.397C260.29,420.499,260.24,420.498,260.191,420.498z"/>
	</g>
	<g>
		<linearGradient id="SVGID_15_" gradientUnits="userSpaceOnUse" x1="271.9419" y1="429.708" x2="266.7802" y2="445.9459">
			<stop  offset="0" style="stop-color:#C82127"/>
			<stop  offset="1" style="stop-color:#E13926"/>
		</linearGradient>
		<path fill="url(#SVGID_15_)" d="M269.697,427.869c-0.674,3.429-2.134,4.877-2.134,4.877c3.426,0.676,0.317,12.37,0.317,12.37
			c6.445-7.157,14.408-18.23,2.123-24.784C270.004,420.332,270.373,424.441,269.697,427.869z"/>
		<path d="M267.09,446.576l0.415-1.56c0.647-2.439,2.042-9.229,0.731-11.329c-0.197-0.315-0.442-0.498-0.748-0.559l-0.721-0.143
			l0.521-0.517c0.013-0.014,1.389-1.427,2.026-4.676c0.655-3.331,0.304-7.388,0.301-7.428l-0.065-0.717l0.637,0.338
			c3.762,2.008,5.947,4.606,6.495,7.727c1.081,6.159-4.34,13.03-8.513,17.663L267.09,446.576z M268.206,432.578
			c0.27,0.159,0.501,0.392,0.69,0.697c1.335,2.137,0.331,7.698-0.272,10.415c3.864-4.447,8.229-10.501,7.291-15.842
			c-0.474-2.699-2.314-4.994-5.474-6.829c0.074,1.343,0.154,4.306-0.361,6.925C269.594,430.419,268.707,431.9,268.206,432.578z"/>
	</g>
</g>
<g>
	
		<ellipse transform="matrix(-0.5209 -0.8536 0.8536 -0.5209 337.553 829.5947)" fill="#F2759C" cx="401.594" cy="320.066" rx="15.969" ry="12.636"/>
	<path d="M404.405,335.552c-5.285,0-10.608-3.343-13.893-8.723c-4.685-7.678-3.526-16.958,2.584-20.688
		c1.695-1.036,3.608-1.56,5.688-1.56c5.284,0,10.605,3.342,13.89,8.723c2.263,3.709,3.247,7.895,2.772,11.79
		c-0.479,3.925-2.381,7.085-5.354,8.898C408.396,335.026,406.483,335.552,404.405,335.552z M398.784,305.269
		c-1.95,0-3.742,0.492-5.329,1.461c-5.784,3.531-6.842,12.388-2.354,19.741c3.111,5.098,8.334,8.392,13.305,8.392
		c1.949,0,3.742-0.49,5.328-1.459c2.789-1.701,4.576-4.683,5.028-8.394c0.457-3.741-0.493-7.771-2.676-11.347
		C408.975,308.563,403.754,305.269,398.784,305.269z"/>
</g>
<path fill="#DC549E" d="M401.07,321.171c0,0,0.033,0.164,0.076,0.452c0.03,0.29,0.116,0.698,0.192,1.18
	c0.038,0.24,0.102,0.501,0.146,0.776c0.045,0.276,0.129,0.56,0.184,0.858c0.062,0.298,0.158,0.597,0.229,0.906
	c0.096,0.301,0.168,0.616,0.287,0.914c0.399,1.216,0.982,2.369,1.652,3.027c0.165,0.167,0.332,0.301,0.492,0.408
	c0.155,0.118,0.319,0.161,0.446,0.23c0.276,0.076,0.434,0.119,0.434,0.119s-0.041,0.003-0.118,0.007
	c-0.078,0-0.197,0.019-0.346,0.005c-0.141-0.038-0.336-0.047-0.529-0.132c-0.098-0.041-0.204-0.084-0.314-0.131
	c-0.104-0.058-0.205-0.132-0.315-0.203c-0.22-0.146-0.43-0.34-0.631-0.559c-0.098-0.112-0.198-0.229-0.3-0.349
	c-0.088-0.128-0.178-0.259-0.269-0.393c-0.17-0.272-0.343-0.56-0.477-0.867c-0.142-0.307-0.271-0.621-0.378-0.943
	c-0.215-0.645-0.367-1.305-0.457-1.929c-0.092-0.625-0.126-1.212-0.128-1.714c-0.001-0.507,0.037-0.921,0.066-1.209
	C401.043,321.337,401.07,321.171,401.07,321.171z"/>
<g>
	<linearGradient id="SVGID_16_" gradientUnits="userSpaceOnUse" x1="333.7314" y1="61.7002" x2="512.656" y2="351.3573">
		<stop  offset="0.0049" style="stop-color:#F3F4F4"/>
		<stop  offset="1" style="stop-color:#999B9E"/>
	</linearGradient>
	<path fill="url(#SVGID_16_)" d="M527.952,156.722c0-25.81-57.65-109.55-128.765-109.55c-71.113,0-128.764,84.313-128.764,109.55
		c0,25.237,57.65,170.347,128.764,170.347C470.302,327.069,527.952,182.533,527.952,156.722z"/>
	<path d="M399.188,327.413c-16.501,0-33.442-7.791-50.352-23.157c-14.101-12.812-27.893-30.551-40.994-52.721
		c-23.396-39.593-37.763-81.906-37.763-94.813c0-6.398,3.705-16.58,10.165-27.934c7-12.305,16.818-25.283,27.646-36.543
		c16.31-16.961,49.858-45.417,91.298-45.417c41.507,0,75.017,28.32,91.298,45.202c24.559,25.465,37.811,52.337,37.811,64.692
		c0,13.045-14.366,55.508-37.763,95.028c-13.091,22.113-26.884,39.806-40.994,52.587
		C432.634,319.649,415.692,327.413,399.188,327.413z M399.188,47.517c-41.184,0-74.566,28.322-90.801,45.206
		c-23.547,24.488-37.618,51.771-37.618,64c0,12.526,14.673,55.551,37.666,94.462c13.066,22.11,26.814,39.796,40.864,52.562
		c16.779,15.248,33.564,22.979,49.889,22.979c16.33,0,33.114-7.705,49.89-22.898c14.059-12.735,27.809-30.374,40.864-52.428
		c23.336-39.419,37.666-81.71,37.666-94.677c0-15.78-19.127-45.041-37.617-64.214C473.784,75.705,440.438,47.517,399.188,47.517z"/>
</g>
<g>
	<linearGradient id="SVGID_17_" gradientUnits="userSpaceOnUse" x1="322.5596" y1="116.2207" x2="403.9254" y2="213.8214">
		<stop  offset="0.0049" style="stop-color:#292929"/>
		<stop  offset="1" style="stop-color:#181818"/>
	</linearGradient>
	<path fill="url(#SVGID_17_)" d="M392.616,254.434c18.928-76.283-23.061-202.26-23.061-202.26
		c-41.534,9.975-99.105,79.519-99.105,104.755c0,12.262,23.749,33.526,43.016,57.928c20.39,25.823,36.357,54.488,36.357,54.488
		C373.688,269.346,392.616,254.434,392.616,254.434z"/>
	<path d="M349.823,269.689h-0.202l-0.099-0.176c-0.16-0.286-16.188-28.938-36.327-54.441c-6.058-7.673-12.448-14.91-18.628-21.908
		c-13.125-14.864-24.462-27.701-24.462-36.235c0-12.222,13.69-35.663,34.065-58.331c22.308-24.816,46.721-42.296,65.305-46.76
		l0.307-0.073l0.1,0.299c0.105,0.315,10.597,31.984,18.641,72.566c13.453,67.885,9.833,108.102,4.429,129.887l-0.028,0.113
		l-0.093,0.074C392.639,254.854,373.534,269.689,349.823,269.689z M369.327,52.584c-18.414,4.55-42.55,21.896-64.644,46.475
		c-20.271,22.55-33.889,45.806-33.889,57.87c0,8.273,11.255,21.02,24.288,35.779c6.188,7.005,12.584,14.25,18.652,21.937
		c19.346,24.5,34.903,51.895,36.289,54.356c22.539-0.08,40.828-13.655,42.287-14.767c5.372-21.742,8.94-61.83-4.465-129.47
		C380.231,86.338,370.418,55.918,369.327,52.584z"/>
</g>
<g>
	<linearGradient id="SVGID_18_" gradientUnits="userSpaceOnUse" x1="473.4668" y1="116.9971" x2="395.7819" y2="216.6535">
		<stop  offset="0.0049" style="stop-color:#292929"/>
		<stop  offset="1" style="stop-color:#181818"/>
	</linearGradient>
	<path fill="url(#SVGID_18_)" d="M406.505,254.227c-18.927-76.283,22.949-201.911,22.949-201.911
		c44.152,10.271,98.498,79.17,98.498,104.407c0,6.917-23.176,30.467-41.871,55.635c-20.544,27.654-36.782,56.781-36.782,56.781
		C425.434,269.139,406.505,254.227,406.505,254.227z"/>
	<path d="M449.501,269.482h-0.202c-23.711,0-42.817-14.835-43.007-14.984l-0.092-0.074l-0.029-0.113
		c-5.405-21.785-9.034-61.973,4.372-129.713c8.016-40.496,18.479-72.077,18.583-72.392l0.101-0.298l0.306,0.071
		c19.83,4.614,43.881,21.635,65.986,46.7c19.605,22.23,32.777,45.556,32.777,58.043c0,4.385-8.824,14.995-19.995,28.426
		c-6.923,8.323-14.769,17.756-21.943,27.414c-20.294,27.318-36.596,56.453-36.758,56.744L449.501,269.482z M406.81,254.027
		c1.459,1.111,19.758,14.687,42.288,14.767c1.398-2.486,17.212-30.399,36.707-56.644c7.186-9.672,15.038-19.111,21.967-27.442
		c11.082-13.325,19.836-23.85,19.836-27.986c0-12.331-13.104-35.474-32.605-57.587c-21.898-24.831-45.685-41.727-65.319-46.412
		c-1.086,3.317-10.875,33.664-18.465,72.018C397.861,192.231,401.439,232.286,406.81,254.027z"/>
</g>
<g>
	<path fill="#282829" d="M456.01,74.703l19.168-3.659c42.06-8.03,74.568,43.808,47.897,80.228"/>
	<path d="M523.353,151.477l-0.556-0.407c14.827-20.247,10.408-42.812,1.327-57.176c-11.078-17.527-29.811-26.153-48.882-22.51
		l-19.168,3.659l-0.129-0.677l19.168-3.659c19.359-3.694,38.361,5.048,49.594,22.818
		C533.908,108.082,538.385,130.95,523.353,151.477z"/>
</g>
<g opacity="0.5">
	<path d="M438.526,292.69c0,6.355-19.319,21.185-41.033,21.185c-21.713,0-37.596-14.829-37.596-21.185s17.575-9.786,39.29-9.786
		C420.901,282.904,438.526,286.335,438.526,292.69z"/>
	<path d="M397.493,314.22c-21.919,0-37.94-15.107-37.94-21.529c0-7.478,21.351-10.131,39.635-10.131
		c18.307,0,39.685,2.653,39.685,10.131C438.872,299.416,418.866,314.22,397.493,314.22z M399.188,283.248
		c-23.294,0-38.945,3.796-38.945,9.442c0,6.216,15.73,20.84,37.251,20.84c22.208,0,40.689-15.131,40.689-20.84
		C438.183,287.044,422.511,283.248,399.188,283.248z"/>
</g>
<g opacity="0.4">
	<path d="M438.526,290.97c0,6.355-19.319,21.186-41.033,21.186c-21.713,0-37.596-14.83-37.596-21.186s17.575-9.786,39.29-9.786
		C420.901,281.184,438.526,284.614,438.526,290.97z"/>
	<path d="M397.493,312.499c-21.919,0-37.94-15.107-37.94-21.529c0-7.479,21.351-10.13,39.635-10.13
		c18.307,0,39.685,2.651,39.685,10.13C438.872,297.695,418.866,312.499,397.493,312.499z M399.188,281.527
		c-23.294,0-38.945,3.796-38.945,9.442c0,6.217,15.73,20.842,37.251,20.842c22.208,0,40.689-15.133,40.689-20.842
		C438.183,285.323,422.511,281.527,399.188,281.527z"/>
</g>
<g>
	<linearGradient id="SVGID_19_" gradientUnits="userSpaceOnUse" x1="399.2114" y1="279.0327" x2="399.2114" y2="310.7197">
		<stop  offset="0.0049" style="stop-color:#292929"/>
		<stop  offset="1" style="stop-color:#181818"/>
	</linearGradient>
	<path fill="url(#SVGID_19_)" d="M438.526,290.97c0,6.355-19.319,17.744-41.033,17.744c-21.713,0-37.596-11.389-37.596-17.744
		s17.575-13.228,39.29-13.228C420.901,277.742,438.526,284.614,438.526,290.97z"/>
	<path d="M397.493,309.058c-22.294,0-37.94-11.734-37.94-18.088c0-7.103,18.891-13.571,39.635-13.571
		c20.77,0,39.685,6.469,39.685,13.571C438.872,297.774,418.83,309.058,397.493,309.058z M399.188,278.088
		c-21.934,0-38.945,6.925-38.945,12.882c0,5.956,15.73,17.398,37.251,17.398c22.268,0,40.689-11.52,40.689-17.398
		C438.183,285.013,421.149,278.088,399.188,278.088z"/>
</g>
<g>
	<path fill="#191919" d="M405.027,296.669l-0.063-0.055c-1.693-1.463-0.318-4.221,1.869-3.748l9.642,2.082"/>
	<path d="M404.802,296.93l-0.064-0.056c-0.893-0.771-1.13-1.955-0.603-3.014c0.528-1.058,1.617-1.583,2.771-1.33l9.641,2.082
		l-0.145,0.672l-9.642-2.082c-1.021-0.219-1.719,0.383-2.01,0.967c-0.29,0.582-0.351,1.504,0.438,2.185l0.064,0.056L404.802,296.93z
		"/>
</g>
<g>
	<path fill="#191919" d="M393.059,296.669l0.066-0.055c1.693-1.463,0.319-4.221-1.869-3.748l-9.642,2.082"/>
	<path d="M393.28,296.933l-0.442-0.527l0.064-0.055c0.786-0.678,0.726-1.6,0.436-2.182c-0.291-0.584-0.989-1.186-2.009-0.967
		l-9.643,2.082l-0.145-0.672l9.641-2.082c1.154-0.253,2.243,0.271,2.771,1.33c0.527,1.059,0.29,2.242-0.604,3.015L393.28,296.933z"
		/>
</g>
<ellipse opacity="0.6" cx="359.898" cy="169.044" rx="18.769" ry="38.706"/>
<g>
	
		<linearGradient id="SVGID_20_" gradientUnits="userSpaceOnUse" x1="551.0254" y1="146.8975" x2="570.9181" y2="186.8752" gradientTransform="matrix(-1 0 0 1 919.3789 0)">
		<stop  offset="0.0049" style="stop-color:#FFFFFF"/>
		<stop  offset="1" style="stop-color:#CBCCCE"/>
	</linearGradient>
	<path fill="url(#SVGID_20_)" d="M355.53,126.242c3.784,4.958,9.827,7.616,15.926,7.154c4.39,7.085,7.213,18.102,7.213,30.486
		c0,21.377-8.403,38.706-18.77,38.706s-18.77-17.329-18.77-38.706C341.13,145.609,347.273,130.304,355.53,126.242z"/>
	<path d="M359.899,202.933c-10.539,0-19.114-17.519-19.114-39.051c0-18.117,6.002-33.722,14.594-37.949l0.254-0.125l0.172,0.225
		c3.379,4.427,8.719,7.07,14.285,7.07c0.445,0,0.896-0.017,1.341-0.051l0.208-0.016l0.111,0.178
		c4.615,7.452,7.264,18.63,7.264,30.667C379.014,185.414,370.439,202.933,359.899,202.933z M355.433,126.677
		c-8.231,4.296-13.958,19.519-13.958,37.205c0,21.153,8.266,38.361,18.425,38.361s18.425-17.208,18.425-38.361
		c0-11.818-2.568-22.782-7.052-30.128C365.193,134.146,359.192,131.446,355.433,126.677z"/>
</g>
<path d="M382.029,129.394c0,0-0.477,0.291-1.31,0.801c-0.41,0.255-0.933,0.559-1.538,0.866c-0.3,0.159-0.62,0.328-0.958,0.506
	c-0.351,0.153-0.736,0.287-1.132,0.441c-0.783,0.344-1.684,0.522-2.621,0.78c-0.957,0.146-1.971,0.358-3.035,0.339
	c-0.266,0.008-0.533,0.015-0.804,0.023c-0.27,0.001-0.54-0.034-0.813-0.049c-0.542-0.057-1.102-0.043-1.647-0.169
	c-0.548-0.108-1.109-0.177-1.655-0.319c-0.544-0.156-1.09-0.313-1.635-0.47c-0.525-0.218-1.049-0.436-1.57-0.654
	c-0.516-0.23-0.998-0.527-1.492-0.785c-0.504-0.243-0.934-0.603-1.393-0.898c-0.223-0.158-0.457-0.3-0.666-0.469
	c-0.206-0.175-0.41-0.348-0.612-0.521c-0.843-0.651-1.503-1.448-2.159-2.161c-0.571-0.787-1.164-1.49-1.557-2.243
	c-0.212-0.366-0.428-0.709-0.607-1.048c-0.154-0.352-0.299-0.687-0.436-1.001c-0.284-0.624-0.496-1.176-0.66-1.636
	c-0.331-0.918-0.521-1.443-0.521-1.443s0.234,0.506,0.646,1.392c0.195,0.448,0.445,0.985,0.768,1.579
	c0.155,0.299,0.32,0.617,0.495,0.952c0.204,0.317,0.419,0.651,0.644,1c0.414,0.719,1.024,1.382,1.609,2.122
	c0.67,0.667,1.342,1.403,2.16,2.03c0.198,0.164,0.398,0.329,0.6,0.495c0.205,0.161,0.434,0.294,0.65,0.444
	c0.449,0.278,0.865,0.622,1.357,0.849c0.482,0.242,0.949,0.522,1.45,0.737c0.505,0.203,1.014,0.407,1.521,0.611
	c0.524,0.158,1.049,0.316,1.57,0.475c0.525,0.145,1.065,0.217,1.594,0.33c0.525,0.13,1.065,0.122,1.59,0.185
	c0.264,0.019,0.524,0.058,0.785,0.06c0.261-0.004,0.52-0.008,0.777-0.012c1.03,0.021,2.016-0.132,2.954-0.235
	c0.92-0.211,1.813-0.349,2.58-0.649c0.39-0.131,0.767-0.257,1.123-0.376c0.348-0.154,0.68-0.301,0.989-0.438
	c0.628-0.265,1.148-0.523,1.586-0.753C381.529,129.643,382.029,129.394,382.029,129.394z"/>
<g>
	<path d="M356.1,166.873c4.156,0,7.528-3.198,7.888-7.262c1.601,2.535,2.636,6.51,2.636,10.993c0,7.658-3.01,13.867-6.726,13.867
		c-3.714,0-6.723-6.209-6.723-13.867c0-1.466,0.112-2.878,0.317-4.204C354.312,166.686,355.18,166.873,356.1,166.873z"/>
	<path d="M359.897,184.814c-3.963,0-7.067-6.242-7.067-14.211c0-1.445,0.108-2.877,0.322-4.257l0.062-0.409l0.391,0.137
		c0.875,0.306,1.689,0.453,2.494,0.453c3.951,0,7.194-2.986,7.545-6.946l0.09-1.017l0.544,0.863
		c1.709,2.707,2.688,6.78,2.688,11.176C366.967,178.572,363.861,184.814,359.897,184.814z M353.773,166.854
		c-0.169,1.221-0.254,2.48-0.254,3.75c0,7.457,2.861,13.522,6.378,13.522c3.519,0,6.381-6.065,6.381-13.522
		c0-3.828-0.757-7.392-2.097-9.961c-0.797,3.811-4.111,6.574-8.082,6.574C355.341,167.217,354.576,167.098,353.773,166.854z"/>
</g>
<ellipse opacity="0.6" cx="437.902" cy="169.044" rx="18.77" ry="38.706"/>
<g>
	<linearGradient id="SVGID_21_" gradientUnits="userSpaceOnUse" x1="429.4482" y1="146.8984" x2="449.3407" y2="186.8756">
		<stop  offset="0.0049" style="stop-color:#FFFFFF"/>
		<stop  offset="1" style="stop-color:#CBCCCE"/>
	</linearGradient>
	<path fill="url(#SVGID_21_)" d="M442.271,126.242c-3.783,4.958-9.826,7.616-15.926,7.154c-4.389,7.085-7.212,18.102-7.212,30.486
		c0,21.377,8.403,38.706,18.77,38.706s18.77-17.329,18.77-38.706C456.672,145.609,450.528,130.304,442.271,126.242z"/>
	<path d="M437.902,202.933c-10.539,0-19.113-17.519-19.113-39.051c0-12.038,2.647-23.216,7.264-30.667l0.11-0.178l0.208,0.016
		c0.444,0.034,0.896,0.051,1.341,0.051c5.566,0,10.907-2.643,14.286-7.07l0.171-0.225l0.255,0.125
		c8.592,4.227,14.593,19.832,14.593,37.949C457.017,185.414,448.442,202.933,437.902,202.933z M426.528,133.754
		c-4.482,7.346-7.05,18.311-7.05,30.128c0,21.153,8.265,38.361,18.424,38.361c10.16,0,18.425-17.208,18.425-38.361
		c0-17.686-5.727-32.908-13.958-37.205C438.61,131.446,432.606,134.145,426.528,133.754z"/>
</g>
<g>
	<path d="M441.703,166.873c-4.157,0-7.53-3.198-7.89-7.262c-1.599,2.535-2.637,6.51-2.637,10.993c0,7.658,3.012,13.867,6.726,13.867
		c3.713,0,6.725-6.209,6.725-13.867c0-1.466-0.112-2.878-0.316-4.204C443.487,166.686,442.62,166.873,441.703,166.873z"/>
	<path d="M437.902,184.814c-3.965,0-7.069-6.242-7.069-14.211c0-4.393,0.98-8.467,2.689-11.176l0.545-0.864l0.089,1.018
		c0.351,3.96,3.594,6.946,7.547,6.946c0.801,0,1.617-0.148,2.495-0.453l0.391-0.136l0.062,0.409c0.212,1.383,0.32,2.814,0.32,4.256
		C444.972,178.572,441.866,184.814,437.902,184.814z M433.619,160.643c-1.341,2.572-2.098,6.135-2.098,9.96
		c0,7.457,2.863,13.522,6.381,13.522c3.519,0,6.38-6.065,6.38-13.522c0-1.268-0.085-2.527-0.253-3.75
		c-0.806,0.244-1.57,0.363-2.326,0.363C437.731,167.217,434.416,164.454,433.619,160.643z"/>
</g>
<g>
	<linearGradient id="SVGID_22_" gradientUnits="userSpaceOnUse" x1="504.834" y1="90.6304" x2="487.9035" y2="116.6585">
		<stop  offset="0" style="stop-color:#161616"/>
		<stop  offset="1" style="stop-color:#040404"/>
	</linearGradient>
	<path fill="url(#SVGID_22_)" d="M486.343,94.107l-7.884,0.861c-0.648,0.07-0.729,0.98-0.101,1.152
		c4.609,1.25,14.03,5.542,19.481,10.99c3.444,3.446,7.067,9.761,9.264,13.937c0.496,0.941,1.918,0.546,1.874-0.517l-0.384-8.975
		C508.594,99.223,497.705,92.868,486.343,94.107z"/>
	<path d="M507.965,121.922L507.965,121.922c-0.494,0-0.931-0.268-1.166-0.715c-2.353-4.473-5.857-10.508-9.202-13.854
		c-5.301-5.298-14.667-9.637-19.328-10.901c-0.445-0.121-0.719-0.51-0.683-0.968c0.036-0.456,0.38-0.809,0.836-0.859l7.883-0.86
		c0.941-0.103,1.894-0.154,2.828-0.154c5.321,0,10.226,1.646,13.81,4.636c3.923,3.272,5.997,7.875,5.997,13.309l0.383,8.96
		c0.015,0.376-0.114,0.727-0.364,0.987C508.702,121.769,508.34,121.922,507.965,121.922z M489.133,94.299
		c-0.911,0-1.836,0.05-2.752,0.15l-7.885,0.861c-0.192,0.021-0.219,0.18-0.224,0.229c-0.004,0.059,0.004,0.202,0.177,0.249
		c4.872,1.322,14.186,5.633,19.635,11.079c3.405,3.408,6.95,9.505,9.324,14.02c0.16,0.302,0.417,0.348,0.557,0.348
		c0.186,0,0.372-0.078,0.497-0.208c0.12-0.125,0.18-0.292,0.172-0.481l-0.384-8.974C508.25,103.244,502.268,94.299,489.133,94.299z"
		/>
</g>
<g>
	<path fill="#282829" d="M343.484,74.703l-19.166-3.659c-42.062-8.03-74.57,43.808-47.9,80.228"/>
	<path d="M276.141,151.477c-15.031-20.526-10.555-43.394-1.354-57.951c11.232-17.771,30.238-26.514,49.596-22.819l19.166,3.659
		l-0.129,0.677l-19.166-3.659c-19.075-3.643-37.807,4.984-48.885,22.51c-9.08,14.365-13.5,36.929,1.327,57.176L276.141,151.477z"/>
</g>
<g>
	<linearGradient id="SVGID_23_" gradientUnits="userSpaceOnUse" x1="289.7515" y1="92.9277" x2="312.4363" y2="114.1324">
		<stop  offset="0" style="stop-color:#161616"/>
		<stop  offset="1" style="stop-color:#040404"/>
	</linearGradient>
	<path fill="url(#SVGID_23_)" d="M313.15,94.107l7.885,0.861c0.648,0.07,0.73,0.98,0.101,1.152
		c-4.607,1.25-14.031,5.542-19.48,10.99c-3.446,3.446-7.069,9.761-9.265,13.937c-0.496,0.941-1.919,0.546-1.873-0.517l0.383-8.975
		C290.9,99.223,301.787,92.868,313.15,94.107z"/>
	<path d="M291.528,121.922c-0.375,0-0.737-0.154-0.993-0.421c-0.25-0.26-0.379-0.61-0.361-0.986l0.383-8.975
		c0-5.42,2.072-10.021,5.994-13.293c3.584-2.99,8.488-4.636,13.81-4.636c0.936,0,1.888,0.052,2.827,0.154l7.885,0.86
		c0.456,0.05,0.8,0.403,0.836,0.86c0.036,0.458-0.238,0.846-0.682,0.967c-4.663,1.265-14.03,5.604-19.328,10.901
		c-3.344,3.344-6.851,9.379-9.204,13.854C292.459,121.655,292.023,121.922,291.528,121.922z M310.36,94.299
		c-9.206,0-19.115,5.4-19.115,17.256l-0.384,8.99c-0.008,0.189,0.051,0.355,0.171,0.48c0.125,0.131,0.311,0.209,0.496,0.209
		c0.14,0,0.397-0.045,0.557-0.347c2.376-4.517,5.922-10.616,9.327-14.021c5.445-5.445,14.76-9.756,19.633-11.079
		c0.174-0.047,0.182-0.189,0.177-0.249c-0.004-0.048-0.031-0.208-0.224-0.229l-7.885-0.861
		C312.197,94.349,311.271,94.299,310.36,94.299z"/>
</g>
<g>
	<path fill="#FFFFFF" d="M440.581,181.971c0.156,0.256,0.361,0.457,0.592,0.615c0.968-1.156,1.703-2.318,2.16-3.422
		c-0.625-0.361-1.411-0.404-2.073-0.002C440.299,179.75,439.992,181.008,440.581,181.971z"/>
	<path fill="#FFFFFF" d="M441.235,183.047l-0.258-0.176c-0.286-0.197-0.519-0.438-0.691-0.719c-0.685-1.125-0.329-2.597,0.794-3.283
		c0.726-0.441,1.671-0.438,2.425-0.004l0.262,0.152l-0.115,0.278c-0.471,1.138-1.217,2.318-2.215,3.511L441.235,183.047z
		 M442.279,179.221c-0.301,0-0.584,0.08-0.841,0.236c-0.799,0.488-1.052,1.536-0.563,2.335c0.067,0.112,0.151,0.216,0.249,0.312
		c0.76-0.943,1.352-1.873,1.761-2.771C442.688,179.26,442.483,179.221,442.279,179.221z"/>
</g>
<g>
	<path fill="#FFFFFF" d="M355.15,178.341c-0.299,0-0.578,0.07-0.833,0.186c0.483,1.429,1.092,2.662,1.796,3.628
		c0.634-0.346,1.08-0.996,1.08-1.77C357.193,179.256,356.279,178.341,355.15,178.341z"/>
	<path fill="#FFFFFF" d="M356.014,182.602l-0.178-0.244c-0.725-0.992-1.345-2.244-1.846-3.721l-0.1-0.296l0.285-0.128
		c0.318-0.145,0.646-0.217,0.975-0.217c1.316,0,2.388,1.072,2.388,2.389c0,0.853-0.482,1.646-1.259,2.071L356.014,182.602z
		 M354.756,178.736c0.41,1.143,0.896,2.131,1.448,2.947c0.409-0.32,0.646-0.787,0.646-1.299
		C356.85,179.316,355.826,178.463,354.756,178.736z"/>
</g>
<path fill="#191919" d="M386.622,62.085c-1.196,0.633-2.239,1.531-3.037,2.604c-0.397,0.538-0.73,1.123-0.961,1.743
	c-0.223,0.612-0.358,1.293-0.195,1.892c0.078,0.296,0.242,0.555,0.484,0.721c0.24,0.172,0.553,0.229,0.861,0.25
	c0.631,0.017,1.276-0.162,1.892-0.392c0.621-0.227,1.21-0.545,1.795-0.862c0.281-0.173,0.586-0.338,0.848-0.517
	c0.292-0.194,0.519-0.382,0.777-0.605c1.005-0.875,1.949-1.855,3.037-2.706c0.545-0.421,1.116-0.836,1.814-1.089
	c0.18-0.057,0.354-0.122,0.553-0.135c0.191-0.04,0.395-0.025,0.599,0.005l0.076,0.01l0.019,0.002l0.01,0.001
	c0.021,0.006-0.035-0.013,0.05,0.014l0.029,0.013l0.117,0.047c0.082,0.041,0.149,0.046,0.242,0.114
	c0.17,0.113,0.365,0.236,0.48,0.361c0.536,0.495,0.942,1.053,1.343,1.608l1.147,1.68c0.38,0.554,0.767,1.1,1.182,1.609
	c0.413,0.502,0.881,0.981,1.39,1.233l-0.46,0.188l0.26-0.79l0.173-0.816l0.091-0.833l0.015-0.842l-0.055-0.843l-0.114-0.84
	l-0.168-0.834l-0.214-0.827l-0.066-0.255l0.216-0.109c0.261-0.132,0.535-0.249,0.827-0.298c0.289-0.066,0.585-0.059,0.872-0.039
	c0.576,0.061,1.104,0.263,1.594,0.502c0.976,0.491,1.821,1.141,2.652,1.785c0.823,0.653,1.623,1.322,2.465,1.923
	c0.838,0.594,1.729,1.141,2.7,1.377l-0.24,0.112c0.214-0.431,0.397-0.88,0.525-1.35c0.056-0.237,0.133-0.47,0.168-0.712
	c0.039-0.242,0.096-0.48,0.115-0.726c0.023-0.244,0.064-0.487,0.069-0.733c0.008-0.246,0.037-0.492,0.031-0.738
	c0.007-0.493-0.016-0.986-0.056-1.479c-0.046-0.493-0.118-0.981-0.209-1.469c-0.102-0.485-0.219-0.966-0.367-1.439
	c-0.153-0.472-0.332-0.935-0.54-1.387c-0.104-0.226-0.229-0.44-0.343-0.661c-0.128-0.214-0.271-0.418-0.404-0.629
	c0.145,0.203,0.298,0.4,0.437,0.609c0.126,0.215,0.265,0.425,0.381,0.646c0.234,0.443,0.433,0.905,0.605,1.375
	c0.169,0.473,0.308,0.956,0.43,1.443c0.11,0.49,0.203,0.984,0.27,1.484c0.125,0.998,0.162,2.012,0.059,3.021
	c-0.016,0.253-0.067,0.502-0.103,0.753c-0.031,0.252-0.104,0.498-0.158,0.747c-0.122,0.496-0.305,0.978-0.523,1.447l-0.07,0.149
	l-0.169-0.037c-1.08-0.238-2.021-0.795-2.898-1.384c-0.877-0.597-1.702-1.251-2.531-1.881c-0.825-0.631-1.66-1.256-2.562-1.699
	c-0.45-0.217-0.919-0.387-1.388-0.431c-0.233-0.013-0.467-0.02-0.689,0.036c-0.227,0.039-0.437,0.133-0.643,0.236l0.15-0.364
	l0.228,0.856l0.183,0.87l0.128,0.882l0.064,0.893l-0.009,0.898l-0.09,0.897l-0.182,0.888l-0.278,0.864l-0.114,0.358l-0.346-0.169
	c-0.713-0.351-1.187-0.898-1.631-1.43c-0.434-0.542-0.824-1.104-1.206-1.667l-1.127-1.679c-0.383-0.543-0.78-1.086-1.236-1.512
	c-0.117-0.125-0.218-0.172-0.318-0.26c-0.037-0.045-0.145-0.068-0.214-0.104l-0.117-0.049l-0.029-0.012
	c0.08,0.025,0.019,0.007,0.035,0.013l-0.006-0.001l-0.013-0.001l-0.05-0.004c-0.133-0.018-0.266-0.036-0.41-0.004
	c-0.142,0.004-0.285,0.059-0.43,0.103c-0.579,0.202-1.129,0.582-1.65,0.981c-1.048,0.814-2.001,1.772-3.061,2.644
	c-0.257,0.213-0.561,0.447-0.838,0.62c-0.302,0.194-0.596,0.343-0.896,0.518c-0.609,0.312-1.222,0.625-1.879,0.849
	c-0.653,0.225-1.34,0.405-2.064,0.37c-0.357-0.033-0.735-0.108-1.051-0.34c-0.313-0.226-0.521-0.578-0.603-0.935
	c-0.161-0.727,0.026-1.438,0.28-2.072c0.267-0.639,0.634-1.225,1.06-1.759C384.291,63.509,385.393,62.651,386.622,62.085z"/>
<g>
	<linearGradient id="SVGID_24_" gradientUnits="userSpaceOnUse" x1="484.1963" y1="93.4287" x2="531.75" y2="93.4287">
		<stop  offset="0.0049" style="stop-color:#F3F4F4"/>
		<stop  offset="1" style="stop-color:#999B9E"/>
	</linearGradient>
	<path fill="url(#SVGID_24_)" d="M484.196,71c3.163,8.605,16.655,11.493,24.781,19.619c9.745,9.747,12.758,22.742,22.772,25.237
		C528.328,92.135,508.971,71.192,484.196,71z"/>
	<path d="M532.164,116.314l-0.497-0.124c-6.237-1.553-9.754-6.997-13.824-13.299c-2.62-4.055-5.329-8.249-9.108-12.029
		c-3.354-3.353-7.62-5.8-11.747-8.167c-5.773-3.312-11.227-6.439-13.115-11.577l-0.171-0.467l0.497,0.004
		c11.757,0.09,23.129,4.957,32.022,13.703c8.518,8.374,14.152,19.542,15.87,31.448L532.164,116.314z M484.705,71.353
		c1.962,4.63,7.146,7.604,12.626,10.746c4.165,2.389,8.472,4.859,11.891,8.277c3.831,3.832,6.683,8.247,9.199,12.142
		c3.879,6.005,7.244,11.214,12.911,12.869c-1.783-11.562-7.309-22.389-15.593-30.536C507.103,76.358,496.1,71.578,484.705,71.353z"
		/>
</g>
<g>
	<linearGradient id="SVGID_25_" gradientUnits="userSpaceOnUse" x1="267.9561" y1="93.4033" x2="315.5098" y2="93.4033">
		<stop  offset="0.0049" style="stop-color:#F3F4F4"/>
		<stop  offset="1" style="stop-color:#999B9E"/>
	</linearGradient>
	<path fill="url(#SVGID_25_)" d="M315.51,70.976c-3.162,8.604-16.654,11.492-24.781,19.619
		c-9.746,9.747-12.756,22.742-22.772,25.236C271.068,91.839,290.736,71.167,315.51,70.976z"/>
	<path d="M267.549,116.287l0.066-0.5c1.551-11.957,7.146-23.164,15.754-31.555c8.904-8.679,20.317-13.508,32.139-13.6l0.497-0.004
		l-0.172,0.467c-1.888,5.137-7.341,8.265-13.114,11.576c-4.125,2.367-8.393,4.814-11.746,8.168
		c-3.779,3.78-6.488,7.973-9.107,12.029c-4.072,6.302-7.588,11.745-13.826,13.298L267.549,116.287z M315,71.327
		c-11.459,0.223-22.502,4.968-31.149,13.397c-8.376,8.164-13.86,19.027-15.483,30.638c5.672-1.652,9.037-6.863,12.918-12.87
		c2.517-3.895,5.369-8.31,9.201-12.142c3.418-3.419,7.725-5.889,11.891-8.278C307.854,78.93,313.039,75.957,315,71.327z"/>
</g>
<circle cx="405.873" cy="295.421" r="2.367"/>
<circle cx="392.215" cy="295.421" r="2.366"/>
<path d="M415.772,129.394c0,0,0.5,0.249,1.373,0.684c0.436,0.23,0.957,0.488,1.585,0.753c0.311,0.138,0.642,0.284,0.99,0.438
	c0.356,0.12,0.731,0.245,1.123,0.377c0.767,0.3,1.66,0.438,2.579,0.649c0.939,0.104,1.925,0.257,2.956,0.235
	c0.256,0.004,0.515,0.008,0.775,0.012c0.261-0.001,0.522-0.041,0.786-0.06c0.524-0.063,1.064-0.055,1.591-0.185
	c0.526-0.112,1.067-0.185,1.593-0.33c0.521-0.158,1.046-0.316,1.57-0.475c0.507-0.204,1.015-0.408,1.521-0.611
	c0.501-0.215,0.969-0.496,1.45-0.737c0.492-0.227,0.909-0.571,1.357-0.849c0.217-0.15,0.446-0.283,0.65-0.444
	c0.201-0.166,0.4-0.331,0.599-0.495c0.818-0.626,1.491-1.363,2.161-2.03c0.585-0.74,1.195-1.403,1.61-2.122
	c0.224-0.348,0.438-0.682,0.644-1c0.173-0.335,0.339-0.653,0.494-0.952c0.322-0.594,0.573-1.131,0.769-1.579
	c0.409-0.886,0.645-1.392,0.645-1.392s-0.19,0.524-0.521,1.443c-0.163,0.46-0.375,1.013-0.659,1.636
	c-0.137,0.315-0.282,0.649-0.436,1.002c-0.181,0.339-0.396,0.682-0.606,1.048c-0.395,0.753-0.986,1.457-1.559,2.243
	c-0.654,0.713-1.314,1.51-2.157,2.162c-0.203,0.172-0.408,0.346-0.613,0.521c-0.21,0.169-0.442,0.311-0.666,0.469
	c-0.46,0.295-0.889,0.655-1.393,0.898c-0.495,0.258-0.977,0.555-1.492,0.785c-0.522,0.218-1.047,0.436-1.57,0.654
	c-0.546,0.157-1.092,0.314-1.635,0.47c-0.546,0.142-1.107,0.211-1.655,0.319c-0.546,0.125-1.105,0.112-1.648,0.169
	c-0.272,0.015-0.543,0.051-0.813,0.049c-0.27-0.008-0.537-0.016-0.803-0.023c-1.065,0.019-2.079-0.193-3.036-0.339
	c-0.938-0.257-1.837-0.436-2.621-0.78c-0.395-0.155-0.78-0.289-1.133-0.442c-0.337-0.178-0.656-0.347-0.957-0.506
	c-0.605-0.307-1.127-0.611-1.538-0.866C416.248,129.685,415.772,129.394,415.772,129.394z"/>
<path fill="none" d="M332.941,202.588"/>
<path d="M517.796,375.761c-0.788-0.396-1.528-0.89-2.227-1.432c-0.699-0.544-1.355-1.144-1.969-1.786
	c-0.611-0.643-1.18-1.33-1.687-2.062c-0.512-0.729-0.961-1.501-1.354-2.302c-0.79-1.6-1.347-3.32-1.645-5.084
	c-0.148-0.881-0.233-1.773-0.269-2.665c-0.039-0.893-0.009-1.785,0.045-2.677l0.048-0.813l0.517,0.641l3.233,4.012l3.202,4.038
	l-0.512,0.396c-0.555-0.765-1.05-1.542-1.529-2.341c-0.479-0.796-0.927-1.609-1.348-2.437c-0.845-1.655-1.538-3.387-2.081-5.163
	c-0.266-0.891-0.496-1.792-0.666-2.706c-0.075-0.458-0.162-0.915-0.208-1.378c-0.061-0.461-0.081-0.927-0.11-1.39
	c-0.004-0.464-0.022-0.929,0.009-1.393c0.009-0.463,0.068-0.924,0.114-1.385c0.08-0.457,0.135-0.917,0.259-1.364
	c0.096-0.452,0.254-0.888,0.39-1.327c-0.107,0.448-0.238,0.89-0.305,1.346c-0.091,0.45-0.134,0.908-0.189,1.363
	c-0.022,0.457-0.061,0.914-0.049,1.373c-0.009,0.457,0.031,0.914,0.058,1.37c0.168,1.821,0.558,3.617,1.143,5.35
	c0.575,1.735,1.335,3.403,2.167,5.031c0.422,0.812,0.869,1.609,1.349,2.388c0.477,0.777,0.98,1.551,1.516,2.271l-0.512,0.397
	l-3.229-4.016l-3.197-4.042l0.563-0.173c-0.06,0.867-0.097,1.737-0.066,2.606c0.025,0.868,0.1,1.735,0.236,2.593
	c0.258,1.716,0.738,3.404,1.47,4.984c0.717,1.587,1.698,3.05,2.838,4.375c0.575,0.66,1.195,1.282,1.863,1.853
	C516.334,374.778,517.032,375.318,517.796,375.761z"/>
<path d="M504.406,280.748c0.822,0.323,1.603,0.748,2.346,1.227c0.745,0.479,1.452,1.017,2.121,1.601
	c0.669,0.585,1.296,1.219,1.867,1.904c0.574,0.68,1.092,1.408,1.556,2.17c0.932,1.521,1.641,3.185,2.095,4.914
	c0.229,0.865,0.393,1.746,0.508,2.631c0.119,0.886,0.17,1.777,0.196,2.67l0.024,0.813l-0.57-0.59l-3.581-3.704l-3.552-3.733
	l0.474-0.44c0.621,0.71,1.185,1.441,1.735,2.191c0.547,0.75,1.066,1.521,1.559,2.308c0.991,1.571,1.837,3.234,2.538,4.954
	c0.344,0.863,0.654,1.74,0.905,2.635c0.117,0.449,0.243,0.896,0.331,1.354c0.103,0.454,0.164,0.915,0.234,1.373
	c0.046,0.464,0.107,0.924,0.117,1.389c0.033,0.463,0.015,0.927,0.01,1.39c-0.037,0.462-0.052,0.925-0.135,1.382
	c-0.055,0.459-0.173,0.907-0.269,1.357c0.067-0.457,0.157-0.908,0.182-1.368c0.052-0.456,0.052-0.917,0.066-1.374
	c-0.018-0.459-0.02-0.916-0.074-1.372c-0.032-0.456-0.113-0.907-0.18-1.359c-0.331-1.8-0.88-3.552-1.618-5.226
	c-0.729-1.677-1.637-3.27-2.61-4.816c-0.493-0.77-1.012-1.523-1.558-2.257c-0.545-0.729-1.116-1.456-1.714-2.126l0.474-0.441
	l3.576,3.709l3.547,3.738l-0.547,0.223c-0.018-0.869-0.059-1.739-0.166-2.602c-0.104-0.863-0.256-1.721-0.47-2.562
	c-0.411-1.685-1.043-3.323-1.913-4.831c-0.856-1.517-1.966-2.885-3.22-4.103c-0.632-0.605-1.306-1.169-2.022-1.677
	C505.951,281.596,505.206,281.119,504.406,280.748z"/>
<path d="M275.162,359.239c-0.779,0.413-1.497,0.927-2.189,1.467c-0.688,0.544-1.332,1.143-1.932,1.779
	c-1.188,1.282-2.225,2.706-3,4.266c-0.79,1.552-1.334,3.221-1.655,4.926c-0.169,0.852-0.275,1.716-0.334,2.583
	c-0.063,0.866-0.058,1.737-0.03,2.606l-0.557-0.194l3.344-3.917l3.377-3.891l0.496,0.415c-0.562,0.701-1.094,1.455-1.6,2.213
	c-0.508,0.761-0.984,1.541-1.438,2.335c-0.893,1.595-1.715,3.234-2.354,4.947c-0.65,1.709-1.106,3.488-1.344,5.303
	c-0.042,0.454-0.1,0.909-0.107,1.366c-0.029,0.458-0.008,0.915-0.002,1.374c0.038,0.456,0.062,0.916,0.138,1.368
	c0.05,0.458,0.163,0.904,0.254,1.356c-0.119-0.444-0.261-0.885-0.339-1.342c-0.107-0.45-0.146-0.913-0.209-1.371
	c-0.027-0.463-0.07-0.926-0.062-1.39c-0.014-0.464,0.023-0.927,0.045-1.391c0.046-0.462,0.084-0.926,0.162-1.384
	c0.062-0.461,0.166-0.915,0.26-1.369c0.204-0.908,0.468-1.8,0.766-2.68c0.61-1.754,1.368-3.459,2.274-5.08
	c0.451-0.811,0.929-1.608,1.437-2.386c0.51-0.779,1.034-1.537,1.617-2.28l0.496,0.417l-3.35,3.912l-3.381,3.888l-0.539,0.619
	l-0.02-0.813c-0.02-0.892-0.016-1.786,0.057-2.677c0.068-0.891,0.186-1.778,0.368-2.654c0.362-1.75,0.983-3.449,1.834-5.018
	c0.423-0.785,0.901-1.54,1.44-2.25c0.533-0.713,1.127-1.379,1.764-1.998c0.637-0.617,1.315-1.192,2.033-1.709
	C273.602,360.071,274.359,359.604,275.162,359.239z"/>
<g>
	
		<linearGradient id="SVGID_26_" gradientUnits="userSpaceOnUse" x1="579.0498" y1="287.0449" x2="589.8344" y2="279.4362" gradientTransform="matrix(-0.1816 0.9834 -0.9834 -0.1816 734.6172 7.8594)">
		<stop  offset="0.0049" style="stop-color:#595757"/>
		<stop  offset="1" style="stop-color:#000000"/>
	</linearGradient>
	<path fill="url(#SVGID_26_)" d="M350.251,544.737c-3.569-0.658-5.698-5.316-4.757-10.408c0.94-5.091,4.594-8.684,8.161-8.025
		c3.567,0.659,5.698,5.32,4.757,10.411C357.471,541.808,353.818,545.396,350.251,544.737z"/>
	
		<linearGradient id="SVGID_27_" gradientUnits="userSpaceOnUse" x1="579.0498" y1="263.6558" x2="589.8351" y2="256.0465" gradientTransform="matrix(-0.1816 0.9834 -0.9834 -0.1816 734.6172 7.8594)">
		<stop  offset="0.0049" style="stop-color:#595757"/>
		<stop  offset="1" style="stop-color:#000000"/>
	</linearGradient>
	<path fill="url(#SVGID_27_)" d="M373.251,548.987c-3.567-0.659-5.698-5.318-4.757-10.41c0.941-5.091,4.595-8.685,8.163-8.025
		c3.565,0.66,5.696,5.319,4.756,10.411S376.818,549.646,373.251,548.987z"/>
	
		<linearGradient id="SVGID_28_" gradientUnits="userSpaceOnUse" x1="581.791" y1="275.0562" x2="592.5766" y2="267.4467" gradientTransform="matrix(-0.1816 0.9834 -0.9834 -0.1816 734.6172 7.8594)">
		<stop  offset="0.0049" style="stop-color:#595757"/>
		<stop  offset="1" style="stop-color:#000000"/>
	</linearGradient>
	<path fill="url(#SVGID_28_)" d="M361.545,549.613c-3.569-0.658-5.699-5.317-4.758-10.411c0.939-5.09,4.593-8.683,8.162-8.023
		c3.564,0.659,5.695,5.319,4.757,10.409C368.765,546.682,365.109,550.272,361.545,549.613z"/>
	<g>
		<linearGradient id="SVGID_29_" gradientUnits="userSpaceOnUse" x1="348.1572" y1="543.0234" x2="351.4034" y2="534.3553">
			<stop  offset="0" style="stop-color:#C82127"/>
			<stop  offset="1" style="stop-color:#E13926"/>
		</linearGradient>
		<path fill="url(#SVGID_29_)" d="M353.123,538.441c-0.791,2.513-6.898,17.408-8.507,16.905c-1.609-0.507,1.89-16.222,2.679-18.733
			c0.79-2.516,2.734-4.141,4.342-3.637C353.246,533.483,353.91,535.93,353.123,538.441z"/>
		<path d="M344.7,555.438c-0.037,0-0.073-0.005-0.106-0.016c-1.743-0.549,1.951-16.684,2.627-18.833
			c0.688-2.191,2.291-3.782,3.812-3.782c0.215,0,0.427,0.032,0.628,0.096c1.648,0.518,2.338,3.013,1.537,5.562
			C352.557,540.504,346.541,555.438,344.7,555.438z M351.032,532.964c-1.454,0-2.994,1.545-3.662,3.673
			c-0.997,3.17-4.191,18.175-2.729,18.635c0.019,0.006,0.038,0.01,0.06,0.01c1.629,0,7.575-14.406,8.348-16.863
			c0.773-2.467,0.13-4.874-1.435-5.365C351.427,532.994,351.23,532.964,351.032,532.964z"/>
	</g>
	<g>
		
			<linearGradient id="SVGID_30_" gradientUnits="userSpaceOnUse" x1="410.5181" y1="531.2012" x2="410.7267" y2="519.713" gradientTransform="matrix(0.8248 0.1525 -0.1819 0.9833 118.7656 -31.1934)">
			<stop  offset="0" style="stop-color:#C82127"/>
			<stop  offset="1" style="stop-color:#E13926"/>
		</linearGradient>
		<path fill="url(#SVGID_30_)" d="M365.794,544.124c-0.479,2.591-4.745,18.116-6.41,17.807c-1.667-0.306-0.1-16.333,0.378-18.921
			c0.48-2.591,2.218-4.439,3.883-4.132S366.274,541.535,365.794,544.124z"/>
		<path d="M359.434,562.015c-0.021,0-0.043-0.002-0.064-0.006c-0.764-0.141-0.992-3.062-0.68-8.688
			c0.24-4.314,0.75-8.998,0.994-10.325c0.448-2.412,1.993-4.23,3.596-4.23c0.127,0,0.255,0.012,0.38,0.034
			c0.833,0.153,1.521,0.799,1.938,1.815c0.411,1.005,0.509,2.257,0.273,3.523C365.475,546.285,361.255,562.015,359.434,562.015z
			 M363.279,538.924c-1.527,0-3.006,1.762-3.439,4.1c-0.245,1.324-0.753,5.998-0.992,10.308c-0.42,7.523,0.245,8.466,0.551,8.523
			c0.012,0.001,0.022,0.002,0.035,0.002c1.604,0,5.805-15.161,6.283-17.746c0.229-1.237,0.135-2.457-0.266-3.436
			c-0.396-0.964-1.043-1.576-1.821-1.72C363.515,538.935,363.396,538.924,363.279,538.924z"/>
	</g>
	<g>
		
			<linearGradient id="SVGID_31_" gradientUnits="userSpaceOnUse" x1="363.4932" y1="537.7842" x2="364.4233" y2="526.3313" gradientTransform="matrix(0.8428 -0.0256 0.0303 0.9995 52.103 24.0596)">
			<stop  offset="0" style="stop-color:#C82127"/>
			<stop  offset="1" style="stop-color:#E13926"/>
		</linearGradient>
		<path fill="url(#SVGID_31_)" d="M378.18,542.647c0.08,2.634-0.813,18.708-2.516,18.759c-1.703,0.054-3.568-15.94-3.648-18.571
			c-0.08-2.634,1.235-4.809,2.937-4.859C376.654,537.922,378.1,540.017,378.18,542.647z"/>
		<path d="M375.655,561.486c-1.837,0-3.651-16.409-3.719-18.648c-0.039-1.289,0.249-2.512,0.812-3.443
			c0.568-0.94,1.351-1.473,2.201-1.497c0.022-0.001,0.045-0.001,0.066-0.001c1.709,0,3.162,2.13,3.243,4.748
			c0.042,1.347-0.168,6.052-0.589,10.359c-0.55,5.605-1.223,8.458-2.003,8.481L375.655,561.486z M375.016,538.054l-0.062,0.001
			c-0.795,0.024-1.529,0.529-2.069,1.422c-0.548,0.905-0.827,2.098-0.788,3.356c0.099,3.306,2.017,18.495,3.56,18.495v0.078
			l0.007-0.078c0.312-0.01,1.115-0.842,1.85-8.339c0.422-4.302,0.63-8.998,0.589-10.34
			C378.022,540.116,376.639,538.054,375.016,538.054z"/>
	</g>
</g>
<g>
	
		<linearGradient id="SVGID_32_" gradientUnits="userSpaceOnUse" x1="604.873" y1="314.1553" x2="615.6588" y2="306.5457" gradientTransform="matrix(0.1405 0.9901 -0.9901 0.1405 641.5361 -112.8447)">
		<stop  offset="0.0049" style="stop-color:#595757"/>
		<stop  offset="1" style="stop-color:#000000"/>
	</linearGradient>
	<path fill="url(#SVGID_32_)" d="M424.609,547.759c-3.594,0.511-7.095-3.23-7.82-8.356c-0.729-5.127,1.593-9.694,5.186-10.203
		s7.094,3.232,7.82,8.358C430.521,542.684,428.199,547.249,424.609,547.759z"/>
	
		<linearGradient id="SVGID_33_" gradientUnits="userSpaceOnUse" x1="604.875" y1="290.7656" x2="615.6603" y2="283.1564" gradientTransform="matrix(0.1405 0.9901 -0.9901 0.1405 641.5361 -112.8447)">
		<stop  offset="0.0049" style="stop-color:#595757"/>
		<stop  offset="1" style="stop-color:#000000"/>
	</linearGradient>
	<path fill="url(#SVGID_33_)" d="M447.767,544.476c-3.593,0.509-7.094-3.229-7.819-8.358c-0.728-5.125,1.593-9.692,5.186-10.203
		c3.591-0.509,7.095,3.232,7.82,8.359C453.68,539.399,451.357,543.964,447.767,544.476z"/>
	
		<linearGradient id="SVGID_34_" gradientUnits="userSpaceOnUse" x1="607.6172" y1="302.165" x2="618.402" y2="294.5561" gradientTransform="matrix(0.1405 0.9901 -0.9901 0.1405 641.5361 -112.8447)">
		<stop  offset="0.0049" style="stop-color:#595757"/>
		<stop  offset="1" style="stop-color:#000000"/>
	</linearGradient>
	<path fill="url(#SVGID_34_)" d="M436.865,548.79c-3.592,0.512-7.095-3.229-7.819-8.357c-0.727-5.125,1.594-9.692,5.186-10.202
		c3.593-0.509,7.095,3.231,7.82,8.356C442.779,543.716,440.455,548.281,436.865,548.79z"/>
	<g>
		
			<linearGradient id="SVGID_35_" gradientUnits="userSpaceOnUse" x1="392.2461" y1="547.7617" x2="390.6725" y2="536.3787" gradientTransform="matrix(0.8331 -0.0162 0.0194 0.9998 86.4243 9.4351)">
			<stop  offset="0" style="stop-color:#C82127"/>
			<stop  offset="1" style="stop-color:#E13926"/>
		</linearGradient>
		<path fill="url(#SVGID_35_)" d="M425.714,541.081c0.05,2.635-1.004,18.698-2.686,18.732c-1.682,0.032-3.359-15.979-3.409-18.613
			c-0.05-2.635,1.271-4.794,2.952-4.827C424.255,536.339,425.662,538.447,425.714,541.081z"/>
		<path d="M423.022,559.892c-1.82,0-3.439-16.445-3.481-18.69c-0.052-2.671,1.307-4.873,3.029-4.907h0.041
			c1.702,0,3.129,2.147,3.181,4.786c0.043,2.252-0.947,18.776-2.762,18.812H423.022z M422.611,536.451l-0.039,0.001
			c-1.635,0.032-2.925,2.162-2.875,4.746c0.062,3.313,1.798,18.537,3.325,18.537v0.078l0.004-0.078
			c1.522-0.03,2.672-15.33,2.607-18.653C425.585,538.529,424.229,536.451,422.611,536.451z"/>
	</g>
	<g>
		
			<linearGradient id="SVGID_36_" gradientUnits="userSpaceOnUse" x1="367.7915" y1="551.7324" x2="365.7087" y2="540.4316" gradientTransform="matrix(0.8134 -0.1152 0.1402 0.9901 60.563 43.9854)">
			<stop  offset="0" style="stop-color:#C82127"/>
			<stop  offset="1" style="stop-color:#E13926"/>
		</linearGradient>
		<path fill="url(#SVGID_36_)" d="M438.846,542.352c0.369,2.607,1.287,18.678-0.355,18.913c-1.642,0.233-5.224-15.463-5.594-18.07
			c-0.369-2.609,0.664-4.909,2.307-5.142C436.845,537.817,438.478,539.745,438.846,542.352z"/>
		<path d="M438.453,561.346c-1.779,0-5.324-15.962-5.634-18.141c-0.181-1.275-0.037-2.521,0.404-3.505
			c0.447-0.995,1.146-1.608,1.969-1.725c0.095-0.014,0.188-0.02,0.284-0.02c1.612,0,3.093,1.885,3.446,4.385
			c0.315,2.229,1.353,18.747-0.421,19.002C438.485,561.344,438.47,561.346,438.453,561.346z M435.477,538.112
			c-0.087,0-0.176,0.006-0.263,0.019c-0.767,0.107-1.423,0.688-1.848,1.633c-0.43,0.958-0.568,2.172-0.393,3.42
			c0.457,3.218,3.979,18.006,5.479,18.006c0.009,0,0.019,0,0.026-0.001c1.487-0.214,0.755-15.537,0.289-18.826
			C438.432,539.979,436.986,538.112,435.477,538.112z"/>
	</g>
	<g>
		
			<linearGradient id="SVGID_37_" gradientUnits="userSpaceOnUse" x1="302.2944" y1="555.5439" x2="300.9967" y2="544.1257" gradientTransform="matrix(0.7206 -0.2662 0.3466 0.938 41.2568 104.7505)">
			<stop  offset="0" style="stop-color:#C82127"/>
			<stop  offset="1" style="stop-color:#E13926"/>
		</linearGradient>
		<path fill="url(#SVGID_37_)" d="M450.735,536.771c0.914,2.475,5.293,17.956,3.839,18.493c-1.459,0.54-8.197-14.072-9.109-16.543
			c-0.913-2.473-0.472-4.909,0.982-5.447C447.902,532.737,449.822,534.303,450.735,536.771z"/>
		<path d="M454.49,555.355c-1.725,0-8.359-14.612-9.096-16.607c-0.925-2.506-0.465-4.993,1.025-5.544
			c0.199-0.074,0.41-0.11,0.628-0.11c1.417,0,2.963,1.502,3.759,3.652c0.467,1.265,1.794,5.781,2.809,9.98
			c1.322,5.465,1.653,8.361,0.984,8.608C454.565,555.348,454.527,555.355,454.49,555.355z M447.048,533.244
			c-0.2,0-0.394,0.034-0.574,0.101c-1.414,0.522-1.835,2.924-0.938,5.352c0.888,2.404,7.426,16.507,8.954,16.507
			c0.02,0,0.039-0.002,0.057-0.009c0.266-0.098,0.692-1.116-1.078-8.432c-1.014-4.195-2.339-8.703-2.804-9.964
			C449.903,534.739,448.382,533.244,447.048,533.244z"/>
	</g>
</g>
<ellipse fill="#1B1B1C" cx="399.475" cy="282.904" rx="16.802" ry="3.269"/>
<ellipse opacity="0.3" fill="#FFFFFF" cx="399.187" cy="281.184" rx="4.355" ry="0.9"/>
<g>
	<path d="M398.756,462.802c-56.942,0-106.024-13.303-114.922-29.929c0,0,0-0.909,0,0c0,19.331,51.637,35.099,114.922,35.099
		s119.947-15.603,119.947-34.933l0,0C508.87,449.317,454.896,462.802,398.756,462.802z"/>
</g>
<g>
	<path fill="#3B1E10" d="M398.756,461.802c-56.942,0-106.024-13.303-114.922-29.929c0,0,0-0.909,0,0
		c0,19.331,51.637,35.099,114.922,35.099s119.947-15.603,119.947-34.933l0,0C508.87,448.317,454.896,461.802,398.756,461.802z"/>
</g>
<g>
	<path fill-rule="evenodd" clip-rule="evenodd" fill="#C82027" d="M394.667,45.073c4.415-2.763,18.234-0.511,18.43,6.295
		c3.61-0.978,6.601-3.873,10.522-5.617c7.076-3.148,15.588-4.749,24.743-4.516c7.165,0.185,21.867,0.986,17.236,11.187
		c-2.352,5.179-6.501,6.708-8.086,13.608c-0.917,3.983,0.969,7.323,0.793,11.043c-0.218,4.601-3.386,8.965-6.574,9.667
		c-5.603,1.232-16.64-4.033-23.252-6.408c-8.647-3.106-15.602-5.971-22.563-9.14c11.91,15.933,32.206,29.104,47.739,43.664
		c-4.953,0.054-10.174-0.424-15.238-0.59c-1.429,4.905-2.707,9.733-3.957,14.548c-15.872-16.11-26.78-35.146-34.379-55.954
		c-0.772-2.117-0.556-4.129-3.377-4.498c-1.549-0.201-6.242,3.606-7.605,4.466c-16.845,10.636-36.809,19.19-57.132,21.94
		c1.77-4.587,3.576-9.099,5.356-13.664c-3.841-3.046-8.369-5.746-12.593-8.598c21.217-2.892,44.809-1.071,64.603-6.79
		c-13.368-3.56-27.882-6.219-41.17-11.688c-5.935-2.443-9.143-7.459-4.993-14.333c2.428-4.021,6.935-5.368,8.6-11.958
		c1.089-4.316-0.146-6.936,0.349-11.301c0.794-7.043,4.612-8.166,10.774-5.745C379.912,17.378,389.737,32.116,394.667,45.073z"/>
	<g>
		<path fill="#EF4343" d="M450.689,82.638c0,0,2.419-0.552,4.271-3.562c-0.767-5.251-18.346-18.55-32.359-15.767
			c-14.015,2.782-19.403,0.057-19.403,0.057l-0.276,2.665l7.172,2.024L450.689,82.638z"/>
		<g>
			<defs>
				<path id="SVGID_38_" d="M437.023,110.271l-3.915,14.485c-20.282-20.073-31.46-46.697-35.564-59.423c0,0-2.212-3.086,5.158-0.365
					c8.345,13.995,46.288,41.443,49.534,46.025L437.023,110.271L437.023,110.271z"/>
			</defs>
			<clipPath id="SVGID_39_">
				<use xlink:href="#SVGID_38_"  overflow="visible"/>
			</clipPath>
			
				<ellipse transform="matrix(0.9496 0.3135 -0.3135 0.9496 50.5298 -128.4926)" clip-path="url(#SVGID_39_)" fill="#E32A26" cx="424.833" cy="92.885" rx="51.968" ry="39.328"/>
			<path clip-path="url(#SVGID_39_)" fill="#C82027" d="M399.917,64.824c0,0,14.15,22.504,26.91,33.176
				c-3.782-6.158-5.065-7.358-6.16-10.303c5.755,4.873,6.847,5.878,6.847,5.878s-6.106-4.989-6.518-12.36
				C420.587,73.845,410.391,63.24,399.917,64.824z"/>
			<path clip-path="url(#SVGID_39_)" fill="#EF4343" d="M455.462,110.684c0,0-19.528-3.474-25.022-11.879
				c4.211,6.818,10.861,12.113,21.2,17.983C461.979,122.656,455.462,110.684,455.462,110.684z"/>
			<path clip-path="url(#SVGID_39_)" fill="#EF4343" d="M412.134,89.273c0,0,17.351,28.471,28.823,37.168
				c5.582-2.034-3.516-8.139-3.516-8.139L412.134,89.273z"/>
		</g>
		<path fill="#C82027" d="M452.303,80.338c0.299,1.342-1.03,2.191-1.613,2.3c-2.89,0.58-6.398-0.269-11.536-1.975
			c-6.245-2.062-28.205-10.043-38.098-15.076c9.655-0.701,32.041,5.026,38.758,7.243c3.928,1.296,7.272,2.897,9.945,4.541
			C451.58,78.503,452.117,79.518,452.303,80.338L452.303,80.338z"/>
		<g>
			<defs>
				<path id="SVGID_40_" d="M411.161,47.987l-9.224,17.761c12.504-1.83,29.541,0.285,38.016,3.083
					c4.198,1.386,7.808,3.097,10.755,4.911c2.527,1.527,3.832,3.538,4.252,5.333l0.019,0.11l0.07-0.111
					c0.54-1.038,0.924-1.947,1.19-2.753c0.903-2.815,0.578-4.44,0.15-6.696c-0.433-2.219-0.972-5.035,0.116-8.725l0.207-0.675
					c1.09-3.313,2.895-5.581,4.463-7.5c1.584-1.941,2.885-3.527,3.564-5.6c0.294-0.889,1.264-3.338-0.697-5.673
					c-0.8-0.959-2.461-1.68-4.432-2.33c-5.276-1.757-13.429-2.229-20.599-1.542c-12.115,1.125-20.492,5.998-24.274,8.697
					L411.161,47.987z"/>
			</defs>
			<clipPath id="SVGID_41_">
				<use xlink:href="#SVGID_40_"  overflow="visible"/>
			</clipPath>
			
				<ellipse transform="matrix(0.9496 0.3135 -0.3135 0.9496 41.5847 -131.5966)" clip-path="url(#SVGID_41_)" fill="#E32A26" cx="430.006" cy="63.514" rx="46.814" ry="48.838"/>
			<path clip-path="url(#SVGID_41_)" fill="#EF4343" d="M456.506,60.901c0,0-13.783-7.92-28.982-3.763
				c5.009,0.877,23.796,2.686,29.884,14.775C464.765,66.071,457.85,61.486,456.506,60.901z"/>
		</g>
		<path fill="#C82027" d="M405.299,60.655c0,0,6.315-3.472,17.033-0.708c-7.023,0.137-9.895,0.223-14.004,1.708
			c7.179-0.214,7.763,0.365,9.819,0.787c-5.779,0.675-10.089,0.029-13.965,1.593C403.007,59.769,405.299,60.655,405.299,60.655z"/>
		<path fill="#C82027" d="M407.41,52.306c0,0,15.641-12.152,44.639-8.006c-7.564,0.604-29.373,0.125-45.365,12.161
			C405.703,52.776,407.41,52.306,407.41,52.306z"/>
		<path fill="#EF4343" d="M341.535,46.604c0,0-1.612-1.883-1.309-5.404c3.743-3.762,25.782-3.982,35.385,6.597
			c9.604,10.579,15.558,11.597,15.558,11.597l-1.366,2.306l-6.966-2.645L341.535,46.604z"/>
		<g>
			<defs>
				<path id="SVGID_42_" d="M336.064,76.943l-5.477,13.969c28.246-4.052,53.078-18.789,63.95-26.571c0,0,3.617-1.162-3.927-3.364
					c-15.034,6.278-61.862,5.742-67.199,7.491L336.064,76.943L336.064,76.943z"/>
			</defs>
			<clipPath id="SVGID_43_">
				<use xlink:href="#SVGID_42_"  overflow="visible"/>
			</clipPath>
			
				<ellipse transform="matrix(-0.9496 -0.3135 0.3135 -0.9496 672.4503 248.585)" clip-path="url(#SVGID_43_)" fill="#E32A26" cx="356.21" cy="70.231" rx="51.968" ry="39.328"/>
			<path clip-path="url(#SVGID_43_)" fill="#C82027" d="M392.936,62.519c0,0-24.768,9.657-41.373,10.635
				c6.705-2.696,8.451-2.896,11.086-4.61c-7.527,0.488-9.001,0.646-9.001,0.646s7.876-0.373,12.593-6.052
				C370.959,57.461,385.463,55.012,392.936,62.519z"/>
			<path clip-path="url(#SVGID_43_)" fill="#EF4343" d="M321.004,66.297c0,0,17.758,8.836,27.179,5.354
				c-7.442,2.971-15.938,3.267-27.739,1.827C308.642,72.038,321.004,66.297,321.004,66.297z"/>
			<path clip-path="url(#SVGID_43_)" fill="#EF4343" d="M368.564,74.891c0,0-30.891,12.545-45.288,12.704
				c-3.272-4.957,7.671-4.446,7.671-4.446L368.564,74.891z"/>
		</g>
		<path fill="#C82027" d="M341.61,43.797c-1.039,0.901-0.479,2.373-0.075,2.807c1.979,2.188,5.301,3.594,10.445,5.282
			c6.244,2.062,28.642,8.722,39.586,10.568c-7.34-6.311-28.736-15.038-35.453-17.255c-3.928-1.296-7.566-2-10.692-2.272
			C343.282,42.752,342.247,43.249,341.61,43.797L341.61,43.797z"/>
		<g>
			<defs>
				<path id="SVGID_44_" d="M393.926,42.298l-3.163,19.762c-8.957-8.914-23.907-17.359-32.382-20.156
					c-4.197-1.386-8.115-2.16-11.563-2.457c-2.939-0.277-5.186,0.561-6.591,1.753l-0.082,0.077l0.01-0.13
					c0.186-1.155,0.416-2.115,0.683-2.921c0.949-2.8,2.179-3.912,3.866-5.469c1.67-1.525,3.778-3.467,5.102-7.08l0.235-0.665
					c1.097-3.312,0.995-6.207,0.881-8.683c-0.119-2.503-0.22-4.552,0.467-6.623c0.294-0.888,0.975-3.434,3.94-4.142
					c1.213-0.295,2.977,0.116,4.947,0.766c5.285,1.729,12.115,6.204,17.47,11.024c9.063,8.117,12.893,17.02,14.325,21.439
					L393.926,42.298z"/>
			</defs>
			<clipPath id="SVGID_45_">
				<use xlink:href="#SVGID_44_"  overflow="visible"/>
			</clipPath>
			
				<ellipse transform="matrix(-0.9496 -0.3135 0.3135 -0.9496 706.8007 200.7532)" clip-path="url(#SVGID_45_)" fill="#E32A26" cx="369.54" cy="43.553" rx="46.814" ry="48.838"/>
			<path clip-path="url(#SVGID_45_)" fill="#EF4343" d="M349.805,25.677c0,0,15.789,1.842,25.527,14.231
				c-4.547-2.277-20.718-12.009-32.808-5.92C340.092,24.916,348.378,25.347,349.805,25.677z"/>
		</g>
		<path fill="#C82027" d="M391.094,55.965c0,0-3.006-6.549-13.265-10.709c5.563,4.292,7.818,6.069,10.235,9.709
			c-5.64-4.446-6.455-4.328-8.359-5.214c4.241,3.984,8.09,6.03,10.272,9.595C393.463,56.619,391.094,55.965,391.094,55.965z"/>
		<path fill="#C82027" d="M394.369,48.001c0,0-5.334-19.076-31.102-33.01c5.72,4.99,23.529,17.589,29.211,36.78
			C395.459,49.395,394.369,48.001,394.369,48.001z"/>
		<g>
			<defs>
				<path id="SVGID_46_" d="M411.409,45.313c2.312,4.22-6.673,18.775-7.639,20.007c-0.964,1.231-13.427-0.815-13.906-4.849
					c-0.478-4.036,0.509-19.928,5.832-20.398C401.018,39.601,409.094,41.093,411.409,45.313z"/>
			</defs>
			<clipPath id="SVGID_47_">
				<use xlink:href="#SVGID_46_"  overflow="visible"/>
			</clipPath>
			<polygon clip-path="url(#SVGID_47_)" fill="#E32A26" points="432.022,33.294 414.203,87.275 369.423,72.493 387.243,18.511 
				432.022,33.294 			"/>
			<path clip-path="url(#SVGID_47_)" fill="#EF4343" d="M410.566,40.038c0,0-5.143,6.574-9.609,18.539
				c1.226-5.67,1.438-12.577,3.371-14.911c-2.983,1.212-4.263,1.564-9.29,7.788c0.863-10.053,10.467-17.221,14.663-15.448
				C413.896,37.779,410.566,40.038,410.566,40.038z"/>
			<path clip-path="url(#SVGID_47_)" fill="#C82027" d="M397.684,67.317c0,0,6.494-2.25,8.774-12.482
				c-4.309,6.589-5.759,8.437-9.283,10.698c-0.921-3.276,0.432-5.027,0.662-5.532c-1.662,1.519-2.418,2.433-2.607,3.209
				c-0.728-2.5-0.408-6.596,0.884-8.753c0,0-3.559,3.543-4.24,9.714C395.654,69.941,397.684,67.317,397.684,67.317z"/>
		</g>
	</g>
</g>
<g>
	<g>
		<rect x="360" y="377" fill="#FFFFFF" width="4" height="4"/>
		<rect x="352" y="377" fill="#FFFFFF" width="4" height="4"/>
		<rect x="352" y="385" fill="#FFFFFF" width="4" height="4"/>
		<rect x="356" y="381" fill="#FFFFFF" width="4" height="4"/>
	</g>
	<g>
		<path fill="#FFFFFF" d="M375.13,382.793h3.094v1.893h-3.094v2.766h-2.051v-8.023h5.587v1.927h-3.536V382.793z"/>
		<path fill="#FFFFFF" d="M382.02,384.9h-0.362v2.551h-2.051v-8.023h3.206c1.654,0,2.936,0.76,2.981,2.64
			c0,1.485-0.601,2.323-1.576,2.63l2.188,2.754h-2.526L382.02,384.9z M382.848,383.156c1.28,0,1.28-1.836,0-1.836h-1.19v1.836
			H382.848z"/>
		<path fill="#FFFFFF" d="M393.737,387.451h-2.176l-0.521-1.609h-2.142l-0.5,1.609h-2.175l2.799-8.023h1.847L393.737,387.451z
			 M390.553,384.04l-0.556-2.346h-0.057l-0.589,2.346H390.553z"/>
		<path fill="#FFFFFF" d="M399.912,385.763c-0.668,1.303-1.881,1.802-2.89,1.802c-1.575,0-3.161-0.918-3.161-2.742v-2.766
			c0-1.812,1.586-2.742,3.195-2.742c0.986,0,2.176,0.419,2.822,1.847l-1.654,0.669c-0.545-0.997-2.335-0.771-2.335,0.227v2.766
			c0,0.963,1.813,1.234,2.255,0.124L399.912,385.763z"/>
		<path fill="#FFFFFF" d="M404.354,381.343v6.108h-2.052v-6.108h-2.131v-1.926h6.312v1.926H404.354z"/>
		<path fill="#FFFFFF" d="M413.227,387.451h-2.176l-0.521-1.609h-2.143l-0.498,1.609h-2.176l2.799-8.023h1.848L413.227,387.451z
			 M410.042,384.04l-0.555-2.346h-0.057l-0.59,2.346H410.042z"/>
		<path fill="#FFFFFF" d="M413.759,379.428h2.04v6.018h3.264v2.006h-5.304V379.428z"/>
		<path fill="#FFFFFF" d="M422.586,384.912c0.806,0.975,2.572,1.02,2.629,0.159c0.023-0.453-0.714-0.714-1.371-0.805
			c-1.292-0.204-2.47-1.021-2.47-2.55c0-1.575,1.427-2.402,2.901-2.402c0.974,0,1.914,0.271,2.741,1.28l-1.325,1.021
			c-0.839-0.896-2.278-0.861-2.312,0.067c0.022,0.385,0.441,0.612,1.064,0.748c1.429,0.261,2.856,0.759,2.766,2.73
			c-0.068,1.553-1.7,2.403-3.173,2.403c-0.964,0-1.983-0.487-2.731-1.45L422.586,384.912z"/>
		<path fill="#FFFFFF" d="M427.89,382.067c0-1.847,1.654-2.753,3.32-2.753s3.331,0.918,3.331,2.753v2.743
			c0,1.836-1.654,2.754-3.32,2.754s-3.331-0.918-3.331-2.754V382.067z M429.918,384.811c0,0.59,0.657,0.872,1.303,0.872
			c0.646,0,1.292-0.294,1.292-0.872v-2.743c0-0.623-0.668-0.906-1.325-0.906c-0.635,0-1.27,0.318-1.27,0.906V384.811z"/>
		<path fill="#FFFFFF" d="M437.668,382.793h3.094v1.893h-3.094v2.766h-2.051v-8.023h5.588v1.927h-3.537V382.793z"/>
		<path fill="#FFFFFF" d="M445.85,381.343v6.108h-2.051v-6.108h-2.131v-1.926h6.312v1.926H445.85z"/>
	</g>
</g>
<g>
	<path fill="#FCF7F0" d="M404.845,461.151h-6.493c-0.47,0-0.85,0.328-0.85,0.733v5.604c0,0.405,0.38,0.733,0.85,0.733h6.493
		c0.47,0,0.85-0.328,0.85-0.733v-5.604C405.695,461.479,405.315,461.151,404.845,461.151z M404.649,466.774
		c0,0.302-0.283,0.547-0.632,0.547h-4.836c-0.35,0-0.632-0.245-0.632-0.547V462.6c0-0.301,0.283-0.546,0.632-0.546h4.836
		c0.35,0,0.632,0.245,0.632,0.546V466.774z"/>
	<path fill="#C1B9AE" d="M400.309,465.101h-1.78c-0.281,0-0.513-0.181-0.555-0.413c-0.004,0.024-0.009,0.049-0.009,0.075
		c0,0.269,0.252,0.486,0.564,0.486h1.78c0.311,0,0.563-0.218,0.563-0.486c0-0.026-0.004-0.051-0.008-0.075
		C400.821,464.92,400.589,465.101,400.309,465.101z"/>
	<g>
		<path fill="#C1B9AE" d="M404.017,462.054h-4.836c-0.35,0-0.632,0.245-0.632,0.546v0.315c0-0.303,0.283-0.548,0.632-0.548h4.836
			c0.35,0,0.632,0.245,0.632,0.548V462.6C404.649,462.299,404.367,462.054,404.017,462.054z"/>
		<path fill="#C1B9AE" d="M404.845,468.223h-6.493c-0.47,0-0.85-0.328-0.85-0.733v0.314c0,0.405,0.38,0.734,0.85,0.734h6.493
			c0.47,0,0.85-0.329,0.85-0.734v-0.314C405.695,467.895,405.315,468.223,404.845,468.223z"/>
	</g>
	<g opacity="0.3">
		<path fill="#C1B9AE" d="M399.181,467.635h4.836c0.35,0,0.632-0.245,0.632-0.546v-0.314c0,0.302-0.283,0.547-0.632,0.547h-4.836
			c-0.35,0-0.632-0.245-0.632-0.547v0.314C398.549,467.39,398.832,467.635,399.181,467.635z"/>
		<path fill="#C1B9AE" d="M404.845,461.151h-6.493c-0.47,0-0.85,0.328-0.85,0.733v0.313c0-0.405,0.38-0.733,0.85-0.733h6.493
			c0.47,0,0.85,0.328,0.85,0.733v-0.313C405.695,461.479,405.315,461.151,404.845,461.151z"/>
	</g>
	<path fill="#FCF7F0" d="M400.872,464.688c0,0.269-0.252,0.487-0.563,0.487h-1.78c-0.312,0-0.564-0.219-0.564-0.487l0,0
		c0-0.27,0.252-0.487,0.564-0.487h1.78C400.62,464.2,400.872,464.418,400.872,464.688L400.872,464.688z"/>
	<path opacity="0.6" fill="#C1B9AE" d="M398.632,464.532h1.435c0.2,0,0.368,0.112,0.429,0.267c0.017-0.04,0.026-0.082,0.026-0.127
		c0-0.217-0.203-0.394-0.455-0.394h-1.435c-0.251,0-0.455,0.177-0.455,0.394c0,0.045,0.011,0.087,0.026,0.127
		C398.265,464.645,398.432,464.532,398.632,464.532z"/>
</g>
<path d="M386.148,463.349c0.079,0.146,0.136,0.307,0.136,0.485c0,0.574-0.466,1.041-1.042,1.041c-0.234,0-0.44-0.092-0.614-0.223
	c0.176,0.326,0.509,0.557,0.906,0.557c0.575,0,1.042-0.467,1.042-1.041C386.576,463.826,386.402,463.538,386.148,463.349z"/>
<path d="M392.198,463.608c0.079,0.146,0.136,0.307,0.136,0.485c0,0.574-0.466,1.041-1.042,1.041c-0.234,0-0.44-0.092-0.614-0.223
	c0.176,0.326,0.509,0.557,0.906,0.557c0.575,0,1.042-0.467,1.042-1.041C392.626,464.086,392.452,463.798,392.198,463.608z"/>
<path d="M377.904,462.915c0.079,0.146,0.136,0.307,0.136,0.485c0,0.574-0.466,1.041-1.042,1.041c-0.234,0-0.44-0.092-0.614-0.223
	c0.176,0.326,0.509,0.557,0.906,0.557c0.575,0,1.042-0.467,1.042-1.041C378.332,463.393,378.157,463.104,377.904,462.915z"/>
<g>
	<g>
		<path fill="#F79421" d="M547.482,405.126c-0.176-0.689-0.748-1.236-1.601-1.637c-0.758,2.161-4.554,4.576-9.492,5.832
			c-4.203,1.068-7.654,0.539-9.765-0.451c-0.148,0.422-0.191,0.836-0.092,1.229c0.609,2.396,5.463,3.588,11.364,2.087
			C543.801,410.685,548.092,407.523,547.482,405.126z"/>
		<path fill="#C35927" d="M532.892,413.35C532.892,413.35,532.892,413.35,532.892,413.35c-3.73,0-6.353-1.198-6.843-3.128
			c-0.119-0.471-0.084-0.98,0.104-1.518l0.184-0.521l0.5,0.234c2.395,1.125,5.951,1.304,9.43,0.42
			c4.587-1.167,8.433-3.485,9.144-5.513l0.183-0.522l0.502,0.235c1.033,0.485,1.663,1.146,1.872,1.966
			c0.688,2.706-3.681,6.074-9.946,7.667C536.248,413.121,534.521,413.35,532.892,413.35z M526.982,409.567
			c-0.009,0.145,0.003,0.28,0.035,0.408c0.361,1.42,2.722,2.374,5.873,2.374h0.001c1.547,0,3.189-0.218,4.883-0.648
			c6.104-1.552,9.697-4.589,9.224-6.452c-0.103-0.402-0.398-0.759-0.88-1.063c-1.193,2.224-4.932,4.432-9.605,5.62
			c-1.576,0.4-3.137,0.604-4.64,0.604C529.693,410.41,528.072,409.994,526.982,409.567z"/>
	</g>
	<path opacity="0.9" fill="#FCF9F7" d="M526.62,409.35c2.11,0.99,5.562,1.52,9.765,0.451c4.938-1.256,8.734-3.671,9.492-5.832
		c0.853,0.4,1.425,0.947,1.601,1.637c0.016,0.061,0.014,0.123,0.023,0.185c0.038-0.262,0.04-0.52-0.023-0.768
		c-0.176-0.689-0.748-1.236-1.601-1.637c-0.758,2.161-4.554,4.576-9.492,5.832c-4.203,1.068-7.654,0.539-9.765-0.451
		c-0.127,0.361-0.156,0.715-0.105,1.057C526.539,409.666,526.563,409.51,526.62,409.35z"/>
	<path opacity="0.2" fill="#76441B" d="M547.468,405.103c-0.537,2.221-4.445,4.778-9.575,6.083
		c-5.843,1.486-10.652,0.331-11.339-2.019c-0.073,0.318-0.102,0.633-0.025,0.932c0.609,2.396,5.463,3.588,11.364,2.087
		c5.903-1.501,10.194-4.662,9.585-7.06C547.476,405.118,547.47,405.11,547.468,405.103z"/>
</g>
<g>
	<g>
		<path fill="#F79421" d="M546.732,400.088c-0.194-0.719-0.827-1.288-1.771-1.706c-0.838,2.252-5.035,4.769-10.496,6.077
			c-4.647,1.113-8.464,0.562-10.798-0.47c-0.164,0.439-0.211,0.871-0.102,1.28c0.674,2.497,6.041,3.738,12.566,2.175
			C542.661,405.88,547.406,402.586,546.732,400.088z"/>
		<path fill="#C35927" d="M530.598,408.636L530.598,408.636c-4.097,0-6.976-1.24-7.514-3.236c-0.132-0.493-0.093-1.026,0.115-1.585
			l0.186-0.497l0.485,0.215c1.518,0.671,3.506,1.04,5.6,1.04c1.577,0,3.219-0.201,4.88-0.6c5.088-1.22,9.354-3.644,10.144-5.766
			l0.186-0.498l0.485,0.216c1.132,0.501,1.822,1.186,2.051,2.032c0.188,0.696,0.053,1.438-0.401,2.201
			c-1.363,2.296-5.51,4.562-10.564,5.772C534.295,408.398,532.394,408.636,530.598,408.636z M524.015,404.671
			c-0.016,0.166-0.004,0.323,0.035,0.47c0.402,1.492,3.034,2.495,6.548,2.495l0,0c1.718,0,3.541-0.228,5.419-0.678
			c4.73-1.134,8.724-3.268,9.938-5.311c0.311-0.523,0.41-1.004,0.296-1.43c-0.139-0.511-0.59-0.892-1.053-1.158
			c-1.285,2.325-5.427,4.643-10.615,5.886c-1.737,0.416-3.457,0.627-5.112,0.627C527.02,405.572,525.212,405.123,524.015,404.671z"
			/>
	</g>
	<path opacity="0.9" fill="#FCF9F7" d="M523.663,404.489c2.333,1.031,6.149,1.583,10.798,0.47c5.461-1.309,9.658-3.825,10.496-6.077
		c0.942,0.417,1.575,0.987,1.77,1.706c0.018,0.062,0.016,0.128,0.026,0.191c0.042-0.272,0.044-0.541-0.026-0.8
		c-0.194-0.718-0.827-1.288-1.77-1.705c-0.838,2.252-5.035,4.769-10.496,6.077c-4.648,1.113-8.465,0.562-10.798-0.47
		c-0.141,0.376-0.173,0.744-0.117,1.101C523.573,404.818,523.601,404.656,523.663,404.489z"/>
	<path opacity="0.2" fill="#76441B" d="M546.716,400.063c-0.594,2.313-4.915,4.979-10.588,6.339
		c-6.461,1.549-11.779,0.345-12.538-2.104c-0.081,0.331-0.112,0.659-0.028,0.971c0.674,2.497,6.041,3.738,12.566,2.175
		c6.527-1.564,11.272-4.858,10.599-7.356C546.725,400.08,546.718,400.071,546.716,400.063z"/>
</g>
<path d="M518.021,126.643c0,0,0.094,0.079,0.197,0.227c0.109,0.145,0.199,0.369,0.268,0.603c0.04,0.241,0.036,0.491-0.019,0.668
	c-0.073,0.174-0.134,0.273-0.134,0.273s-0.009-0.127-0.006-0.291c-0.016-0.168-0.035-0.383-0.086-0.597
	c-0.046-0.215-0.105-0.43-0.15-0.597C518.052,126.76,518.021,126.643,518.021,126.643z"/>
<g>
	<g>
		<path fill="#F79421" d="M531.2,137.493c0.258-0.449,0.227-1.039-0.032-1.707c-1.518,0.694-4.812-0.131-8.138-2.17
			c-2.827-1.735-4.432-3.879-5.07-5.532c-0.295,0.135-0.53,0.324-0.679,0.579c-0.895,1.557,1.131,4.802,5.103,7.238
			C526.356,138.338,530.305,139.05,531.2,137.493z"/>
		<path fill="#C35927" d="M529.2,138.818L529.2,138.818c-1.89,0-4.535-0.931-7.078-2.49c-4.072-2.498-6.389-5.974-5.274-7.914
			c0.196-0.336,0.499-0.599,0.904-0.784l0.482-0.222l0.192,0.496c0.35,0.906,1.525,3.236,4.865,5.286
			c2.387,1.464,4.832,2.338,6.541,2.338c0.463,0,0.842-0.066,1.127-0.196l0.482-0.221l0.191,0.495c0.328,0.846,0.328,1.565,0,2.136
			C531.352,138.233,530.7,138.818,529.2,138.818z M517.753,128.854c-0.015,0.02-0.027,0.04-0.04,0.061
			c-0.709,1.234,1.141,4.234,4.933,6.56c2.355,1.445,4.867,2.343,6.554,2.343h0.001c0.462,0,1.279-0.075,1.566-0.574
			c0.136-0.235,0.131-0.536,0.072-0.822c-1.837,0.433-5.035-0.518-8.07-2.379C519.742,132.185,518.35,130.075,517.753,128.854z"/>
	</g>
	<path opacity="0.9" fill="#FCF9F7" d="M517.713,128.328c0.639,1.651,2.241,3.796,5.07,5.533c3.323,2.038,6.62,2.863,8.138,2.169
		c0.258,0.668,0.288,1.258,0.031,1.707c-0.022,0.039-0.056,0.07-0.082,0.107c0.155-0.113,0.288-0.244,0.38-0.406
		c0.258-0.448,0.227-1.039-0.032-1.706c-1.516,0.694-4.812-0.131-8.136-2.17c-2.829-1.735-4.434-3.88-5.071-5.532
		c-0.254,0.116-0.45,0.28-0.598,0.482C517.507,128.445,517.601,128.379,517.713,128.328z"/>
	<path opacity="0.2" fill="#76441B" d="M531.203,137.473c-1.427,0.845-4.858,0.032-8.311-2.086
		c-3.933-2.412-5.951-5.614-5.123-7.188c-0.203,0.123-0.378,0.269-0.489,0.462c-0.896,1.557,1.13,4.802,5.101,7.238
		c3.973,2.437,7.92,3.149,8.816,1.592C531.2,137.485,531.2,137.478,531.203,137.473z"/>
</g>
<g>
	<g>
		<path fill="#F79421" d="M268.213,137.493c-0.258-0.449-0.227-1.039,0.032-1.707c1.518,0.694,4.812-0.131,8.138-2.17
			c2.827-1.735,4.432-3.879,5.07-5.532c0.295,0.135,0.53,0.324,0.679,0.579c0.895,1.557-1.131,4.802-5.103,7.238
			C273.057,138.338,269.109,139.05,268.213,137.493z"/>
		<path fill="#C35927" d="M270.214,138.818c-1.5,0-2.152-0.585-2.434-1.075c-0.328-0.572-0.328-1.291,0-2.137l0.192-0.495
			l0.482,0.221c0.285,0.13,0.664,0.196,1.127,0.196c1.708,0,4.154-0.874,6.542-2.338c3.339-2.05,4.515-4.38,4.865-5.286l0.191-0.496
			l0.483,0.222c0.404,0.186,0.708,0.448,0.902,0.781c1.116,1.942-1.201,5.418-5.273,7.917
			C274.749,137.887,272.103,138.818,270.214,138.818z M268.575,136.422c-0.059,0.286-0.063,0.586,0.072,0.822
			c0.287,0.499,1.105,0.574,1.567,0.574c1.687,0,4.198-0.897,6.555-2.343c3.792-2.326,5.641-5.326,4.93-6.563
			c-0.011-0.02-0.024-0.039-0.038-0.058c-0.597,1.22-1.99,3.331-5.016,5.188C273.61,135.903,270.41,136.854,268.575,136.422z"/>
	</g>
	<path opacity="0.9" fill="#FCF9F7" d="M281.701,128.328c-0.639,1.651-2.241,3.796-5.07,5.533c-3.323,2.038-6.62,2.863-8.138,2.169
		c-0.258,0.668-0.288,1.258-0.031,1.707c0.022,0.039,0.056,0.07,0.082,0.107c-0.155-0.113-0.288-0.244-0.38-0.406
		c-0.258-0.448-0.227-1.039,0.032-1.706c1.516,0.694,4.812-0.131,8.136-2.17c2.829-1.735,4.434-3.88,5.071-5.532
		c0.254,0.116,0.45,0.28,0.598,0.482C281.907,128.445,281.813,128.379,281.701,128.328z"/>
	<path opacity="0.2" fill="#76441B" d="M268.21,137.473c1.427,0.845,4.858,0.032,8.311-2.086c3.933-2.412,5.951-5.614,5.123-7.188
		c0.203,0.123,0.378,0.269,0.489,0.462c0.896,1.557-1.13,4.802-5.101,7.238c-3.973,2.437-7.92,3.149-8.816,1.592
		C268.213,137.485,268.213,137.478,268.21,137.473z"/>
</g>
</svg>
