<?xml version="1.0" encoding="utf-8"?>
<!-- Generator: Adobe Illustrator 16.0.4, SVG Export Plug-In . SVG Version: 6.00 Build 0)  -->
<!DOCTYPE svg PUBLIC "-//W3C//DTD SVG 1.1//EN" "http://www.w3.org/Graphics/SVG/1.1/DTD/svg11.dtd">
<svg version="1.1" id="Layer_1" xmlns="http://www.w3.org/2000/svg" xmlns:xlink="http://www.w3.org/1999/xlink" x="0px" y="0px"
	 width="1280px" height="800px" viewBox="0 0 1280 800" enable-background="new 0 0 1280 800" xml:space="preserve">
<g>
	<g>
		<rect x="366" y="370" fill="#C3261C" width="19" height="19"/>
		<rect x="385" y="389" fill="#C3261C" width="20" height="20"/>
		<rect x="405" y="370" fill="#C3261C" width="19" height="19"/>
		<rect x="366" y="409" fill="#C3261C" width="19" height="19"/>
	</g>
	<g>
		<path fill="#0C0C0C" d="M491.648,393.146h16.875v10.323h-16.875v15.082h-11.188v-43.764h30.474v10.508h-19.286V393.146z"/>
		<path fill="#0C0C0C" d="M529.227,404.643h-1.978v13.908h-11.188v-43.764h17.493c9.025,0,16.01,4.142,16.257,14.402
			c0,8.098-3.276,12.672-8.592,14.341l11.93,15.021h-13.784L529.227,404.643z M533.739,395.123c6.985,0,6.985-10.014,0-10.014h-6.49
			v10.014H533.739z"/>
		<path fill="#0C0C0C" d="M593.138,418.551H581.27l-2.843-8.777h-11.683l-2.72,8.777h-11.868l15.268-43.764H577.5L593.138,418.551z
			 M575.769,399.945l-3.029-12.796h-0.309l-3.214,12.796H575.769z"/>
		<path fill="#0C0C0C" d="M626.823,409.341c-3.647,7.108-10.261,9.828-15.762,9.828c-8.592,0-17.246-5.007-17.246-14.959v-15.082
			c0-9.891,8.654-14.959,17.432-14.959c5.377,0,11.868,2.287,15.391,10.075l-9.024,3.647c-2.967-5.439-12.734-4.203-12.734,1.236
			v15.082c0,5.254,9.89,6.737,12.301,0.68L626.823,409.341z"/>
		<path fill="#0C0C0C" d="M651.051,385.233v33.317h-11.188v-33.317h-11.621v-10.508h34.431v10.508H651.051z"/>
		<path fill="#0C0C0C" d="M699.447,418.551H687.58l-2.844-8.777h-11.683l-2.72,8.777h-11.869l15.269-43.764h10.075L699.447,418.551z
			 M682.078,399.945l-3.029-12.796h-0.309l-3.215,12.796H682.078z"/>
		<path fill="#0C0C0C" d="M702.35,374.787h11.127v32.822h17.802v10.941H702.35V374.787z"/>
		<path fill="#0C0C0C" d="M750.498,404.705c4.389,5.315,14.031,5.562,14.34,0.865c0.124-2.473-3.894-3.895-7.479-4.389
			c-7.047-1.113-13.476-5.563-13.476-13.908c0-8.592,7.788-13.104,15.824-13.104c5.315,0,10.446,1.483,14.958,6.984l-7.231,5.563
			c-4.574-4.883-12.425-4.697-12.61,0.371c0.124,2.102,2.411,3.338,5.811,4.079c7.789,1.422,15.577,4.142,15.082,14.897
			c-0.37,8.469-9.271,13.104-17.307,13.104c-5.254,0-10.818-2.658-14.897-7.912L750.498,404.705z"/>
		<path fill="#0C0C0C" d="M779.424,389.189c0-10.075,9.024-15.021,18.111-15.021c9.086,0,18.173,5.007,18.173,15.021v14.959
			c0,10.014-9.024,15.021-18.111,15.021s-18.173-5.007-18.173-15.021V389.189z M790.488,404.148c0,3.214,3.585,4.76,7.108,4.76
			s7.047-1.607,7.047-4.76v-14.959c0-3.399-3.647-4.945-7.232-4.945c-3.462,0-6.923,1.731-6.923,4.945V404.148z"/>
		<path fill="#0C0C0C" d="M832.765,393.146h16.875v10.323h-16.875v15.082h-11.188v-43.764h30.474v10.508h-19.286V393.146z"/>
		<path fill="#0C0C0C" d="M877.391,385.233v33.317h-11.188v-33.317h-11.621v-10.508h34.431v10.508H877.391z"/>
	</g>
</g>
</svg>
