<?xml version="1.0" encoding="utf-8"?>
<!-- Generator: Adobe Illustrator 16.0.0, SVG Export Plug-In . SVG Version: 6.00 Build 0)  -->
<!DOCTYPE svg PUBLIC "-//W3C//DTD SVG 1.1//EN" "http://www.w3.org/Graphics/SVG/1.1/DTD/svg11.dtd">
<svg version="1.1" id="Layer_1" xmlns="http://www.w3.org/2000/svg" xmlns:xlink="http://www.w3.org/1999/xlink" x="0px" y="0px"
	 width="2120px" height="1192px" viewBox="0 0 2120 1192" enable-background="new 0 0 2120 1192" xml:space="preserve">
<rect y="1" fill-rule="evenodd" clip-rule="evenodd" fill="#4C8EB4" width="2120" height="1191"/>
<path fill-rule="evenodd" clip-rule="evenodd" fill="#30617D" d="M654.544,427.16c39.225,3.255,70.046,36.118,70.046,76.183
	c0,42.225-34.229,76.453-76.453,76.453s-76.453-34.228-76.453-76.453c0-38.6,28.606-70.511,65.775-75.707v-9.715
	c0-3.289,2.691-5.979,5.98-5.979h5.124c3.29,0,5.98,2.691,5.98,5.979V427.16z"/>
<path fill="#30617D" d="M1443.388,399.801c23.267,5.942,43.543,15.28,57.608,28.698c14.423,13.756,22.312,31.737,20.246,54.651
	c-1.229,13.633-5.998,29.001-15.034,46.249c2.303,2.924,4.342,6.079,6.133,9.438c5.942,11.142,9.147,24.495,10.271,39.008
	c3.451,44.549-12.709,100.336-29.289,136.318l-0.822,1.957c21.283,1.662,38.152,24.775,38.152,53.048
	c0,29.354-18.182,53.148-40.609,53.148c-22.429,0-40.612-23.795-40.612-53.148c0-28.714,17.399-52.105,39.153-53.11l1.499-3.388
	c16.392-35.569,32.369-90.66,28.97-134.56c-1.088-14.054-4.164-26.932-9.853-37.598c-1.44-2.702-3.052-5.262-4.842-7.666
	c-2.192,3.995-4.61,8.089-7.263,12.283c-18.159,28.719-36.821,43.959-53.708,50.077v-3.791
	c15.858-6.138,33.421-20.869,50.694-48.185c2.904-4.594,5.521-9.06,7.863-13.403c-4.829-5.622-10.791-10.233-18.043-13.576
	c-10.566-4.869-23.908-7.066-40.515-5.808v-3.579c17.115-1.263,30.956,1.056,42.008,6.148c7.288,3.359,13.351,7.916,18.329,13.44
	c8.377-16.284,12.815-30.773,13.973-43.61c1.957-21.714-5.508-38.741-19.156-51.761c-13.416-12.797-32.812-21.787-55.153-27.595
	V399.801z M1328.316,393.712c37.413-4.095,79.068-2.918,114.029,5.826l1.042,0.263v3.686c-0.634-0.165-1.27-0.327-1.907-0.487
	c-34.677-8.672-76.045-9.81-113.164-5.706v306.732c0,6.304-5.163,11.466-11.467,11.466h-245.823V373.682h196.68v-5.84h-196.68
	v-92.522h292.354c14.087,0,18.371,6.576,12.591,15.642l-49,76.881h-34.133v5.84h24.012c6.309,0,11.467,5.163,11.467,11.467V393.712
	L1328.316,393.712z M1443.388,595.205v-3.791c-6.694,2.59-13.085,3.649-19.021,3.479c-14.435-0.417-26.201-8.152-33.039-18.792
	c-6.829-10.626-8.741-24.139-3.482-36.136c6.406-14.613,23.489-27.042,55.329-29.507l0.214-0.016v-3.579l-0.479,0.036
	c-33.393,2.585-51.44,15.926-58.331,31.642c-5.763,13.144-3.695,27.905,3.748,39.486c7.433,11.565,20.23,19.972,35.941,20.426
	C1430.267,598.626,1436.688,597.633,1443.388,595.205z M1071.026,715.491H825.205c-6.302,0-11.466-5.159-11.466-11.466V385.149
	c0-6.308,5.159-11.467,11.466-11.467h24.012v-5.84h-35.478l-43.66-68.996c-9.803-15.495-7.904-23.527,7.61-23.527h293.337v92.522
	h-196.68v5.84h196.68V715.491z"/>
<rect x="614.641" y="711.815" transform="matrix(-0.9026 0.4305 -0.4305 -0.9026 1801.1759 1382.4126)" fill-rule="evenodd" clip-rule="evenodd" fill="#30617D" width="259.059" height="366.382"/>
<path fill-rule="evenodd" clip-rule="evenodd" fill="#30617D" d="M1142.453,821.91c-6.363-1.13-31.1-13.352-49.282-18.572
	c-18.201-5.229-46.116-8.446-51.162-7.874c-6.032,0.684-6.288,1.112-7.405,5.373c-1.116,4.259-1.15,8.102,1.976,9.889
	c3.994,2.282,3.263,7.501,2.898,22.284c-3.139,6.127-4.811,12.532-5.619,16.563c-1.551,7.747,5.14,12.483,9.522,5.576
	c4.201,7.22,12.485,13.294,28.22,17.701c27.676,7.751,40.721-8.458,44.931-13.679c7.505-9.311,8.71-23.976,22.903-21.133
	c14.195,2.843,9.961,16.638,13.303,28.12c1.874,6.44,7.366,26.626,35.894,30.13c16.261,1.998,26.252-0.435,32.91-5.505
	c1.36,8.118,9.388,6.332,10.942-1.429c0.812-4.059,1.744-10.673,1.184-17.585c5.316-13.689,6.658-18.76,11.209-19.328
	c3.574-0.445,5.022-4.003,5.631-8.363c0.611-4.362,0.54-4.858-4.764-7.812c-4.437-2.472-31.436-10.25-50.246-12.438
	C1178.68,821.878,1157.426,824.566,1142.453,821.91z"/>
<path fill-rule="evenodd" clip-rule="evenodd" fill="#30617D" d="M1323.801,914.496l40.977,20.814
	c7.771,3.947,10.9,13.535,6.953,21.307l-55.984,110.214c-3.947,7.771-13.535,10.9-21.307,6.952l-40.977-20.813
	c-7.771-3.949-10.9-13.535-6.953-21.307l55.983-110.215C1306.441,913.678,1316.029,910.549,1323.801,914.496z"/>
<path fill-rule="evenodd" clip-rule="evenodd" fill="#30617D" d="M1462.32,989.614l-20.879,8.104l8.104-20.878l108.998-108.998l0,0
	l4.074-4.075l5.131-5.13c1.917-1.916,5.052-1.916,6.97,0l2.902,2.902l2.903,2.903c1.916,1.917,1.916,5.053,0,6.97l-9.205,9.205
	L1462.32,989.614z"/>
<rect x="1400.897" y="160.095" fill-rule="evenodd" clip-rule="evenodd" fill="#D1E2EB" width="256.103" height="98.333"/>
<polygon fill-rule="evenodd" clip-rule="evenodd" fill="#B0CAD9" points="1526.535,92.062 1400.897,160.095 1400.897,258.428 
	1526.535,190.395 "/>
<rect x="466" y="160.095" fill-rule="evenodd" clip-rule="evenodd" fill="#D1E2EB" width="256.102" height="98.333"/>
<polygon fill-rule="evenodd" clip-rule="evenodd" fill="#B0CAD9" points="596.465,92.062 722.102,160.095 722.102,258.428 
	596.465,190.395 "/>
<path fill="#FFFFFF" d="M1444.7,392.556c23.267,5.942,43.543,15.28,57.61,28.698c14.421,13.757,22.311,31.736,20.244,54.651
	c-1.229,13.633-5.998,29.001-15.034,46.248c2.303,2.924,4.341,6.079,6.133,9.438c5.942,11.142,9.147,24.494,10.271,39.008
	c3.451,44.549-12.709,100.336-29.289,136.317l-6.688,15.835l-0.852-6.953l4.301-10.374c16.39-35.569,32.367-90.66,28.969-134.56
	c-1.088-14.054-4.163-26.933-9.853-37.598c-1.44-2.702-3.052-5.262-4.842-7.667c-2.192,3.996-4.61,8.089-7.263,12.284
	c-18.159,28.719-36.821,43.958-53.708,50.077v-3.792c15.858-6.137,33.42-20.869,50.693-48.184c2.905-4.594,5.521-9.06,7.865-13.403
	c-4.829-5.622-10.79-10.233-18.044-13.576c-10.566-4.87-23.907-7.066-40.515-5.808v-3.579c17.116-1.263,30.957,1.056,42.007,6.148
	c7.289,3.358,13.352,7.916,18.331,13.44c8.377-16.283,12.814-30.772,13.972-43.61c1.959-21.714-5.508-38.741-19.156-51.761
	c-13.416-12.797-32.812-21.787-55.153-27.595V392.556z M1304.969,390.036c42.846-7.811,95.806-8.468,138.688,2.256l1.043,0.263
	v3.685c-0.634-0.165-1.27-0.328-1.907-0.487c-42.395-10.602-94.789-9.945-137.195-2.214L1304.969,390.036L1304.969,390.036z
	 M1444.7,587.96c-6.7,2.428-13.121,3.421-19.12,3.248c-15.711-0.454-28.509-8.861-35.941-20.426
	c-7.441-11.581-9.51-26.342-3.747-39.486c6.889-15.715,24.938-29.057,58.33-31.642l0.479-0.036v3.579l-0.212,0.016
	c-31.842,2.465-48.925,14.893-55.331,29.506c-5.259,11.997-3.347,25.51,3.482,36.137c6.838,10.64,18.605,18.375,33.039,18.792
	c5.937,0.171,12.327-0.888,19.021-3.479V587.96z"/>
<g>
	<path fill-rule="evenodd" clip-rule="evenodd" fill="#FFFFFF" d="M826.517,366.438h491.646c6.308,0,11.467,5.162,11.467,11.466
		v318.875c0,6.305-5.163,11.467-11.467,11.467H826.517c-6.302,0-11.465-5.159-11.465-11.467V377.904
		C815.051,371.596,820.21,366.438,826.517,366.438z"/>
	<path fill-rule="evenodd" clip-rule="evenodd" fill="#B3B3B3" d="M848.842,366.438h28.503v16.28c0,1.472-1.204,2.678-2.677,2.678
		h-23.148c-1.474,0-2.678-1.206-2.678-2.678V366.438z"/>
	<path fill-rule="evenodd" clip-rule="evenodd" fill="#B3B3B3" d="M1267.332,366.438h28.504v16.28c0,1.472-1.203,2.678-2.678,2.678
		h-23.148c-1.473,0-2.678-1.206-2.678-2.678V366.438z"/>
	<path fill-rule="evenodd" clip-rule="evenodd" fill="#CCCCCC" d="M779.001,268.074h585.69c14.087,0,18.372,6.576,12.592,15.642
		l-49.001,76.88H815.051l-43.659-68.996C761.588,276.106,763.487,268.074,779.001,268.074z"/>
	<polygon fill-rule="evenodd" clip-rule="evenodd" points="1347.304,291.506 1311.666,350.246 832.075,350.246 796.068,291.506 	"/>
	<path fill-rule="evenodd" clip-rule="evenodd" fill="#FFFFFF" d="M775.769,270.222h593.606c1.261,0,2.293,1.032,2.293,2.294v0.001
		c0,1.26-1.032,2.293-2.293,2.293H775.769c-1.261,0-2.293-1.033-2.293-2.293v-0.001
		C773.476,271.254,774.508,270.222,775.769,270.222z"/>
	<path fill-rule="evenodd" clip-rule="evenodd" fill="#FFFFFF" d="M852.891,351.665h20.406c1.3,0,2.362,1.062,2.362,2.361v24.118
		c0,1.299-1.062,2.361-2.362,2.361h-20.406c-1.3,0-2.362-1.062-2.362-2.361v-24.118
		C850.529,352.727,851.591,351.665,852.891,351.665z"/>
	<path fill-rule="evenodd" clip-rule="evenodd" fill="#FFFFFF" d="M1271.38,351.665h20.408c1.299,0,2.361,1.062,2.361,2.361v24.118
		c0,1.299-1.062,2.361-2.361,2.361h-20.408c-1.298,0-2.361-1.062-2.361-2.361v-24.118
		C1269.019,352.727,1270.082,351.665,1271.38,351.665z"/>
	<path fill-rule="evenodd" clip-rule="evenodd" fill="#CCCCCC" d="M1279.555,411.99h15.879c1.805,0,3.28,1.477,3.28,3.281v11.8
		c0,1.805-1.476,3.281-3.28,3.281h-15.879c-1.805,0-3.281-1.476-3.281-3.281v-11.8C1276.273,413.466,1277.75,411.99,1279.555,411.99
		z"/>
	<path fill-rule="evenodd" clip-rule="evenodd" fill="#CCCCCC" d="M1280.283,434.502h14.422c2.204,0,4.009,1.804,4.009,4.008v15.984
		c0,2.205-1.805,4.008-4.009,4.008h-14.422c-2.205,0-4.01-1.804-4.01-4.008V438.51
		C1276.273,436.306,1278.078,434.502,1280.283,434.502z"/>
	<path fill-rule="evenodd" clip-rule="evenodd" fill="#CCCCCC" d="M1280.283,462.652h14.422c2.204,0,4.009,1.803,4.009,4.008v15.984
		c0,2.204-1.805,4.008-4.009,4.008h-14.422c-2.205,0-4.01-1.804-4.01-4.008v-15.984
		C1276.273,464.456,1278.078,462.652,1280.283,462.652z"/>
	<path fill-rule="evenodd" clip-rule="evenodd" fill="#CCCCCC" d="M1280.283,490.804h14.422c2.204,0,4.009,1.803,4.009,4.008v15.984
		c0,2.205-1.805,4.008-4.009,4.008h-14.422c-2.205,0-4.01-1.803-4.01-4.008v-15.984
		C1276.273,492.607,1278.078,490.804,1280.283,490.804z"/>
	<path fill-rule="evenodd" clip-rule="evenodd" fill="#CCCCCC" d="M1280.283,518.955h14.422c2.204,0,4.009,1.803,4.009,4.008v15.984
		c0,2.205-1.805,4.009-4.009,4.009h-14.422c-2.205,0-4.01-1.804-4.01-4.009v-15.984
		C1276.273,520.757,1278.078,518.955,1280.283,518.955z"/>
	<path fill-rule="evenodd" clip-rule="evenodd" fill="#CCCCCC" d="M1280.283,547.104h14.422c2.204,0,4.009,1.803,4.009,4.008v15.984
		c0,2.205-1.805,4.008-4.009,4.008h-14.422c-2.205,0-4.01-1.804-4.01-4.008v-15.984
		C1276.273,548.908,1278.078,547.104,1280.283,547.104z"/>
	<path fill-rule="evenodd" clip-rule="evenodd" fill="#CCCCCC" d="M1251.507,411.99h15.878c1.805,0,3.279,1.477,3.279,3.281v11.8
		c0,1.805-1.475,3.281-3.279,3.281h-15.878c-1.805,0-3.28-1.476-3.28-3.281v-11.8C1248.227,413.466,1249.702,411.99,1251.507,411.99
		z"/>
	<path fill-rule="evenodd" clip-rule="evenodd" fill="#CCCCCC" d="M1226.605,434.502h39.772c2.357,0,4.286,1.929,4.286,4.288v15.425
		c0,2.358-1.929,4.288-4.286,4.288h-39.772c-2.355,0-4.287-1.93-4.287-4.288V438.79
		C1222.318,436.432,1224.25,434.502,1226.605,434.502z"/>
	<path fill-rule="evenodd" clip-rule="evenodd" fill="#CCCCCC" d="M1244.863,462.652h21.515c2.357,0,4.286,1.93,4.286,4.289v15.424
		c0,2.357-1.929,4.288-4.286,4.288h-21.515c-2.357,0-4.288-1.93-4.288-4.288v-15.424
		C1240.575,464.583,1242.506,462.652,1244.863,462.652z"/>
	<path fill-rule="evenodd" clip-rule="evenodd" fill="#CCCCCC" d="M1223.444,490.804h42.934c2.358,0,4.286,1.929,4.286,4.288v15.424
		c0,2.358-1.928,4.288-4.286,4.288h-42.934c-2.358,0-4.288-1.929-4.288-4.288v-15.424
		C1219.156,492.733,1221.086,490.804,1223.444,490.804z"/>
	<path fill-rule="evenodd" clip-rule="evenodd" fill="#CCCCCC" d="M1252.235,518.955h14.422c2.204,0,4.007,1.803,4.007,4.008v15.984
		c0,2.205-1.803,4.009-4.007,4.009h-14.422c-2.204,0-4.009-1.804-4.009-4.009v-15.984
		C1248.227,520.757,1250.031,518.955,1252.235,518.955z"/>
	<path fill-rule="evenodd" clip-rule="evenodd" fill="#CCCCCC" d="M1252.235,547.104h14.422c2.204,0,4.007,1.803,4.007,4.008v15.984
		c0,2.205-1.803,4.008-4.007,4.008h-14.422c-2.204,0-4.009-1.804-4.009-4.008v-15.984
		C1248.227,548.908,1250.031,547.104,1252.235,547.104z"/>
	<path fill-rule="evenodd" clip-rule="evenodd" fill="#CCCCCC" d="M1225.6,411.99h13.737c1.804,0,3.28,1.477,3.28,3.281v11.8
		c0,1.805-1.477,3.281-3.28,3.281H1225.6c-1.803,0-3.281-1.476-3.281-3.281v-11.8C1222.318,413.466,1223.797,411.99,1225.6,411.99z"
		/>
	<path fill-rule="evenodd" clip-rule="evenodd" fill="#CCCCCC" d="M1199.269,411.99h13.737c1.805,0,3.28,1.477,3.28,3.281v11.8
		c0,1.805-1.476,3.281-3.28,3.281h-13.737c-1.804,0-3.28-1.476-3.28-3.281v-11.8C1195.988,413.466,1197.465,411.99,1199.269,411.99z
		"/>
	<path fill-rule="evenodd" clip-rule="evenodd" fill="#CCCCCC" d="M1172.938,411.99h13.738c1.805,0,3.28,1.477,3.28,3.281v11.8
		c0,1.805-1.476,3.281-3.28,3.281h-13.738c-1.804,0-3.279-1.476-3.279-3.281v-11.8
		C1169.658,413.466,1171.134,411.99,1172.938,411.99z"/>
	<path fill-rule="evenodd" clip-rule="evenodd" fill="#CCCCCC" d="M1146.607,411.99h13.738c1.803,0,3.278,1.477,3.278,3.281v11.8
		c0,1.805-1.476,3.281-3.278,3.281h-13.738c-1.805,0-3.28-1.476-3.28-3.281v-11.8C1143.327,413.466,1144.803,411.99,1146.607,411.99
		z"/>
	<path fill-rule="evenodd" clip-rule="evenodd" fill="#CCCCCC" d="M1120.277,411.99h13.736c1.804,0,3.279,1.477,3.279,3.281v11.8
		c0,1.805-1.476,3.281-3.279,3.281h-13.736c-1.805,0-3.28-1.476-3.28-3.281v-11.8C1116.997,413.466,1118.473,411.99,1120.277,411.99
		z"/>
	<path fill-rule="evenodd" clip-rule="evenodd" fill="#CCCCCC" d="M1093.946,411.99h13.736c1.804,0,3.28,1.477,3.28,3.281v11.8
		c0,1.805-1.477,3.281-3.28,3.281h-13.736c-1.804,0-3.281-1.476-3.281-3.281v-11.8
		C1090.665,413.466,1092.143,411.99,1093.946,411.99z"/>
	<path fill-rule="evenodd" clip-rule="evenodd" fill="#CCCCCC" d="M1067.615,411.99h13.736c1.805,0,3.281,1.477,3.281,3.281v11.8
		c0,1.805-1.477,3.281-3.281,3.281h-13.736c-1.805,0-3.28-1.476-3.28-3.281v-11.8C1064.335,413.466,1065.811,411.99,1067.615,411.99
		z"/>
	<path fill-rule="evenodd" clip-rule="evenodd" fill="#CCCCCC" d="M1041.284,411.99h13.736c1.805,0,3.281,1.477,3.281,3.281v11.8
		c0,1.805-1.476,3.281-3.281,3.281h-13.736c-1.804,0-3.28-1.476-3.28-3.281v-11.8C1038.004,413.466,1039.48,411.99,1041.284,411.99z
		"/>
	<path fill-rule="evenodd" clip-rule="evenodd" fill="#CCCCCC" d="M1014.954,411.99h13.736c1.805,0,3.28,1.477,3.28,3.281v11.8
		c0,1.805-1.476,3.281-3.28,3.281h-13.736c-1.805,0-3.28-1.476-3.28-3.281v-11.8C1011.673,413.466,1013.149,411.99,1014.954,411.99z
		"/>
	<path fill-rule="evenodd" clip-rule="evenodd" fill="#CCCCCC" d="M988.623,411.99h13.736c1.805,0,3.28,1.477,3.28,3.281v11.8
		c0,1.805-1.476,3.281-3.28,3.281h-13.736c-1.805,0-3.28-1.476-3.28-3.281v-11.8C985.343,413.466,986.818,411.99,988.623,411.99z"/>
	<path fill-rule="evenodd" clip-rule="evenodd" fill="#CCCCCC" d="M962.292,411.99h13.736c1.805,0,3.28,1.477,3.28,3.281v11.8
		c0,1.805-1.476,3.281-3.28,3.281h-13.736c-1.805,0-3.281-1.476-3.281-3.281v-11.8C959.011,413.466,960.487,411.99,962.292,411.99z"
		/>
	<path fill-rule="evenodd" clip-rule="evenodd" fill="#CCCCCC" d="M935.961,411.99h13.737c1.805,0,3.28,1.477,3.28,3.281v11.8
		c0,1.805-1.476,3.281-3.28,3.281h-13.737c-1.804,0-3.28-1.476-3.28-3.281v-11.8C932.681,413.466,934.157,411.99,935.961,411.99z"/>
	<path fill-rule="evenodd" clip-rule="evenodd" fill="#CCCCCC" d="M909.63,411.99h13.737c1.805,0,3.28,1.477,3.28,3.281v11.8
		c0,1.805-1.476,3.281-3.28,3.281H909.63c-1.804,0-3.28-1.476-3.28-3.281v-11.8C906.351,413.466,907.826,411.99,909.63,411.99z"/>
	<path fill-rule="evenodd" clip-rule="evenodd" fill="#CCCCCC" d="M883.299,411.99h13.737c1.805,0,3.281,1.477,3.281,3.281v11.8
		c0,1.805-1.476,3.281-3.281,3.281h-13.737c-1.804,0-3.279-1.476-3.279-3.281v-11.8C880.02,413.466,881.496,411.99,883.299,411.99z"
		/>
	<path fill-rule="evenodd" clip-rule="evenodd" fill="#CCCCCC" d="M853.721,411.99H869.6c1.804,0,3.28,1.477,3.28,3.281v11.8
		c0,1.805-1.477,3.281-3.28,3.281h-15.879c-1.805,0-3.28-1.476-3.28-3.281v-11.8C850.44,413.466,851.916,411.99,853.721,411.99z"/>
	<path fill-rule="evenodd" clip-rule="evenodd" fill="#CCCCCC" d="M1198.199,434.503h14.152c2.164,0,3.934,1.771,3.934,3.933v16.133
		c0,2.163-1.77,3.935-3.934,3.935h-14.152c-2.166,0-3.936-1.771-3.936-3.935v-16.133
		C1194.264,436.273,1196.033,434.503,1198.199,434.503z"/>
	<path fill-rule="evenodd" clip-rule="evenodd" fill="#CCCCCC" d="M1169.631,434.503h14.152c2.166,0,3.936,1.771,3.936,3.933v16.133
		c0,2.163-1.77,3.935-3.936,3.935h-14.152c-2.166,0-3.936-1.771-3.936-3.935v-16.133
		C1165.695,436.273,1167.465,434.503,1169.631,434.503z"/>
	<path fill-rule="evenodd" clip-rule="evenodd" fill="#CCCCCC" d="M1141.062,434.503h14.152c2.166,0,3.936,1.771,3.936,3.933v16.133
		c0,2.163-1.77,3.935-3.936,3.935h-14.152c-2.164,0-3.934-1.771-3.934-3.935v-16.133
		C1137.129,436.273,1138.898,434.503,1141.062,434.503z"/>
	<path fill-rule="evenodd" clip-rule="evenodd" fill="#CCCCCC" d="M1112.495,434.503h14.153c2.164,0,3.934,1.771,3.934,3.933v16.133
		c0,2.163-1.77,3.935-3.934,3.935h-14.153c-2.165,0-3.935-1.771-3.935-3.935v-16.133
		C1108.561,436.273,1110.33,434.503,1112.495,434.503z"/>
	<path fill-rule="evenodd" clip-rule="evenodd" fill="#CCCCCC" d="M1083.927,434.503h14.153c2.165,0,3.935,1.771,3.935,3.933v16.133
		c0,2.163-1.77,3.935-3.935,3.935h-14.153c-2.163,0-3.935-1.771-3.935-3.935v-16.133
		C1079.992,436.273,1081.764,434.503,1083.927,434.503z"/>
	<path fill-rule="evenodd" clip-rule="evenodd" fill="#CCCCCC" d="M1055.359,434.503h14.153c2.164,0,3.934,1.771,3.934,3.933v16.133
		c0,2.163-1.77,3.935-3.934,3.935h-14.153c-2.164,0-3.934-1.771-3.934-3.935v-16.133
		C1051.426,436.273,1053.195,434.503,1055.359,434.503z"/>
	<path fill-rule="evenodd" clip-rule="evenodd" fill="#CCCCCC" d="M1026.792,434.503h14.153c2.164,0,3.934,1.771,3.934,3.933v16.133
		c0,2.163-1.77,3.935-3.934,3.935h-14.153c-2.165,0-3.935-1.771-3.935-3.935v-16.133
		C1022.857,436.273,1024.627,434.503,1026.792,434.503z"/>
	<path fill-rule="evenodd" clip-rule="evenodd" fill="#CCCCCC" d="M998.224,434.503h14.154c2.164,0,3.934,1.771,3.934,3.933v16.133
		c0,2.163-1.77,3.935-3.934,3.935h-14.154c-2.164,0-3.934-1.771-3.934-3.935v-16.133C994.29,436.273,996.06,434.503,998.224,434.503
		z"/>
	<path fill-rule="evenodd" clip-rule="evenodd" fill="#CCCCCC" d="M969.657,434.503h14.153c2.165,0,3.934,1.771,3.934,3.933v16.133
		c0,2.163-1.77,3.935-3.934,3.935h-14.153c-2.165,0-3.935-1.771-3.935-3.935v-16.133
		C965.722,436.273,967.492,434.503,969.657,434.503z"/>
	<path fill-rule="evenodd" clip-rule="evenodd" fill="#CCCCCC" d="M941.089,434.503h14.153c2.165,0,3.935,1.771,3.935,3.933v16.133
		c0,2.163-1.77,3.935-3.935,3.935h-14.153c-2.165,0-3.935-1.771-3.935-3.935v-16.133
		C937.154,436.273,938.924,434.503,941.089,434.503z"/>
	<path fill-rule="evenodd" clip-rule="evenodd" fill="#CCCCCC" d="M912.521,434.503h14.153c2.165,0,3.934,1.771,3.934,3.933v16.133
		c0,2.163-1.77,3.935-3.934,3.935h-14.153c-2.164,0-3.934-1.771-3.934-3.935v-16.133
		C908.587,436.273,910.357,434.503,912.521,434.503z"/>
	<path fill-rule="evenodd" clip-rule="evenodd" fill="#CCCCCC" d="M883.954,434.503h14.153c2.164,0,3.934,1.771,3.934,3.933v16.133
		c0,2.163-1.77,3.935-3.934,3.935h-14.153c-2.164,0-3.934-1.771-3.934-3.935v-16.133C880.02,436.273,881.79,434.503,883.954,434.503
		z"/>
	<path fill-rule="evenodd" clip-rule="evenodd" fill="#CCCCCC" d="M854.449,434.503h14.422c2.205,0,4.009,1.803,4.009,4.008v15.984
		c0,2.205-1.804,4.009-4.009,4.009h-14.422c-2.205,0-4.009-1.804-4.009-4.009v-15.984
		C850.44,436.306,852.245,434.503,854.449,434.503z"/>
	<path fill-rule="evenodd" clip-rule="evenodd" fill="#CCCCCC" d="M854.728,462.652h29.675c2.358,0,4.287,1.93,4.287,4.289v15.424
		c0,2.358-1.929,4.288-4.287,4.288h-29.675c-2.358,0-4.287-1.929-4.287-4.288v-15.424
		C850.44,464.583,852.37,462.652,854.728,462.652z"/>
	<path fill-rule="evenodd" clip-rule="evenodd" fill="#CCCCCC" d="M854.728,490.804h35.282c2.358,0,4.288,1.929,4.288,4.288v15.425
		c0,2.358-1.93,4.287-4.288,4.287h-35.282c-2.357,0-4.288-1.929-4.288-4.287v-15.425
		C850.44,492.733,852.371,490.804,854.728,490.804z"/>
	<path fill-rule="evenodd" clip-rule="evenodd" fill="#CCCCCC" d="M854.728,518.955h50.582c2.359,0,4.288,1.929,4.288,4.288v15.424
		c0,2.358-1.929,4.289-4.288,4.289h-50.582c-2.359,0-4.288-1.93-4.288-4.289v-15.424
		C850.44,520.884,852.369,518.955,854.728,518.955z"/>
	<path fill-rule="evenodd" clip-rule="evenodd" fill="#CCCCCC" d="M854.728,547.104h21.003c2.359,0,4.289,1.93,4.289,4.288v15.424
		c0,2.358-1.93,4.289-4.289,4.289h-21.003c-2.359,0-4.288-1.93-4.288-4.289v-15.424C850.44,549.034,852.369,547.104,854.728,547.104
		z"/>
	<path fill-rule="evenodd" clip-rule="evenodd" fill="#CCCCCC" d="M896.472,462.652h15.158c2.317,0,4.213,1.896,4.213,4.214v15.574
		c0,2.318-1.896,4.213-4.213,4.213h-15.158c-2.317,0-4.213-1.895-4.213-4.213v-15.574
		C892.259,464.548,894.154,462.652,896.472,462.652z"/>
	<path fill-rule="evenodd" clip-rule="evenodd" fill="#CCCCCC" d="M925.575,462.652h15.159c2.317,0,4.213,1.896,4.213,4.214v15.574
		c0,2.318-1.896,4.213-4.213,4.213h-15.159c-2.318,0-4.213-1.895-4.213-4.213v-15.574
		C921.362,464.548,923.257,462.652,925.575,462.652z"/>
	<path fill-rule="evenodd" clip-rule="evenodd" fill="#CCCCCC" d="M954.68,462.652h15.158c2.317,0,4.213,1.896,4.213,4.214v15.574
		c0,2.318-1.896,4.213-4.213,4.213H954.68c-2.318,0-4.213-1.895-4.213-4.213v-15.574
		C950.466,464.548,952.361,462.652,954.68,462.652z"/>
	<path fill-rule="evenodd" clip-rule="evenodd" fill="#CCCCCC" d="M983.783,462.652h15.158c2.317,0,4.213,1.896,4.213,4.214v15.574
		c0,2.318-1.896,4.213-4.213,4.213h-15.158c-2.317,0-4.213-1.895-4.213-4.213v-15.574
		C979.57,464.548,981.466,462.652,983.783,462.652z"/>
	<path fill-rule="evenodd" clip-rule="evenodd" fill="#CCCCCC" d="M1012.887,462.652h15.158c2.317,0,4.213,1.896,4.213,4.214v15.574
		c0,2.318-1.896,4.213-4.213,4.213h-15.158c-2.317,0-4.213-1.895-4.213-4.213v-15.574
		C1008.674,464.548,1010.57,462.652,1012.887,462.652z"/>
	<path fill-rule="evenodd" clip-rule="evenodd" fill="#CCCCCC" d="M1041.991,462.652h15.158c2.317,0,4.213,1.896,4.213,4.214v15.574
		c0,2.318-1.896,4.213-4.213,4.213h-15.158c-2.317,0-4.213-1.895-4.213-4.213v-15.574
		C1037.778,464.548,1039.674,462.652,1041.991,462.652z"/>
	<path fill-rule="evenodd" clip-rule="evenodd" fill="#CCCCCC" d="M1071.095,462.652h15.159c2.316,0,4.212,1.896,4.212,4.214v15.574
		c0,2.318-1.896,4.213-4.212,4.213h-15.159c-2.317,0-4.213-1.895-4.213-4.213v-15.574
		C1066.882,464.548,1068.777,462.652,1071.095,462.652z"/>
	<path fill-rule="evenodd" clip-rule="evenodd" fill="#CCCCCC" d="M1100.199,462.652h15.157c2.317,0,4.214,1.896,4.214,4.214v15.574
		c0,2.318-1.896,4.213-4.214,4.213h-15.157c-2.318,0-4.213-1.895-4.213-4.213v-15.574
		C1095.986,464.548,1097.881,462.652,1100.199,462.652z"/>
	<path fill-rule="evenodd" clip-rule="evenodd" fill="#CCCCCC" d="M1129.304,462.652h15.157c2.316,0,4.213,1.896,4.213,4.214v15.574
		c0,2.318-1.896,4.213-4.213,4.213h-15.157c-2.319,0-4.214-1.895-4.214-4.213v-15.574
		C1125.09,464.548,1126.984,462.652,1129.304,462.652z"/>
	<path fill-rule="evenodd" clip-rule="evenodd" fill="#CCCCCC" d="M1158.406,462.652h15.158c2.316,0,4.214,1.896,4.214,4.214v15.574
		c0,2.318-1.897,4.213-4.214,4.213h-15.158c-2.316,0-4.213-1.895-4.213-4.213v-15.574
		C1154.193,464.548,1156.09,462.652,1158.406,462.652z"/>
	<path fill-rule="evenodd" clip-rule="evenodd" fill="#CCCCCC" d="M1187.51,462.652h15.158c2.318,0,4.214,1.896,4.214,4.214v15.574
		c0,2.318-1.896,4.213-4.214,4.213h-15.158c-2.317,0-4.212-1.895-4.212-4.213v-15.574
		C1183.298,464.548,1185.192,462.652,1187.51,462.652z"/>
	<path fill-rule="evenodd" clip-rule="evenodd" fill="#CCCCCC" d="M1216.615,462.652h15.158c2.316,0,4.213,1.896,4.213,4.214v15.574
		c0,2.318-1.896,4.213-4.213,4.213h-15.158c-2.318,0-4.214-1.895-4.214-4.213v-15.574
		C1212.401,464.548,1214.297,462.652,1216.615,462.652z"/>
	<path fill-rule="evenodd" clip-rule="evenodd" fill="#CCCCCC" d="M904.568,490.804h15.158c2.317,0,4.213,1.895,4.213,4.214v15.573
		c0,2.318-1.896,4.213-4.213,4.213h-15.158c-2.318,0-4.213-1.895-4.213-4.213v-15.573
		C900.355,492.699,902.25,490.804,904.568,490.804z"/>
	<path fill-rule="evenodd" clip-rule="evenodd" fill="#CCCCCC" d="M933.672,490.804h15.158c2.318,0,4.214,1.895,4.214,4.214v15.573
		c0,2.318-1.896,4.213-4.214,4.213h-15.158c-2.318,0-4.213-1.895-4.213-4.213v-15.573
		C929.459,492.699,931.354,490.804,933.672,490.804z"/>
	<path fill-rule="evenodd" clip-rule="evenodd" fill="#CCCCCC" d="M962.776,490.804h15.159c2.316,0,4.213,1.895,4.213,4.214v15.573
		c0,2.318-1.896,4.213-4.213,4.213h-15.159c-2.318,0-4.213-1.895-4.213-4.213v-15.573
		C958.563,492.699,960.458,490.804,962.776,490.804z"/>
	<path fill-rule="evenodd" clip-rule="evenodd" fill="#CCCCCC" d="M991.88,490.804h15.158c2.317,0,4.213,1.895,4.213,4.214v15.573
		c0,2.318-1.896,4.213-4.213,4.213H991.88c-2.318,0-4.213-1.895-4.213-4.213v-15.573
		C987.667,492.699,989.562,490.804,991.88,490.804z"/>
	<path fill-rule="evenodd" clip-rule="evenodd" fill="#CCCCCC" d="M1020.984,490.804h15.158c2.317,0,4.213,1.895,4.213,4.214v15.573
		c0,2.318-1.896,4.213-4.213,4.213h-15.158c-2.318,0-4.214-1.895-4.214-4.213v-15.573
		C1016.77,492.699,1018.666,490.804,1020.984,490.804z"/>
	<path fill-rule="evenodd" clip-rule="evenodd" fill="#CCCCCC" d="M1050.088,490.804h15.158c2.316,0,4.213,1.895,4.213,4.214v15.573
		c0,2.318-1.896,4.213-4.213,4.213h-15.158c-2.318,0-4.214-1.895-4.214-4.213v-15.573
		C1045.874,492.699,1047.77,490.804,1050.088,490.804z"/>
	<path fill-rule="evenodd" clip-rule="evenodd" fill="#CCCCCC" d="M1079.191,490.804h15.158c2.317,0,4.213,1.895,4.213,4.214v15.573
		c0,2.318-1.896,4.213-4.213,4.213h-15.158c-2.318,0-4.214-1.895-4.214-4.213v-15.573
		C1074.978,492.699,1076.873,490.804,1079.191,490.804z"/>
	<path fill-rule="evenodd" clip-rule="evenodd" fill="#CCCCCC" d="M1108.296,490.804h15.158c2.316,0,4.212,1.895,4.212,4.214v15.573
		c0,2.318-1.896,4.213-4.212,4.213h-15.158c-2.319,0-4.214-1.895-4.214-4.213v-15.573
		C1104.082,492.699,1105.977,490.804,1108.296,490.804z"/>
	<path fill-rule="evenodd" clip-rule="evenodd" fill="#CCCCCC" d="M1137.399,490.804h15.158c2.317,0,4.214,1.895,4.214,4.214v15.573
		c0,2.318-1.896,4.213-4.214,4.213h-15.158c-2.317,0-4.214-1.895-4.214-4.213v-15.573
		C1133.186,492.699,1135.082,490.804,1137.399,490.804z"/>
	<path fill-rule="evenodd" clip-rule="evenodd" fill="#CCCCCC" d="M1166.503,490.804h15.159c2.316,0,4.213,1.895,4.213,4.214v15.573
		c0,2.318-1.896,4.213-4.213,4.213h-15.159c-2.317,0-4.212-1.895-4.212-4.213v-15.573
		C1162.291,492.699,1164.186,490.804,1166.503,490.804z"/>
	<path fill-rule="evenodd" clip-rule="evenodd" fill="#CCCCCC" d="M1195.607,490.804h15.158c2.316,0,4.213,1.895,4.213,4.214v15.573
		c0,2.318-1.896,4.213-4.213,4.213h-15.158c-2.318,0-4.214-1.895-4.214-4.213v-15.573
		C1191.394,492.699,1193.289,490.804,1195.607,490.804z"/>
	<path fill-rule="evenodd" clip-rule="evenodd" fill="#CCCCCC" d="M919.806,518.955h15.158c2.317,0,4.213,1.895,4.213,4.213v15.573
		c0,2.317-1.896,4.214-4.213,4.214h-15.158c-2.318,0-4.213-1.896-4.213-4.214v-15.573
		C915.593,520.85,917.487,518.955,919.806,518.955z"/>
	<path fill-rule="evenodd" clip-rule="evenodd" fill="#CCCCCC" d="M948.91,518.955h15.158c2.317,0,4.213,1.895,4.213,4.213v15.573
		c0,2.317-1.896,4.214-4.213,4.214H948.91c-2.318,0-4.213-1.896-4.213-4.214v-15.573C944.696,520.85,946.591,518.955,948.91,518.955
		z"/>
	<path fill-rule="evenodd" clip-rule="evenodd" fill="#CCCCCC" d="M978.013,518.955h15.159c2.316,0,4.213,1.895,4.213,4.213v15.573
		c0,2.317-1.897,4.214-4.213,4.214h-15.159c-2.318,0-4.213-1.896-4.213-4.214v-15.573C973.8,520.85,975.695,518.955,978.013,518.955
		z"/>
	<path fill-rule="evenodd" clip-rule="evenodd" fill="#CCCCCC" d="M1007.117,518.955h15.158c2.317,0,4.214,1.895,4.214,4.213v15.573
		c0,2.317-1.897,4.214-4.214,4.214h-15.158c-2.318,0-4.213-1.896-4.213-4.214v-15.573
		C1002.904,520.85,1004.799,518.955,1007.117,518.955z"/>
	<path fill-rule="evenodd" clip-rule="evenodd" fill="#CCCCCC" d="M1036.221,518.955h15.158c2.317,0,4.214,1.895,4.214,4.213v15.573
		c0,2.317-1.896,4.214-4.214,4.214h-15.158c-2.318,0-4.214-1.896-4.214-4.214v-15.573
		C1032.007,520.85,1033.903,518.955,1036.221,518.955z"/>
	<path fill-rule="evenodd" clip-rule="evenodd" fill="#CCCCCC" d="M1065.325,518.955h15.157c2.318,0,4.214,1.895,4.214,4.213v15.573
		c0,2.317-1.896,4.214-4.214,4.214h-15.157c-2.318,0-4.213-1.896-4.213-4.214v-15.573
		C1061.112,520.85,1063.007,518.955,1065.325,518.955z"/>
	<path fill-rule="evenodd" clip-rule="evenodd" fill="#CCCCCC" d="M1094.43,518.955h15.158c2.315,0,4.211,1.895,4.211,4.213v15.573
		c0,2.317-1.896,4.214-4.211,4.214h-15.158c-2.318,0-4.214-1.896-4.214-4.214v-15.573
		C1090.216,520.85,1092.111,518.955,1094.43,518.955z"/>
	<path fill-rule="evenodd" clip-rule="evenodd" fill="#CCCCCC" d="M1123.533,518.955h15.157c2.317,0,4.214,1.895,4.214,4.213v15.573
		c0,2.317-1.896,4.214-4.214,4.214h-15.157c-2.318,0-4.213-1.896-4.213-4.214v-15.573
		C1119.32,520.85,1121.215,518.955,1123.533,518.955z"/>
	<path fill-rule="evenodd" clip-rule="evenodd" fill="#CCCCCC" d="M1152.637,518.955h15.158c2.316,0,4.213,1.895,4.213,4.213v15.573
		c0,2.317-1.896,4.214-4.213,4.214h-15.158c-2.318,0-4.213-1.896-4.213-4.214v-15.573
		C1148.424,520.85,1150.318,518.955,1152.637,518.955z"/>
	<path fill-rule="evenodd" clip-rule="evenodd" fill="#CCCCCC" d="M1181.74,518.955h15.158c2.316,0,4.214,1.895,4.214,4.213v15.573
		c0,2.317-1.897,4.214-4.214,4.214h-15.158c-2.317,0-4.213-1.896-4.213-4.214v-15.573
		C1177.527,520.85,1179.423,518.955,1181.74,518.955z"/>
	<path fill-rule="evenodd" clip-rule="evenodd" fill="#CCCCCC" d="M1210.92,518.955h27.408c2.357,0,4.287,1.929,4.287,4.288v15.424
		c0,2.358-1.93,4.289-4.287,4.289h-27.408c-2.359,0-4.289-1.93-4.289-4.289v-15.424
		C1206.631,520.884,1208.561,518.955,1210.92,518.955z"/>
	<path fill-rule="evenodd" clip-rule="evenodd" fill="#CCCCCC" d="M890.228,547.104h15.158c2.317,0,4.213,1.896,4.213,4.213v15.573
		c0,2.318-1.896,4.214-4.213,4.214h-15.158c-2.317,0-4.213-1.896-4.213-4.214v-15.573C886.015,549,887.91,547.104,890.228,547.104z"
		/>
	<path fill-rule="evenodd" clip-rule="evenodd" fill="#CCCCCC" d="M919.332,547.104h15.159c2.316,0,4.212,1.896,4.212,4.213v15.573
		c0,2.318-1.896,4.214-4.212,4.214h-15.159c-2.317,0-4.213-1.896-4.213-4.214v-15.573C915.119,549,917.014,547.104,919.332,547.104z
		"/>
	<path fill-rule="evenodd" clip-rule="evenodd" fill="#CCCCCC" d="M948.436,547.104h15.158c2.317,0,4.214,1.896,4.214,4.213v15.573
		c0,2.318-1.897,4.214-4.214,4.214h-15.158c-2.318,0-4.213-1.896-4.213-4.214v-15.573C944.223,549,946.117,547.104,948.436,547.104z
		"/>
	<path fill-rule="evenodd" clip-rule="evenodd" fill="#CCCCCC" d="M977.54,547.104h15.158c2.317,0,4.213,1.896,4.213,4.213v15.573
		c0,2.318-1.896,4.214-4.213,4.214H977.54c-2.317,0-4.213-1.896-4.213-4.214v-15.573C973.326,549,975.222,547.104,977.54,547.104z"
		/>
	<path fill-rule="evenodd" clip-rule="evenodd" fill="#CCCCCC" d="M1006.643,547.104h15.159c2.316,0,4.213,1.896,4.213,4.213v15.573
		c0,2.318-1.896,4.214-4.213,4.214h-15.159c-2.318,0-4.213-1.896-4.213-4.214v-15.573
		C1002.43,549,1004.325,547.104,1006.643,547.104z"/>
	<path fill-rule="evenodd" clip-rule="evenodd" fill="#CCCCCC" d="M1035.747,547.104h15.158c2.317,0,4.213,1.896,4.213,4.213v15.573
		c0,2.318-1.896,4.214-4.213,4.214h-15.158c-2.317,0-4.213-1.896-4.213-4.214v-15.573
		C1031.534,549,1033.43,547.104,1035.747,547.104z"/>
	<path fill-rule="evenodd" clip-rule="evenodd" fill="#CCCCCC" d="M1064.852,547.104h15.158c2.316,0,4.214,1.896,4.214,4.213v15.573
		c0,2.318-1.897,4.214-4.214,4.214h-15.158c-2.318,0-4.214-1.896-4.214-4.214v-15.573
		C1060.638,549,1062.533,547.104,1064.852,547.104z"/>
	<path fill-rule="evenodd" clip-rule="evenodd" fill="#CCCCCC" d="M1093.955,547.104h15.158c2.317,0,4.214,1.896,4.214,4.213v15.573
		c0,2.318-1.896,4.214-4.214,4.214h-15.158c-2.317,0-4.213-1.896-4.213-4.214v-15.573
		C1089.742,549,1091.638,547.104,1093.955,547.104z"/>
	<path fill-rule="evenodd" clip-rule="evenodd" fill="#CCCCCC" d="M1123.059,547.104h15.158c2.317,0,4.213,1.896,4.213,4.213v15.573
		c0,2.318-1.896,4.214-4.213,4.214h-15.158c-2.318,0-4.213-1.896-4.213-4.214v-15.573
		C1118.846,549,1120.74,547.104,1123.059,547.104z"/>
	<path fill-rule="evenodd" clip-rule="evenodd" fill="#CCCCCC" d="M1152.163,547.104h15.158c2.316,0,4.214,1.896,4.214,4.213v15.573
		c0,2.318-1.897,4.214-4.214,4.214h-15.158c-2.319,0-4.214-1.896-4.214-4.214v-15.573
		C1147.949,549,1149.844,547.104,1152.163,547.104z"/>
	<path fill-rule="evenodd" clip-rule="evenodd" fill="#CCCCCC" d="M1181.341,547.104h27.409c2.358,0,4.288,1.93,4.288,4.288v15.424
		c0,2.358-1.93,4.289-4.288,4.289h-27.409c-2.358,0-4.288-1.93-4.288-4.289v-15.424
		C1177.053,549.034,1178.982,547.104,1181.341,547.104z"/>
	<path fill-rule="evenodd" clip-rule="evenodd" fill="#CCCCCC" d="M1224.186,547.104h14.422c2.203,0,4.008,1.803,4.008,4.008v15.984
		c0,2.205-1.805,4.008-4.008,4.008h-14.422c-2.205,0-4.008-1.804-4.008-4.008v-15.984
		C1220.178,548.908,1221.98,547.104,1224.186,547.104z"/>
	<path fill-rule="evenodd" clip-rule="evenodd" fill="#CCCCCC" d="M996.721,591.295h151.238c2.306,0,4.193,1.886,4.193,4.193v72.718
		c0,2.307-1.888,4.192-4.193,4.192H996.721c-2.307,0-4.193-1.886-4.193-4.192v-72.718
		C992.528,593.181,994.414,591.295,996.721,591.295z"/>
	<path fill-rule="evenodd" clip-rule="evenodd" fill="#CCCCCC" d="M993.397,677.833h75.219c0.479,0,0.87,0.391,0.87,0.87v15.104
		c0,0.479-0.391,0.87-0.87,0.87h-75.219c-0.479,0-0.869-0.391-0.869-0.87v-15.104C992.528,678.224,992.917,677.833,993.397,677.833z
		"/>
	<path fill-rule="evenodd" clip-rule="evenodd" fill="#CCCCCC" d="M1076.062,677.833h75.219c0.48,0,0.871,0.391,0.871,0.87v15.104
		c0,0.479-0.391,0.87-0.871,0.87h-75.219c-0.48,0-0.869-0.391-0.869-0.87v-15.104
		C1075.193,678.224,1075.582,677.833,1076.062,677.833z"/>
	<polygon fill-rule="evenodd" clip-rule="evenodd" fill="#4D4D4D" points="796.068,291.506 1311.666,350.246 1347.304,291.506 	"/>
</g>
<g>
	<path fill-rule="evenodd" clip-rule="evenodd" fill="#254659" d="M1042.947,790.227c35.692,6.357,158.754,41.734,177.069,49.959
		c18.313,8.224,15.712,32.285,13.783,41.924c-1.932,9.638-13.846,10.065-10.578-6.246c3.266-16.311,3.614-25.434-7.557-28.714
		c-11.173-3.28-163.056-42.408-173.659-44.835C1031.402,799.888,1035.927,788.361,1042.947,790.227z"/>
	<path fill-rule="evenodd" clip-rule="evenodd" fill="#254659" d="M1246.688,831.032c-35.387-7.878-162.582-22.623-182.65-22.087
		c-20.068,0.535-26.935,23.744-28.865,33.383c-1.93,9.639,8.901,14.62,12.168-1.69c3.267-16.312,6.458-24.864,18.031-23.589
		c11.574,1.275,166.812,23.658,177.531,25.5C1253.622,844.395,1253.884,832.014,1246.688,831.032z"/>
	<path fill-rule="evenodd" clip-rule="evenodd" d="M1195.518,889.571c24.694,1.607,32.929-8.516,38.295-22.065
		c6.313-15.944,7.51-21.701,12.379-22.309c3.572-0.445,5.02-4.003,5.631-8.363c0.609-4.362,0.539-4.858-4.766-7.812
		c-4.436-2.472-31.436-10.251-50.246-12.438c-0.428-0.049-0.859-0.095-1.293-0.138v4.526c15.963,1.928,31.813,6.883,35.77,10.428
		c8.288,7.43,1.133,33.71-8.836,45.432c-5.535,6.509-16.27,8.975-26.934,8.466V889.571z M1143.767,814.664
		c-6.364-1.129-31.1-13.351-49.284-18.573c-2.883-0.827-6.01-1.605-9.252-2.325v4.711c16.211,3.454,33.863,10.132,38.354,19.527
		c6.689,13.998-13.956,40.717-29.221,44.514c-2.704,0.673-5.82,0.916-9.133,0.773v4.34c19.351,0.762,29.086-11.328,32.614-15.705
		c7.507-9.31,8.71-23.975,22.905-21.132c14.193,2.843,9.961,16.638,13.303,28.12c1.872,6.439,7.365,26.626,35.892,30.13
		c1.946,0.24,3.801,0.413,5.573,0.527v-4.272c-9.27-0.441-18.483-3.13-24.18-7.365c-12.624-9.383-21.388-41.99-9.822-52.332
		c6.374-5.7,20.229-6.29,34.002-4.628v-4.526C1178.914,814.767,1158.357,817.253,1143.767,814.664z M1085.23,793.766
		c-17.22-3.825-37.662-6.028-41.909-5.547c-6.032,0.684-6.288,1.112-7.404,5.373c-1.116,4.259-1.15,8.102,1.975,9.889
		c4.259,2.434,3.146,8.206,2.833,25.354c-0.285,15.617,3.981,28.87,32.189,36.771c4.481,1.255,8.578,1.879,12.316,2.025v-4.34
		c-14.827-0.642-33.637-9.04-37.613-21.475c-4.686-14.655-1.169-41.664,9.343-45.33c4.073-1.419,15.743-0.678,28.27,1.99V793.766z"
		/>
	<path fill-rule="evenodd" clip-rule="evenodd" fill="#B0CAD9" d="M1056.96,796.486c9.344-3.257,58.663,4.861,66.624,21.518
		c6.689,13.998-13.956,40.717-29.221,44.514c-14.812,3.687-41.881-5.488-46.746-20.701
		C1042.932,827.161,1046.449,800.152,1056.96,796.486L1056.96,796.486z M1231.287,831.401c-7.369-6.604-56.011-18.106-69.771-5.8
		c-11.565,10.342-2.802,42.949,9.822,52.332c12.25,9.106,40.766,11.066,51.113-1.101
		C1232.42,865.111,1239.575,838.831,1231.287,831.401z"/>
	<g>
		<path fill-rule="evenodd" clip-rule="evenodd" fill="#D1E2EB" d="M1061.979,795.8c15.676-0.477,54.609,7.567,61.605,22.204
			c4.691,9.817-4.062,25.892-14.977,35.928L1061.979,795.8z"/>
		<path fill-rule="evenodd" clip-rule="evenodd" fill="#D1E2EB" d="M1170.503,821.405l47.493,59.208
			c1.707-1.065,3.213-2.32,4.455-3.78c9.969-11.722,17.124-38.002,8.836-45.432C1225.1,825.854,1189.803,816.857,1170.503,821.405z"
			/>
	</g>
	<path fill-rule="evenodd" clip-rule="evenodd" fill="#617F91" d="M1220.246,826.307c-12.395-1.931-27.061-3.979-42.394-5.967
		c-4.369,0.313-8.33,1.065-11.552,2.381l0,0l-0.088,0.037l-0.024,0.01l-0.062,0.026l-0.086,0.036l-0.086,0.038h-0.002l-0.084,0.036
		l-0.086,0.036l-0.062,0.027l-0.023,0.011l-0.169,0.075l-0.039,0.02l-0.044,0.021l-0.084,0.039l-0.083,0.039l-0.016,0.006
		l-0.067,0.033l-0.082,0.039l-0.076,0.037l-0.006,0.002l-0.082,0.04l-0.081,0.04l-0.052,0.026l-0.029,0.017l-0.08,0.039l-0.08,0.042
		l-0.03,0.015l-0.05,0.027l-0.08,0.042l-0.019,0.011l-0.13,0.068l-0.007,0.004l-0.079,0.044l-0.063,0.035l-0.013,0.009l-0.078,0.042
		l-0.078,0.043l-0.041,0.023l-0.034,0.021l-0.075,0.045l-0.076,0.044l-0.076,0.045l-0.073,0.045l-0.075,0.045l0,0l-0.074,0.045
		l-0.074,0.047l-0.073,0.047l-0.073,0.046l-0.07,0.047l-0.033,0.021l-0.04,0.026l-0.071,0.047l-0.071,0.048l-0.013,0.009
		l-0.059,0.039l-0.119,0.083l-0.013,0.009l-0.007,0.006l-0.014,0.009l-0.125,0.089l-0.044,0.031l-0.024,0.018l-0.068,0.051
		l-0.068,0.05l-0.023,0.019l-0.043,0.032l-0.067,0.051l-0.065,0.051l-0.008,0.005l-0.058,0.046l-0.067,0.053l-0.052,0.042
		l-0.012,0.009l-0.005,0.003l-0.125,0.104l-0.034,0.029l-0.028,0.022l-0.126,0.106l-0.017,0.017l-0.168,0.146l-0.064,0.058
		l-0.02,0.02l-0.044,0.039l-0.04,0.036l-0.023,0.021l-0.059,0.056l-0.003,0.003l-0.062,0.06l-0.018,0.017l-0.045,0.045l-0.036,0.034
		l-0.025,0.025l-0.055,0.055l-0.006,0.006l-0.062,0.062l-0.013,0.013l-0.047,0.048l-0.031,0.032l-0.028,0.03l-0.051,0.053
		l-0.007,0.01l-0.061,0.062c-1.396,1.501-2.447,3.368-3.188,5.499c29.369,7.607,53.894,14.021,58.135,15.266
		c11.171,3.28,10.822,12.403,7.557,28.714l-0.008,0.036c4.201-5.327,7.827-13.16,9.889-20.887
		c-2.082-6.14-6.031-11.659-13.086-14.827c-1.066-0.48-2.49-1.051-4.232-1.703c7.771,1.139,14.329,2.109,19.108,2.826
		c-0.182-4.286-1.29-7.832-3.604-9.907C1229.556,829.85,1225.545,828.028,1220.246,826.307L1220.246,826.307z M1069.129,796.04
		c12.171,2.988,26.479,6.739,41.388,10.807c3.92,1.977,7.294,4.201,9.765,6.663h0.002l0.064,0.067l0.01,0.009
		c0.107,0.107,0.213,0.216,0.318,0.325l0.037,0.041l0.026,0.027l0.062,0.067l0.063,0.066l0.021,0.021l0.042,0.047l0.061,0.068
		l0.063,0.068l0.002,0.003l0.059,0.063l0.06,0.068l0.048,0.055l0.014,0.014l0.059,0.068l0.061,0.068l0.03,0.037l0.027,0.031
		l0.058,0.068l0.059,0.07l0.016,0.018l0.043,0.051l0.057,0.069l0.057,0.068l0,0l0.055,0.07l0.057,0.069l0.039,0.05l0.016,0.019
		l0.055,0.07l0.053,0.069l0.055,0.07l0.053,0.069l0.054,0.07l0.009,0.014l0.042,0.057l0.051,0.07l0.05,0.065l0.003,0.004
		l0.051,0.071l0.05,0.071l0.033,0.047l0.016,0.023l0.05,0.071l0.048,0.071l0.02,0.027l0.029,0.044l0.047,0.069l0.049,0.073
		l0.006,0.008l0.04,0.062l0.045,0.071l0.04,0.062l0.007,0.01l0.045,0.073l0.044,0.071l0.027,0.042l0.018,0.03l0.043,0.071
		l0.044,0.073l0.013,0.024l0.028,0.048l0.042,0.071l0.042,0.073l0.003,0.005l0.038,0.068l0.039,0.073l0.034,0.058l0.007,0.014
		l0.039,0.074l0.06,0.111l0.02,0.034l0.074,0.146l0.01,0.021l0.025,0.054l0.072,0.146l0.035,0.079l0.014,0.024l0.023,0.054
		l0.023,0.05l0.013,0.027l0.034,0.076l0.001,0.002l0.034,0.079l0.011,0.021l0.023,0.059l0.021,0.046l0.013,0.032l0.03,0.073
		l0.002,0.007l0.033,0.078l0.008,0.02l0.024,0.061l0.062,0.162l0.029,0.079l0.006,0.017l0.023,0.065
		c0.688,1.901,0.932,4.001,0.797,6.226c-30.01-4.284-55.082-7.808-59.473-8.292c-11.573-1.275-14.765,7.277-18.031,23.589
		l-0.031,0.146c-1.849-6.524-2.194-15.167-1.127-23.117c4.292-4.904,10.083-8.514,17.856-8.722c1.17-0.031,2.704-0.01,4.562,0.058
		c-7.642-1.947-14.088-3.585-18.781-4.763c1.819-3.886,4.207-6.73,7.142-7.754C1059.157,795.722,1063.567,795.585,1069.129,796.04z"
		/>
	<g>
		<path fill-rule="evenodd" clip-rule="evenodd" fill="#8097A6" d="M1061.978,795.8l18.687,23.296
			c11.013,1.528,26.764,3.758,44.18,6.245c0.135-2.225-0.109-4.324-0.797-6.226l-0.023-0.065l-0.006-0.017l-0.029-0.079
			l-0.062-0.162l-0.024-0.061l-0.008-0.02l-0.033-0.078l-0.002-0.007l-0.03-0.073l-0.013-0.032l-0.021-0.046l-0.023-0.059
			l-0.011-0.021l-0.034-0.079l-0.001-0.002l-0.034-0.076l-0.013-0.027l-0.023-0.05l-0.023-0.054l-0.014-0.024l-0.035-0.079
			l-0.072-0.146l-0.025-0.054l-0.01-0.021l-0.074-0.146l-0.02-0.034l-0.06-0.111l-0.039-0.074l-0.007-0.014l-0.034-0.058
			l-0.039-0.073l-0.038-0.068l-0.003-0.005l-0.042-0.073l-0.042-0.071l-0.028-0.048l-0.013-0.024l-0.044-0.073l-0.043-0.071
			l-0.018-0.03l-0.027-0.042l-0.044-0.071l-0.045-0.073l-0.007-0.01l-0.04-0.062l-0.045-0.071l-0.04-0.062l-0.006-0.008
			l-0.049-0.073l-0.047-0.069l-0.029-0.044l-0.02-0.027l-0.048-0.071l-0.05-0.071l-0.016-0.023l-0.033-0.047l-0.05-0.071
			l-0.051-0.071l-0.003-0.004l-0.05-0.065l-0.051-0.07l-0.042-0.057l-0.009-0.014l-0.054-0.07l-0.053-0.069l-0.055-0.07
			l-0.053-0.069l-0.055-0.07l-0.016-0.019l-0.039-0.05l-0.057-0.069l-0.055-0.07l0,0l-0.057-0.068l-0.057-0.069l-0.043-0.051
			l-0.016-0.018l-0.059-0.07l-0.058-0.068l-0.027-0.031l-0.03-0.037l-0.061-0.068l-0.059-0.068l-0.014-0.014l-0.048-0.055
			l-0.06-0.068l-0.059-0.063l-0.002-0.003l-0.063-0.068l-0.061-0.068l-0.042-0.047l-0.021-0.021l-0.063-0.066l-0.062-0.067
			l-0.026-0.027l-0.037-0.041c-0.105-0.109-0.211-0.218-0.318-0.325l-0.01-0.009l-0.064-0.067h-0.002
			c-2.471-2.462-5.845-4.687-9.765-6.663c-14.908-4.067-29.217-7.818-41.388-10.807
			C1066.435,795.819,1064.011,795.737,1061.978,795.8z"/>
		<path fill-rule="evenodd" clip-rule="evenodd" fill="#8097A6" d="M1220.246,826.307c-12.395-1.931-27.061-3.979-42.394-5.967
			c-2.622,0.188-5.095,0.533-7.35,1.065l14.035,17.496c16.372,4.271,28.289,7.415,31.126,8.248
			c11.171,3.28,10.822,12.403,7.557,28.714l-0.008,0.036c4.201-5.327,7.827-13.16,9.889-20.887
			c-2.082-6.14-6.031-11.659-13.086-14.827c-1.066-0.48-2.49-1.051-4.232-1.703c7.771,1.139,14.329,2.109,19.108,2.826
			c-0.182-4.286-1.29-7.832-3.604-9.907C1229.556,829.85,1225.545,828.028,1220.246,826.307z"/>
	</g>
</g>
<g>
	<path fill-rule="evenodd" clip-rule="evenodd" fill="#FFFFFF" d="M639.45,572.55c42.109,0,76.452-34.343,76.452-76.452
		c0-42.108-34.343-76.453-76.452-76.453c-42.108,0-76.453,34.344-76.453,76.453C562.997,538.207,597.341,572.55,639.45,572.55z"/>
	<path fill-rule="evenodd" clip-rule="evenodd" fill="#E6E6E6" d="M639.45,567.852c39.521,0,71.754-32.233,71.754-71.753
		c0-39.521-32.233-71.754-71.754-71.754c-39.521,0-71.754,32.233-71.754,71.754C567.695,535.619,599.929,567.852,639.45,567.852z"/>
	<path fill-rule="evenodd" clip-rule="evenodd" fill="#FFFFFF" d="M634.752,404.697h5.125c3.289,0,5.979,2.69,5.979,5.979v37.586
		c0,3.289-2.69,5.979-5.979,5.979h-5.125c-3.289,0-5.98-2.69-5.98-5.979v-37.586C628.771,407.387,631.463,404.697,634.752,404.697z"
		/>
	<path fill-rule="evenodd" clip-rule="evenodd" fill="#E6E6E6" d="M635.686,407.677h3.256c2.089,0,3.798,1.708,3.798,3.798v35.284
		c0,2.088-1.708,3.798-3.798,3.798h-3.256c-2.089,0-3.798-1.709-3.798-3.798v-35.284
		C631.888,409.386,633.597,407.677,635.686,407.677z"/>
	<path fill-rule="evenodd" clip-rule="evenodd" fill="#FFFFFF" d="M639.45,556.32c33.169,0,60.222-27.053,60.222-60.222
		s-27.053-60.223-60.222-60.223s-60.223,27.053-60.223,60.223S606.28,556.32,639.45,556.32z"/>
	<path fill-rule="evenodd" clip-rule="evenodd" fill="#B3B3B3" d="M639.45,550.34c29.876,0,54.243-24.367,54.243-54.242
		c0-29.876-24.367-54.243-54.243-54.243c-29.876,0-54.242,24.367-54.242,54.243C585.208,525.974,609.574,550.34,639.45,550.34z"/>
	<path fill-rule="evenodd" clip-rule="evenodd" fill="#886734" d="M639.45,542.225c25.406,0,46.127-20.721,46.127-46.127
		c0-25.407-20.721-46.127-46.127-46.127c-25.406,0-46.127,20.721-46.127,46.127C593.322,521.504,614.043,542.225,639.45,542.225z"/>
	<path fill-rule="evenodd" clip-rule="evenodd" fill="#694F28" d="M639.45,529.412c18.349,0,33.314-14.965,33.314-33.314
		c0-18.35-14.965-33.315-33.314-33.315c-18.35,0-33.315,14.965-33.315,33.315C606.135,514.447,621.1,529.412,639.45,529.412z"/>
	<path fill-rule="evenodd" clip-rule="evenodd" fill="#BD9D6E" d="M671.639,470.7c5.518,6.983,8.813,15.806,8.813,25.398
		c0,22.646-18.357,41.003-41.003,41.003c-9.592,0-18.414-3.294-25.398-8.812c6.514,4.222,14.281,6.676,22.622,6.676
		c22.998,0,41.643-18.643,41.643-41.643C678.316,484.98,675.862,477.213,671.639,470.7z"/>
</g>
<g>
	<path fill-rule="evenodd" clip-rule="evenodd" fill="#FFFFFF" d="M1315.113,907.251l40.978,20.814
		c7.771,3.947,10.899,13.535,6.952,21.307l-55.984,110.213c-3.945,7.772-13.533,10.901-21.307,6.953l-40.977-20.813
		c-7.771-3.949-10.899-13.535-6.953-21.308l55.983-110.213C1297.754,906.431,1307.341,903.304,1315.113,907.251z"/>
	
		<rect x="1268.506" y="925.766" transform="matrix(-0.8916 -0.4529 0.4529 -0.8916 2016.343 2451.7981)" fill-rule="evenodd" clip-rule="evenodd" width="66.334" height="117.52"/>
	<path fill-rule="evenodd" clip-rule="evenodd" fill="#B3B3B3" d="M1318.442,918.563l26.605,13.515
		c0.723,0.366,1.614,0.075,1.981-0.647l0,0c0.367-0.723,0.076-1.613-0.646-1.981l-26.605-13.514
		c-0.724-0.367-1.615-0.075-1.981,0.646v0.002C1317.429,917.306,1317.72,918.196,1318.442,918.563z"/>
	<polygon fill-rule="evenodd" clip-rule="evenodd" fill="#4D4D4D" points="1298.713,917.116 1304.633,1051.935 1357.854,947.157 	
		"/>
	<path fill-rule="evenodd" clip-rule="evenodd" fill="#B3B3B3" d="M1246.648,1037.348l44.822,22.767
		c1.119,0.57,2.502,0.12,3.07-1.001l0,0c0.57-1.121,0.119-2.503-1.002-3.072l-44.822-22.768c-1.121-0.569-2.502-0.119-3.07,1.002
		h-0.002C1245.076,1035.396,1245.527,1036.777,1246.648,1037.348z"/>
	<circle fill-rule="evenodd" clip-rule="evenodd" fill="#FFFFFF" cx="1270.064" cy="1046.681" r="8.944"/>
	<circle fill-rule="evenodd" clip-rule="evenodd" fill="#B3B3B3" cx="1270.064" cy="1046.68" r="6.304"/>
</g>
<g>
	
		<rect x="605.954" y="704.569" transform="matrix(-0.9026 0.4305 -0.4305 -0.9026 1781.5298 1372.365)" fill-rule="evenodd" clip-rule="evenodd" fill="#FFFFFF" width="259.059" height="366.383"/>
	
		<rect x="612.012" y="757.524" transform="matrix(-0.9026 0.4305 -0.4305 -0.9026 1611.5713 1156.8066)" fill-rule="evenodd" clip-rule="evenodd" fill="#CCCCCC" width="125.768" height="6.451"/>
	
		<rect x="576.084" y="772.077" transform="matrix(-0.9026 0.4305 -0.4305 -0.9026 1631.0439 1181.5078)" fill-rule="evenodd" clip-rule="evenodd" fill="#CCCCCC" width="211.507" height="6.449"/>
	
		<rect x="580.943" y="782.265" transform="matrix(-0.9026 0.4305 -0.4305 -0.9026 1644.679 1198.7902)" fill-rule="evenodd" clip-rule="evenodd" fill="#CCCCCC" width="211.508" height="6.449"/>
	
		<rect x="585.803" y="792.451" transform="matrix(-0.9026 0.4305 -0.4305 -0.9026 1658.3109 1216.0803)" fill-rule="evenodd" clip-rule="evenodd" fill="#CCCCCC" width="211.508" height="6.451"/>
	
		<rect x="590.663" y="802.638" transform="matrix(-0.9026 0.4305 -0.4305 -0.9026 1671.9429 1233.3674)" fill-rule="evenodd" clip-rule="evenodd" fill="#CCCCCC" width="211.508" height="6.451"/>
	
		<rect x="595.522" y="812.825" transform="matrix(-0.9026 0.4305 -0.4305 -0.9026 1685.5708 1250.6611)" fill-rule="evenodd" clip-rule="evenodd" fill="#CCCCCC" width="211.508" height="6.45"/>
	
		<rect x="600.381" y="823.012" transform="matrix(-0.9026 0.4305 -0.4305 -0.9026 1699.202 1267.9504)" fill-rule="evenodd" clip-rule="evenodd" fill="#CCCCCC" width="211.508" height="6.449"/>
	
		<rect x="605.241" y="833.2" transform="matrix(-0.9026 0.4305 -0.4305 -0.9026 1712.8323 1285.2439)" fill-rule="evenodd" clip-rule="evenodd" fill="#CCCCCC" width="211.507" height="6.449"/>
	
		<rect x="610.099" y="843.387" transform="matrix(-0.9026 0.4305 -0.4305 -0.9026 1726.4668 1302.5269)" fill-rule="evenodd" clip-rule="evenodd" fill="#CCCCCC" width="211.508" height="6.449"/>
	
		<rect x="620.111" y="876.34" transform="matrix(-0.9026 0.4305 -0.4305 -0.9026 1659.0989 1383.6798)" fill-rule="evenodd" clip-rule="evenodd" fill="#CCCCCC" width="105.755" height="6.449"/>
	<g>
		<path fill-rule="evenodd" clip-rule="evenodd" fill="#4C8EB4" d="M805.081,851.746c13.676-6.524,30.045-0.728,36.569,12.946
			c6.522,13.673,0.726,30.042-12.95,36.566c-13.672,6.521-30.042,0.726-36.564-12.946
			C785.612,874.637,791.408,858.267,805.081,851.746z"/>
		<path fill-rule="evenodd" clip-rule="evenodd" fill="#9ACAE6" d="M813.128,903.673c-4.674-0.651-9.132-2.497-12.904-5.377
			l16.667-21.793L813.128,903.673z"/>
		<path fill-rule="evenodd" clip-rule="evenodd" fill="#87BBDA" d="M800.225,898.296c-3.344-2.56-6.154-5.925-8.089-9.983
			c-3.777-7.918-3.422-16.74,0.196-24.029l24.56,12.22L800.225,898.296z"/>
		<path fill-rule="evenodd" clip-rule="evenodd" fill="#73ACCD" d="M792.332,864.283c2.633-5.301,6.995-9.794,12.749-12.537
			l11.811,24.757L792.332,864.283z"/>
		<path fill-rule="evenodd" clip-rule="evenodd" fill="#609DC1" d="M805.081,851.746l11.811,24.757l9.361-25.783
			C819.584,848.302,811.989,848.451,805.081,851.746z"/>
	</g>
	<g>
		
			<rect x="659.126" y="957.468" transform="matrix(-0.9026 0.4306 -0.4306 -0.9026 1786.6863 1513.8308)" fill-rule="evenodd" clip-rule="evenodd" fill="#CCCCCC" width="125.854" height="3.222"/>
		
			<rect x="648.965" y="915.786" transform="matrix(-0.9026 0.4305 -0.4305 -0.9026 1664.7561 1522.2797)" fill-rule="evenodd" clip-rule="evenodd" fill="#4C8EB4" width="22.373" height="67.398"/>
		
			<rect x="677.786" y="928.824" transform="matrix(-0.9026 0.4306 -0.4306 -0.9026 1719.7606 1510.4495)" fill-rule="evenodd" clip-rule="evenodd" fill="#609DC1" width="22.373" height="41.983"/>
		
			<rect x="704.193" y="931.211" transform="matrix(-0.9025 0.4306 -0.4306 -0.9025 1768.0072 1490.0245)" fill-rule="evenodd" clip-rule="evenodd" fill="#73ACCD" width="22.375" height="27.767"/>
		
			<rect x="724.742" y="907.69" transform="matrix(-0.9026 0.4306 -0.4306 -0.9026 1799.7391 1448.8826)" fill-rule="evenodd" clip-rule="evenodd" fill="#87BBDA" width="22.373" height="40.783"/>
		
			<rect x="750.594" y="907.605" transform="matrix(-0.9026 0.4305 -0.4305 -0.9026 1846.3816 1426.5468)" fill-rule="evenodd" clip-rule="evenodd" fill="#9ACAE6" width="22.374" height="29.164"/>
		
			<rect x="807.668" y="913.933" transform="matrix(-0.9025 0.4306 -0.4306 -0.9025 1941.6033 1391.6421)" fill-rule="evenodd" clip-rule="evenodd" fill="#CCCCCC" width="11.294" height="3.222"/>
		
			<rect x="821.498" y="902.03" transform="matrix(-0.9026 0.4306 -0.4306 -0.9026 1983.926 1358.3154)" fill-rule="evenodd" clip-rule="evenodd" fill="#CCCCCC" width="33.542" height="3.221"/>
	</g>
	
		<rect x="666.999" y="975.613" transform="matrix(-0.9026 0.4305 -0.4305 -0.9026 1782.7844 1554.238)" fill-rule="evenodd" clip-rule="evenodd" fill="#CCCCCC" width="97.068" height="6.45"/>
	
		<rect x="671.857" y="985.801" transform="matrix(-0.9026 0.4305 -0.4305 -0.9026 1796.4165 1571.5256)" fill-rule="evenodd" clip-rule="evenodd" fill="#CCCCCC" width="97.069" height="6.449"/>
	
		<rect x="676.717" y="995.988" transform="matrix(-0.9026 0.4305 -0.4305 -0.9026 1810.0425 1588.8247)" fill-rule="evenodd" clip-rule="evenodd" fill="#CCCCCC" width="97.069" height="6.449"/>
	
		<rect x="681.577" y="1006.174" transform="matrix(-0.9026 0.4305 -0.4305 -0.9026 1823.6757 1606.1106)" fill-rule="evenodd" clip-rule="evenodd" fill="#CCCCCC" width="97.069" height="6.449"/>
	
		<rect x="686.436" y="1016.362" transform="matrix(-0.9026 0.4305 -0.4305 -0.9026 1837.3127 1623.3918)" fill-rule="evenodd" clip-rule="evenodd" fill="#CCCCCC" width="97.069" height="6.451"/>
	
		<rect x="691.296" y="1026.548" transform="matrix(-0.9026 0.4306 -0.4306 -0.9026 1850.9452 1640.6779)" fill-rule="evenodd" clip-rule="evenodd" fill="#CCCCCC" width="97.069" height="6.451"/>
	
		<rect x="696.155" y="1036.735" transform="matrix(-0.9026 0.4305 -0.4305 -0.9026 1864.5754 1657.9684)" fill-rule="evenodd" clip-rule="evenodd" fill="#CCCCCC" width="97.069" height="6.45"/>
	
		<rect x="703.379" y="1057.37" transform="matrix(-0.9026 0.4305 -0.4305 -0.9026 1841.022 1704.5865)" fill-rule="evenodd" clip-rule="evenodd" fill="#CCCCCC" width="48.534" height="6.45"/>
	
		<rect x="770.288" y="926.342" transform="matrix(-0.9026 0.4305 -0.4305 -0.9026 1958.0836 1416.0309)" fill-rule="evenodd" clip-rule="evenodd" fill="#CCCCCC" width="97.069" height="6.449"/>
	
		<rect x="775.148" y="936.529" transform="matrix(-0.9026 0.4306 -0.4306 -0.9026 1971.7239 1433.3041)" fill-rule="evenodd" clip-rule="evenodd" fill="#CCCCCC" width="97.068" height="6.451"/>
	
		<rect x="780.007" y="946.716" transform="matrix(-0.9026 0.4306 -0.4306 -0.9026 1985.3524 1450.5955)" fill-rule="evenodd" clip-rule="evenodd" fill="#CCCCCC" width="97.069" height="6.449"/>
	
		<rect x="784.866" y="956.903" transform="matrix(-0.9026 0.4305 -0.4305 -0.9026 1998.9819 1467.8883)" fill-rule="evenodd" clip-rule="evenodd" fill="#CCCCCC" width="97.069" height="6.451"/>
	
		<rect x="789.725" y="967.09" transform="matrix(-0.9026 0.4305 -0.4305 -0.9026 2012.6094 1485.1848)" fill-rule="evenodd" clip-rule="evenodd" fill="#CCCCCC" width="97.068" height="6.449"/>
	
		<rect x="794.585" y="977.277" transform="matrix(-0.9026 0.4306 -0.4306 -0.9026 2026.2515 1502.4543)" fill-rule="evenodd" clip-rule="evenodd" fill="#CCCCCC" width="97.069" height="6.451"/>
	
		<rect x="799.445" y="987.464" transform="matrix(-0.9026 0.4305 -0.4305 -0.9026 2039.873 1519.7642)" fill-rule="evenodd" clip-rule="evenodd" fill="#CCCCCC" width="97.068" height="6.449"/>
	
		<rect x="805.705" y="1003.839" transform="matrix(-0.9026 0.4305 -0.4305 -0.9026 2031.4879 1554.4115)" fill-rule="evenodd" clip-rule="evenodd" fill="#CCCCCC" width="68.323" height="6.449"/>
</g>
<g>
	<path fill-rule="evenodd" clip-rule="evenodd" fill="#E6E6E6" d="M1491.354,815.07c22.368,0,40.612-23.875,40.612-53.148
		s-18.244-53.148-40.612-53.148c-22.366,0-40.61,23.875-40.61,53.148S1468.988,815.07,1491.354,815.07z"/>
	<path fill-rule="evenodd" clip-rule="evenodd" fill="#FFFFFF" d="M1491.354,799.861c18.522,0,33.632-19.771,33.632-44.013
		s-15.109-44.013-33.632-44.013s-33.63,19.771-33.63,44.013S1472.832,799.861,1491.354,799.861z"/>
	<path fill-rule="evenodd" clip-rule="evenodd" fill="#4D4D4D" d="M1491.354,708.773c0.29,0,0.577,0.008,0.865,0.015v27.748h-1.729
		v-27.748C1490.777,708.781,1491.065,708.773,1491.354,708.773z"/>
	<path fill-rule="evenodd" clip-rule="evenodd" fill="#4D4D4D" d="M1488.205,715.94h6.301c1.416,0,2.573,1.159,2.573,2.573v28.651
		c0,1.416-1.157,2.574-2.573,2.574h-6.301c-1.416,0-2.573-1.158-2.573-2.574v-28.651
		C1485.632,717.1,1486.789,715.94,1488.205,715.94z"/>
	<path fill-rule="evenodd" clip-rule="evenodd" fill="#B3B3B3" d="M1489.621,717.957h3.469c0.777,0,1.414,0.639,1.414,1.418v26.93
		c0,0.779-0.637,1.416-1.414,1.416h-3.469c-0.779,0-1.416-0.637-1.416-1.416v-26.93
		C1488.205,718.596,1488.842,717.957,1489.621,717.957z"/>
</g>
<g>
	<path fill-rule="evenodd" clip-rule="evenodd" fill="#F85A68" d="M1463.633,982.37l-20.879,8.104l8.104-20.878l118.203-118.203
		c1.917-1.916,5.052-1.916,6.97,0l5.806,5.806c1.916,1.917,1.916,5.053,0,6.969L1463.633,982.37z"/>
	<path fill-rule="evenodd" clip-rule="evenodd" fill="#C62229" d="M1463.633,982.37l-20.879,8.104l15.07-15.069l121.107-121.109
		l2.904,2.903c1.916,1.917,1.916,5.053,0,6.969L1463.633,982.37z"/>
	<path fill-rule="evenodd" clip-rule="evenodd" fill="#FFFFFF" d="M1463.633,982.37l-20.879,8.104l8.104-20.878l113.074-113.073
		c5.263,3.733,9.456,7.997,12.773,12.774L1463.633,982.37z"/>
	<path fill-rule="evenodd" clip-rule="evenodd" fill="#D0D0D0" d="M1463.633,982.37l-20.879,8.104l15.07-15.069l113.055-113.055
		c2.19,2.179,4.125,4.496,5.826,6.947L1463.633,982.37z"/>
	<path fill-rule="evenodd" clip-rule="evenodd" fill="#F5E6B6" d="M1463.633,982.37l-20.879,8.104l8.104-20.878l108.998-108.998
		c5.341,3.705,9.532,7.968,12.775,12.775L1463.633,982.37z"/>
	<path fill-rule="evenodd" clip-rule="evenodd" fill="#FFD800" d="M1463.633,982.37l-20.879,8.104l15.07-15.069l109.02-109.02
		c2.198,2.186,4.117,4.515,5.787,6.988L1463.633,982.37z"/>
	<path fill-rule="evenodd" clip-rule="evenodd" fill="#F0B16C" d="M1463.633,982.37l-20.879,8.104l8.104-20.878
		c2.406,1.651,4.752,3.593,6.967,5.809C1460.039,977.619,1461.98,979.964,1463.633,982.37z"/>
	<path fill-rule="evenodd" clip-rule="evenodd" fill="#C78B4C" d="M1463.633,982.37l-20.879,8.104l15.07-15.069
		C1460.039,977.619,1461.98,979.964,1463.633,982.37z"/>
	<path fill-rule="evenodd" clip-rule="evenodd" fill="#1E1E1E" d="M1449.65,987.797l-6.896,2.677l2.678-6.897
		c0.795,0.547,1.568,1.188,2.301,1.921C1448.465,986.229,1449.105,987.002,1449.65,987.797z"/>
</g>
<rect x="596.465" y="92.062" fill-rule="evenodd" clip-rule="evenodd" fill="#FFFFFF" width="930.07" height="98.333"/>
<g>
	<g>
		<rect x="798" y="115" fill="#C3261C" width="19" height="19"/>
		<rect x="817" y="134" fill="#C3261C" width="20" height="20"/>
		<rect x="837" y="115" fill="#C3261C" width="19" height="19"/>
		<rect x="798" y="154" fill="#C3261C" width="19" height="19"/>
	</g>
	<g>
		<path fill="#0C0C0C" d="M923.648,138.146h16.875v10.323h-16.875v15.082h-11.188v-43.764h30.474v10.508h-19.286V138.146z"/>
		<path fill="#0C0C0C" d="M961.227,149.643h-1.978v13.908h-11.188v-43.764h17.493c9.025,0,16.01,4.142,16.257,14.402
			c0,8.098-3.276,12.672-8.592,14.341l11.93,15.021h-13.784L961.227,149.643z M965.739,140.123c6.985,0,6.985-10.014,0-10.014h-6.49
			v10.014H965.739z"/>
		<path fill="#0C0C0C" d="M1025.138,163.551h-11.868l-2.843-8.777h-11.683l-2.72,8.777h-11.868l15.268-43.764h10.076
			L1025.138,163.551z M1007.769,144.945l-3.029-12.796h-0.309l-3.214,12.796H1007.769z"/>
		<path fill="#0C0C0C" d="M1058.823,154.341c-3.647,7.108-10.261,9.828-15.763,9.828c-8.592,0-17.246-5.007-17.246-14.959v-15.082
			c0-9.891,8.654-14.959,17.431-14.959c5.378,0,11.869,2.287,15.392,10.075l-9.024,3.647c-2.967-5.439-12.734-4.203-12.734,1.236
			v15.082c0,5.254,9.891,6.737,12.302,0.68L1058.823,154.341z"/>
		<path fill="#0C0C0C" d="M1083.051,130.233v33.317h-11.188v-33.317h-11.621v-10.508h34.431v10.508H1083.051z"/>
		<path fill="#0C0C0C" d="M1131.447,163.551h-11.867l-2.844-8.777h-11.683l-2.72,8.777h-11.869l15.269-43.764h10.075
			L1131.447,163.551z M1114.078,144.945l-3.029-12.796h-0.309l-3.215,12.796H1114.078z"/>
		<path fill="#0C0C0C" d="M1134.35,119.787h11.127v32.822h17.802v10.941h-28.929V119.787z"/>
		<path fill="#0C0C0C" d="M1182.498,149.705c4.389,5.315,14.031,5.562,14.34,0.865c0.124-2.473-3.894-3.895-7.479-4.389
			c-7.047-1.113-13.476-5.563-13.476-13.908c0-8.592,7.788-13.104,15.824-13.104c5.315,0,10.446,1.483,14.958,6.984l-7.231,5.563
			c-4.574-4.883-12.425-4.697-12.61,0.371c0.124,2.102,2.411,3.338,5.811,4.079c7.789,1.422,15.577,4.142,15.082,14.897
			c-0.37,8.469-9.271,13.104-17.307,13.104c-5.254,0-10.818-2.658-14.897-7.912L1182.498,149.705z"/>
		<path fill="#0C0C0C" d="M1211.424,134.189c0-10.075,9.024-15.021,18.111-15.021c9.086,0,18.173,5.007,18.173,15.021v14.959
			c0,10.014-9.024,15.021-18.111,15.021s-18.173-5.007-18.173-15.021V134.189z M1222.488,149.148c0,3.214,3.585,4.76,7.108,4.76
			s7.047-1.607,7.047-4.76v-14.959c0-3.399-3.647-4.945-7.232-4.945c-3.462,0-6.923,1.731-6.923,4.945V149.148z"/>
		<path fill="#0C0C0C" d="M1264.765,138.146h16.875v10.323h-16.875v15.082h-11.188v-43.764h30.474v10.508h-19.286V138.146z"/>
		<path fill="#0C0C0C" d="M1309.391,130.233v33.317h-11.188v-33.317h-11.621v-10.508h34.431v10.508H1309.391z"/>
	</g>
</g>
</svg>
