<svg xmlns="http://www.w3.org/2000/svg" width="409" height="45">
<g fill="#0c0c0c">
<path d="M11.389 19.002h16.874v10.323H11.389v15.082H.2V.643h30.474v10.508H11.389zM48.968 30.5H46.99v13.908H35.802V.643h17.493c9.025 0 16.01 4.142 16.257 14.402 0 8.098-3.276 12.672-8.592 14.341l11.93 15.021H59.106zm4.512-9.52c6.985 0 6.985-10.014 0-10.014h-6.49V20.98z"/><path d="M112.879 44.407H101.01l-2.843-8.777H86.485l-2.72 8.777H71.897L87.165.643H97.24zm-17.37-18.606L92.48 13.005h-.31l-3.213 12.796zm51.054 9.396c-3.646 7.108-10.26 9.828-15.761 9.828-8.592 0-17.246-5.007-17.246-14.959V14.984c0-9.89 8.654-14.959 17.432-14.959 5.377 0 11.868 2.287 15.39 10.075l-9.023 3.647c-2.967-5.439-12.734-4.203-12.734 1.236v15.082c0 5.254 9.89 6.737 12.3.68zm24.229-24.108v33.317h-11.19V11.09h-11.62V.581h34.43V11.09zm48.396 33.318H207.32l-2.844-8.777h-11.684l-2.72 8.777h-11.87L193.473.643h10.075zm-17.37-18.606l-3.028-12.796h-.31l-3.214 12.796zM222.09.643h11.127v32.822h17.802v10.941h-28.93zm48.148 29.918c4.389 5.315 14.03 5.562 14.34.865.124-2.473-3.894-3.895-7.48-4.389-7.046-1.113-13.475-5.563-13.475-13.908 0-8.592 7.788-13.104 15.824-13.104 5.315 0 10.446 1.483 14.958 6.984l-7.231 5.563c-4.574-4.883-12.425-4.697-12.61.371.124 2.102 2.41 3.338 5.81 4.08 7.79 1.421 15.578 4.141 15.083 14.896-.37 8.47-9.271 13.104-17.307 13.104-5.254 0-10.818-2.658-14.897-7.912zm28.926-15.516c0-10.075 9.024-15.02 18.11-15.02 9.087 0 18.174 5.006 18.174 15.02v14.96c0 10.013-9.024 15.02-18.111 15.02-9.087 0-18.173-5.007-18.173-15.02zm11.064 14.96c0 3.213 3.585 4.76 7.108 4.76 3.523 0 7.047-1.608 7.047-4.76v-14.96c0-3.399-3.647-4.945-7.232-4.945-3.462 0-6.923 1.731-6.923 4.945zm42.277-11.003h16.875v10.323h-16.875v15.082h-11.188V.643h30.474v10.508h-19.286zm44.626-7.913v33.317h-11.19V11.09h-11.62V.581h34.43V11.09z"/>
</g>
</svg>
